<?xml version="1.0" standalone="no"?>
<!DOCTYPE svg PUBLIC "-//W3C//DTD SVG 1.1//EN" "http://www.w3.org/Graphics/SVG/1.1/DTD/svg11.dtd" >
<svg xmlns="http://www.w3.org/2000/svg">
<metadata></metadata>
<defs>
<font id="zurichregular" horiz-adv-x="1132" >
<font-face units-per-em="2048" ascent="1638" descent="-410" />
<missing-glyph horiz-adv-x="567" />
<glyph horiz-adv-x="0" />
<glyph horiz-adv-x="682" />
<glyph unicode=" "  horiz-adv-x="567" />
<glyph unicode="&#x09;" horiz-adv-x="567" />
<glyph unicode="&#xa0;" horiz-adv-x="567" />
<glyph unicode="!" horiz-adv-x="757" d="M270 1475h219l-34 -1131h-150zM276 0v207h205v-207h-205z" />
<glyph unicode="&#x22;" horiz-adv-x="614" d="M90 881v555h139v-555h-139zM385 881v555h139v-555h-139z" />
<glyph unicode="#" horiz-adv-x="1574" d="M88 449l53 145h310l92 264h-330l51 146h332l162 454h166l-162 -454h256l164 454h164l-160 -454h301l-51 -146h-303l-93 -264h322l-51 -145h-322l-162 -453h-165l161 453h-258l-162 -453h-165l159 453h-309zM616 594h261l92 264h-260z" />
<glyph unicode="$" d="M63 406v20h191q4 -127 67 -190.5t195 -75.5v487l-188 58q-252 76 -252 329q0 164 118 272.5t322 118.5v170h100v-168q191 -3 300.5 -96.5t109.5 -249.5v-16h-182q-5 91 -63 144t-165 63v-453l103 -28q181 -48 265.5 -132.5t84.5 -230.5q0 -189 -117.5 -301t-335.5 -127 v-199h-100v199q-224 0 -338.5 103t-114.5 303zM268 1047q0 -70 38.5 -109t125.5 -68l84 -26v428q-113 -3 -180.5 -67.5t-67.5 -157.5zM616 160q126 9 197.5 75t71.5 168q0 75 -44.5 127t-127.5 72l-97 23v-465z" />
<glyph unicode="%" horiz-adv-x="2015" d="M176 1073q0 182 84 279.5t240 97.5q154 0 236.5 -93.5t82.5 -264.5q0 -188 -85 -290t-245 -102q-151 0 -232 97t-81 276zM340 1077q0 -121 40 -185.5t114 -64.5q77 0 119 68t42 195q0 116 -40 177.5t-115 61.5q-76 0 -118 -64.5t-42 -187.5zM522 -25l842 1475h129 l-842 -1475h-129zM1194 348q0 182 84 279.5t240 97.5q155 0 238 -93.5t83 -264.5q0 -188 -85.5 -290t-246.5 -102q-151 0 -232 97t-81 276zM1360 352q0 -121 39.5 -185.5t113.5 -64.5q77 0 119.5 68t42.5 195q0 115 -41 177t-116 62q-76 0 -117 -64.5t-41 -187.5z" />
<glyph unicode="&#x26;" horiz-adv-x="1241" d="M90 387q0 155 75.5 251.5t207.5 113.5q-109 28 -171.5 116t-62.5 215q0 185 119.5 289.5t339.5 104.5h164v-168h-148q-140 0 -206 -55t-66 -181q0 -242 268 -242h183v224h200v-224h181v-165h-181v-666h-448q-95 0 -157 8t-116 37q-84 43 -133 133.5t-49 208.5zM301 420 q0 -78 17.5 -127.5t57 -77t92 -37.5t134.5 -10h191v498h-181q-161 0 -236 -55.5t-75 -190.5z" />
<glyph unicode="'" horiz-adv-x="317" d="M90 881v555h139v-555h-139z" />
<glyph unicode="(" horiz-adv-x="645" d="M164 618q0 193 55 401.5t164 477.5h139q-90 -289 -134 -485t-44 -377q0 -183 49 -403t146 -519h-142q-60 156 -93 248t-70 216t-53.5 230.5t-16.5 210.5z" />
<glyph unicode=")" horiz-adv-x="645" d="M106 1497h142q61 -158 93 -248.5t70 -215t54 -230t16 -209.5q0 -193 -55.5 -401.5t-165.5 -479.5h-137q90 289 134 485t44 377q0 183 -49 403t-146 519z" />
<glyph unicode="*" horiz-adv-x="1081" d="M135 1028v154l338 -37l-209 274l131 78l146 -313l133 313l133 -78l-199 -274l338 37v-154l-338 37l199 -281l-133 -79l-133 321l-146 -321l-131 79l209 281z" />
<glyph unicode="+" horiz-adv-x="1705" d="M254 541v139h528v541h142v-541h528v-139h-528v-541h-142v541h-528z" />
<glyph unicode="," horiz-adv-x="567" d="M98 -254l135 504h236l-229 -504h-142z" />
<glyph unicode="-" horiz-adv-x="677" d="M96 428v172h486v-172h-486z" />
<glyph unicode="." horiz-adv-x="567" d="M172 0v252h223v-252h-223z" />
<glyph unicode="/" horiz-adv-x="616" d="M-33 -147l535 1644h123l-535 -1644h-123z" />
<glyph unicode="0" d="M94 705q0 200 22.5 331t88.5 228q129 188 358 188q127 0 226 -58.5t161 -168.5q53 -95 70.5 -221t17.5 -320q0 -707 -469 -707q-245 0 -360 178t-115 550zM293 707q0 -291 65 -429.5t209 -138.5q142 0 206.5 144t64.5 440q0 286 -66.5 426.5t-206.5 140.5t-206 -145 t-66 -438z" />
<glyph unicode="1" d="M256 999v211q202 95 315 217h197v-1427h-197v1194q-143 -121 -315 -195z" />
<glyph unicode="2" d="M121 0v205q368 333 531 527.5t163 328.5q0 101 -64 163t-167 62q-106 0 -165 -63t-59 -181h-217q6 196 118 303t308 107q201 0 323 -106t122 -287q0 -64 -16 -123.5t-40.5 -108t-70.5 -107.5t-87.5 -103.5t-109.5 -112.5l-336 -336h658v-168h-891z" />
<glyph unicode="3" d="M84 379h215q9 -120 70.5 -177t181.5 -57q137 0 214 68.5t77 179.5q0 127 -91 198t-262 71q-8 0 -24.5 -1.5t-24.5 -1.5v156q191 5 283 65.5t92 184.5q0 100 -65 159.5t-177 59.5q-116 0 -185.5 -58t-72.5 -155h-204q3 174 123.5 276.5t330.5 102.5q212 0 333.5 -107 t121.5 -280q0 -233 -258 -324q135 -27 208.5 -120t73.5 -228q0 -183 -134.5 -299.5t-368.5 -116.5q-219 0 -337 105.5t-120 298.5z" />
<glyph unicode="4" d="M51 307v250l611 870h227v-950h192v-170h-192v-307h-191v307h-647zM207 477h491v744z" />
<glyph unicode="5" d="M111 348h217q37 -201 241 -201q126 0 197.5 87t71.5 247q0 142 -72.5 218.5t-204.5 76.5q-98 0 -161.5 -50t-80.5 -142h-184l33 843h786v-161h-614l-18 -455q69 67 136.5 96t155.5 29q189 0 308.5 -128t119.5 -333q0 -219 -140.5 -359.5t-369.5 -140.5q-188 0 -300.5 101 t-120.5 272z" />
<glyph unicode="6" d="M86 670q0 386 130.5 584t383.5 198q176 0 289.5 -96.5t122.5 -255.5h-205q-12 94 -69 147t-144 53q-152 0 -226.5 -136.5t-76.5 -413.5q51 88 136 135t194 47q183 0 302 -123.5t119 -327.5q0 -233 -131 -367t-338 -134q-246 0 -366.5 172t-120.5 518zM307 457 q0 -146 77 -232t196 -86q121 0 196.5 85.5t75.5 234.5q0 144 -74.5 229.5t-191.5 85.5q-120 0 -199.5 -86.5t-79.5 -230.5z" />
<glyph unicode="7" d="M96 1251v176h914v-192l-498 -1235h-242l551 1251h-725z" />
<glyph unicode="8" d="M80 397q0 275 311 355q-136 32 -212.5 120t-76.5 211q0 158 131 262.5t332 104.5q205 0 336 -104t131 -263q0 -127 -74.5 -215t-207.5 -116q145 -30 225 -127.5t80 -235.5q0 -183 -132.5 -298.5t-355.5 -115.5q-226 0 -356.5 114.5t-130.5 307.5zM289 397q0 -112 75 -185 t199 -73q126 0 204.5 71.5t78.5 188.5q0 118 -74.5 192.5t-202.5 74.5q-130 0 -205 -76.5t-75 -192.5zM305 1071q0 -95 71 -163t189 -68q124 0 195 63.5t71 167.5q0 101 -72 164t-196 63q-112 0 -185 -65.5t-73 -161.5z" />
<glyph unicode="9" d="M84 958q0 225 132 358.5t335 133.5q489 0 489 -686q0 -389 -129 -588t-379 -199q-181 0 -292.5 95.5t-120.5 255.5h207q12 -93 68.5 -145t142.5 -52q153 0 227 137t74 416q-108 -186 -334 -186q-182 0 -301 124.5t-119 335.5zM274 969q0 -143 75 -227.5t194 -84.5 q118 0 197 86.5t79 229.5q0 146 -74.5 232.5t-191.5 86.5q-127 0 -203 -86t-76 -237z" />
<glyph unicode=":" horiz-adv-x="757" d="M268 0v252h221v-252h-221zM268 776v252h221v-252h-221z" />
<glyph unicode=";" horiz-adv-x="757" d="M141 -254l135 504h236l-229 -504h-142zM268 776v252h224v-252h-224z" />
<glyph unicode="&#x3c;" horiz-adv-x="1705" d="M264 547v129l1178 483v-153l-969 -396l969 -393v-154z" />
<glyph unicode="=" horiz-adv-x="1705" d="M254 342v139h1198v-139h-1198zM254 739v140h1198v-140h-1198z" />
<glyph unicode="&#x3e;" horiz-adv-x="1705" d="M264 63v154l971 393l-971 396v153l1178 -483v-129z" />
<glyph unicode="?" horiz-adv-x="1005" d="M131 1266v186q146 47 279 47q218 0 348.5 -103t130.5 -266q0 -39 -8.5 -76.5t-18 -65.5t-35 -65.5t-40 -57.5t-54.5 -61t-56.5 -57t-66.5 -63q-14 -14 -36.5 -34t-28 -26.5t-15.5 -18.5t-11 -23t-3 -26.5t-2 -41.5v-174h-170v199q0 74 9.5 97.5t47.5 61.5 q146 149 187 200q88 111 88 206q0 99 -73 160t-200 61q-136 0 -272 -59zM326 0v213h213v-213h-213z" />
<glyph unicode="@" horiz-adv-x="2048" d="M106 522q0 335 203 582q145 177 350.5 269.5t456.5 92.5q166 0 312.5 -46t250.5 -126q129 -100 197 -231t68 -283q0 -175 -63 -315.5t-185 -235.5q-139 -112 -316 -112q-200 0 -200 157v19q-108 -174 -301 -174q-152 0 -233 85.5t-81 246.5q0 156 63.5 283t172.5 198.5 t241 71.5q170 0 242 -150l57 115h132l-146 -576q-8 -33 -8 -59q0 -94 100 -94q101 0 209 102q79 75 124.5 185.5t45.5 234.5q0 257 -189 419t-501 162q-266 0 -457 -114t-296 -299.5t-105 -409.5q0 -177 61.5 -307.5t192.5 -230.5q99 -75 234.5 -117.5t289.5 -42.5 q169 0 329 49t292 141l55 -82q-296 -223 -664 -223q-382 0 -628 187q-306 236 -306 628zM725 446q0 -106 48.5 -162.5t137.5 -56.5q96 0 173.5 68t105.5 180l59 236q-17 89 -68.5 136.5t-129.5 47.5q-90 0 -165 -59.5t-118 -163t-43 -226.5z" />
<glyph unicode="A" horiz-adv-x="1460" d="M14 0l627 1475h211l592 -1475h-230l-147 381h-684l-164 -381h-205zM449 549h557l-271 727z" />
<glyph unicode="B" horiz-adv-x="1312" d="M170 0v1475h502q198 0 293 -43q96 -45 149 -131t53 -201q0 -122 -61 -205.5t-178 -120.5q136 -38 207 -136t71 -247q0 -216 -122.5 -303.5t-385.5 -87.5h-528zM367 164h303q170 0 248.5 59.5t78.5 198.5q0 262 -327 262h-303v-520zM367 848h284q161 0 233 51t72 176 q0 236 -305 236h-284v-463z" />
<glyph unicode="C" horiz-adv-x="1355" d="M115 729q0 368 165.5 568t467.5 200q238 0 374.5 -109.5t141.5 -300.5h-209q-9 113 -99 183.5t-227 70.5q-187 0 -295 -157.5t-108 -448.5q0 -283 105 -436.5t298 -153.5q140 0 225 67t95 185h219q-3 -192 -147.5 -307t-391.5 -115q-298 0 -456 193t-158 561z" />
<glyph unicode="D" horiz-adv-x="1470" d="M170 0v1475h414q188 0 304.5 -23.5t217.5 -103.5q124 -97 190 -259t66 -372q0 -171 -48 -311.5t-134 -231.5q-98 -103 -222.5 -138.5t-320.5 -35.5h-467zM367 176h315q473 0 473 541q0 287 -131.5 441.5t-376.5 154.5h-280v-1137z" />
<glyph unicode="E" horiz-adv-x="1236" d="M170 0v1475h915v-175h-718v-448h688v-174h-688v-502h735v-176h-932z" />
<glyph unicode="F" horiz-adv-x="1126" d="M170 0v1475h858v-177h-661v-452h626v-176h-626v-670h-197z" />
<glyph unicode="G" horiz-adv-x="1523" d="M113 721q0 361 192 568.5t531 207.5q237 0 374.5 -104t143.5 -285h-215q-3 101 -95 169.5t-235 68.5q-227 0 -357 -162.5t-130 -454.5q0 -283 137 -437.5t385 -154.5q123 0 301 53v439h-307v166h516v-727q-290 -95 -518 -95q-338 0 -530.5 199t-192.5 549z" />
<glyph unicode="H" horiz-adv-x="1462" d="M170 0v1475h201v-629h725v629h196v-1475h-196v670h-725v-670h-201z" />
<glyph unicode="I" horiz-adv-x="538" d="M170 0v1475h197v-1475h-197z" />
<glyph unicode="J" horiz-adv-x="1081" d="M45 356q0 7 1 21.5t1 21.5h195q0 -5 -1 -16t-1 -16q0 -107 57.5 -163.5t163.5 -56.5q148 0 205 84t57 269v975h197v-1010q0 -244 -113.5 -367t-335.5 -123q-204 0 -315 99.5t-111 281.5z" />
<glyph unicode="K" horiz-adv-x="1331" d="M170 0v1475h197v-633l606 633h264l-641 -656l719 -819h-283l-665 780v-780h-197z" />
<glyph unicode="L" horiz-adv-x="1095" d="M170 0v1475h195v-1299h671v-176h-866z" />
<glyph unicode="M" horiz-adv-x="1861" d="M172 0v1475h336l438 -1203l418 1203h326v-1475h-193v1319l-471 -1319h-170l-487 1305v-1305h-197z" />
<glyph unicode="N" horiz-adv-x="1503" d="M172 0v1475h281l698 -1203v1203h178v-1475h-242l-733 1251v-1251h-182z" />
<glyph unicode="O" horiz-adv-x="1579" d="M117 733q0 368 176.5 566t497.5 198q322 0 496.5 -197t174.5 -567q0 -364 -175.5 -561t-495.5 -197q-318 0 -496 198t-178 560zM328 743q0 -288 119.5 -443t340.5 -155q223 0 342 152.5t119 441.5q0 290 -120 443t-341 153t-340.5 -152.5t-119.5 -439.5z" />
<glyph unicode="P" horiz-adv-x="1234" d="M170 0v1475h514q481 0 481 -406q0 -221 -142 -321.5t-435 -100.5h-221v-647h-197zM367 829h284q160 0 232.5 54t72.5 182q0 132 -71.5 186t-233.5 54h-284v-476z" />
<glyph unicode="Q" horiz-adv-x="1579" d="M117 739q0 365 176.5 562.5t497.5 197.5q318 0 494.5 -194t176.5 -545q0 -392 -221 -582h307v-178h-514q-39 0 -115 -7t-114 -7q-328 0 -508 195.5t-180 557.5zM328 750q0 -286 118.5 -438t341.5 -152t342 151t119 437q0 287 -120 438t-341 151t-340.5 -151.5 t-119.5 -435.5z" />
<glyph unicode="R" horiz-adv-x="1327" d="M170 0v1475h520q490 0 490 -385q0 -131 -71 -223t-200 -126q101 -24 144.5 -72t66.5 -149q6 -26 30.5 -210t61.5 -310h-211q-31 127 -51.5 299.5t-36.5 216.5q-30 87 -94.5 118.5t-204.5 31.5h-247v-666h-197zM367 846h288q164 0 239 50t75 173q0 70 -19.5 114t-63 67 t-96 30.5t-135.5 7.5h-288v-442z" />
<glyph unicode="S" horiz-adv-x="1343" d="M115 412v20h211q4 -146 87 -214t253 -68q167 0 262.5 68.5t95.5 187.5q0 28 -5.5 52t-13 42.5t-24 35.5t-31 29t-41 24t-46.5 20t-56 18.5t-61 17t-69 17.5q-37 9 -56 14l-72 18t-75.5 19.5t-61.5 18.5t-66.5 24.5t-54.5 27.5q-75 44 -117.5 123t-42.5 174q0 188 147 302 t410 114q231 0 361.5 -98.5t130.5 -265.5v-23h-199q-5 108 -85 166.5t-226 58.5q-150 0 -240 -64.5t-90 -176.5q0 -36 7.5 -62.5t32.5 -49t42 -35.5t68.5 -30t77.5 -24t101 -26q48 -12 74 -19q86 -22 144 -40.5t118.5 -44.5t97.5 -56t68 -70.5t44.5 -93t13.5 -119.5 q0 -208 -146 -328.5t-411 -120.5q-282 0 -419.5 107t-137.5 330z" />
<glyph unicode="T" horiz-adv-x="1234" d="M29 1298v177h1177v-177h-491v-1298h-197v1298h-489z" />
<glyph unicode="U" horiz-adv-x="1490" d="M152 567v908h202v-871q0 -230 92.5 -340t294.5 -110q219 0 312.5 116t93.5 365v840h190v-963q0 -252 -162 -393.5t-452 -141.5q-282 0 -426.5 148t-144.5 442z" />
<glyph unicode="V" horiz-adv-x="1345" d="M33 1475h221l410 -1246l438 1246h213l-551 -1475h-217z" />
<glyph unicode="W" horiz-adv-x="2000" d="M33 1475h194l318 -1180l356 1180h223l324 -1207l332 1207h188l-426 -1475h-207l-334 1255l-374 -1255h-193z" />
<glyph unicode="X" horiz-adv-x="1433" d="M45 0l561 774l-491 701h231l391 -568l389 568h232l-512 -701l543 -774h-238l-430 639l-445 -639h-231z" />
<glyph unicode="Y" horiz-adv-x="1345" d="M18 1475h244l426 -719l414 719h225l-551 -893v-582h-196v582z" />
<glyph unicode="Z" horiz-adv-x="1232" d="M74 0v209l846 1089h-811v177h1024v-211l-838 -1082h864v-182h-1085z" />
<glyph unicode="[" horiz-adv-x="645" d="M213 -311v1786h348v-111h-188v-1565h188v-110h-348z" />
<glyph unicode="\" horiz-adv-x="616" d="M-33 1497h123l533 -1644h-121z" />
<glyph unicode="]" horiz-adv-x="645" d="M84 -201h186v1565h-186v111h348v-1786h-348v110z" />
<glyph unicode="^" horiz-adv-x="2048" d="M420 901l510 557h186l510 -557h-180l-422 420l-424 -420h-180z" />
<glyph unicode="_" horiz-adv-x="1024" d="M0 -340h1024v-143h-1024v143z" />
<glyph unicode="`" horiz-adv-x="1024" d="M250 1511h201l204 -348h-120z" />
<glyph unicode="a" horiz-adv-x="1087" d="M84 285q0 161 128.5 257.5t356.5 96.5h179v125q0 168 -203 168q-95 0 -150.5 -46.5t-58.5 -129.5h-182v16q0 136 97 208.5t281 72.5q216 0 311 -77.5t95 -242.5v-635q0 -32 10 -98h-170q-10 32 -20 162q-38 -91 -122.5 -139t-207.5 -48q-158 0 -251 86t-93 224zM279 303 q0 -74 54.5 -124t139.5 -50q133 0 204 71.5t71 207.5v102h-160q-151 0 -230 -56t-79 -151z" />
<glyph unicode="b" horiz-adv-x="1232" d="M145 0q13 109 13 205v1270h188v-603q150 172 348 172q205 0 320.5 -137t115.5 -395q0 -252 -120.5 -394.5t-327.5 -142.5q-220 0 -336 166l-8 -141h-193zM346 496q0 -184 82.5 -290t214.5 -106q129 0 211 111.5t82 314.5q0 184 -82.5 289t-214.5 105q-128 0 -210.5 -111 t-82.5 -313z" />
<glyph unicode="c" horiz-adv-x="1056" d="M98 492q0 265 124 413t347 148q172 0 275.5 -93t103.5 -251v-4h-184q0 93 -60 154t-149 61q-119 0 -189.5 -100.5t-70.5 -282.5q0 -207 65 -312.5t191 -105.5q99 0 159.5 61.5t61.5 165.5h184q-12 -181 -115 -276t-286 -95q-220 0 -338.5 134.5t-118.5 382.5z" />
<glyph unicode="d" horiz-adv-x="1232" d="M100 506q0 255 120 396.5t331 141.5q214 0 336 -172v603h188v-1270q0 -104 12 -205h-192l-8 152q-72 -94 -149.5 -135.5t-180.5 -41.5q-212 0 -334.5 142t-122.5 389zM297 526q0 -202 82.5 -314t210.5 -112q132 0 214.5 104.5t82.5 289.5q0 203 -82 314.5t-211 111.5 q-132 0 -214.5 -105t-82.5 -289z" />
<glyph unicode="e" horiz-adv-x="1128" d="M102 494q0 274 123 416.5t350 142.5q209 0 329 -119.5t120 -325.5q0 -82 -4 -125h-729v-61q0 -147 75.5 -226t211.5 -79q114 0 179.5 57t67.5 156h181q-1 -161 -115.5 -258t-300.5 -97q-239 0 -363.5 132t-124.5 387zM301 616h530v23q0 130 -71 207.5t-182 77.5 q-121 0 -199 -85t-78 -223z" />
<glyph unicode="f" horiz-adv-x="630" d="M-8 889v139h188v164q0 307 285 307q70 0 172 -18v-152q-94 23 -129 23q-66 0 -101.5 -42.5t-35.5 -121.5v-160h237v-139h-237v-889h-191v889h-188z" />
<glyph unicode="g" horiz-adv-x="1214" d="M102 549q0 233 120.5 367.5t318.5 134.5q237 0 329 -150l7 127h178q-8 -86 -8 -182v-813q0 -231 -115.5 -336t-362.5 -105q-216 0 -315 82t-100 263h204q1 -104 60 -157.5t170 -53.5q138 0 203 68.5t65 207.5v193q-30 -60 -118 -104t-187 -44q-216 0 -332.5 128.5 t-116.5 373.5zM301 528q0 -169 80 -265.5t211 -96.5q127 0 207 103t80 290q0 169 -80.5 266t-210.5 97q-126 0 -206.5 -103.5t-80.5 -290.5z" />
<glyph unicode="h" horiz-adv-x="1204" d="M166 0v1475h190v-617q34 83 121 132.5t201 49.5q102 0 187 -37t132 -102q32 -43 41 -101t9 -163v-637h-189v649q0 128 -54.5 190t-174.5 62t-196.5 -65t-76.5 -168v-668h-190z" />
<glyph unicode="i" horiz-adv-x="512" d="M145 1266v209h222v-209h-222zM162 0v1028h190v-1028h-190z" />
<glyph unicode="j" horiz-adv-x="512" d="M-27 -256q66 0 102 7.5t55 31.5t23.5 54t4.5 91v1100h190v-1139q0 -151 -64.5 -221.5t-209.5 -70.5q-15 0 -101 8v139zM143 1266v209h219v-209h-219z" />
<glyph unicode="k" horiz-adv-x="1007" d="M156 0v1475h190v-867l389 422h232l-428 -444l458 -586h-233l-418 551v-551h-190z" />
<glyph unicode="l" horiz-adv-x="512" d="M162 0v1475h190v-1475h-190z" />
<glyph unicode="m" horiz-adv-x="1867" d="M158 1028h192l6 -174q39 84 123 135t189 51q207 0 338 -180q77 95 157.5 137.5t186.5 42.5q109 0 197.5 -46t127.5 -120q33 -62 33 -245v-629h-184v655q0 240 -226 240q-115 0 -188.5 -71.5t-73.5 -186.5v-637h-192v621q0 138 -53.5 207t-172.5 69q-121 0 -191.5 -71 t-70.5 -205v-621h-190v815q0 62 -8 213z" />
<glyph unicode="n" horiz-adv-x="1204" d="M158 1028h192l6 -168q34 82 120.5 131t201.5 49q102 0 187 -37t132 -102q32 -43 41 -100.5t9 -161.5v-639h-189v649q0 128 -54.5 190t-174.5 62t-196.5 -65t-76.5 -168v-668h-190v817q0 112 -8 211z" />
<glyph unicode="o" horiz-adv-x="1232" d="M106 494q0 258 137 407.5t375 149.5q239 0 372.5 -139t133.5 -390q0 -260 -137.5 -403.5t-386.5 -143.5q-230 0 -362 139.5t-132 379.5zM301 504q0 -184 81.5 -284.5t231.5 -100.5q147 0 232.5 105t85.5 296q0 189 -82.5 292t-231.5 103q-146 0 -231.5 -110.5 t-85.5 -300.5z" />
<glyph unicode="p" horiz-adv-x="1232" d="M145 1028h193l8 -154q115 179 332 179q213 0 332.5 -141t119.5 -394q0 -260 -116 -397t-332 -137q-213 0 -336 174v-547h-188v1214q0 91 -13 203zM346 535q0 -202 82.5 -314t210.5 -112q132 0 214.5 105t82.5 290q0 202 -82 313t-211 111q-132 0 -214.5 -104.5 t-82.5 -288.5z" />
<glyph unicode="q" horiz-adv-x="1232" d="M100 518q0 253 121 394t334 141q215 0 330 -179l8 154h192q-10 -86 -10 -203v-1214h-190v547q-123 -174 -334 -174q-217 0 -334 137t-117 397zM297 504q0 -185 82.5 -290t214.5 -105q128 0 209.5 112t81.5 314q0 184 -82.5 288.5t-214.5 104.5q-129 0 -210 -110.5 t-81 -313.5z" />
<glyph unicode="r" horiz-adv-x="757" d="M150 1028h190l4 -197q56 197 289 197q41 0 78 -6v-178q-61 12 -103 12q-126 0 -195 -71.5t-69 -206.5v-578h-188v866q0 90 -6 162z" />
<glyph unicode="s" horiz-adv-x="1005" d="M84 285v24h190v-4q0 -85 59.5 -135.5t158.5 -50.5q97 0 156 45.5t59 116.5q0 106 -123 135l-219 51q-273 65 -273 268q0 138 113 227t303 89q174 0 273.5 -73t99.5 -198q0 -20 -2 -30h-189v8q0 75 -52.5 117.5t-143.5 42.5q-90 0 -147.5 -43.5t-57.5 -106.5 q0 -50 35 -80.5t116 -52.5l234 -64q120 -32 178.5 -100t58.5 -176q0 -144 -110 -232t-301 -88q-214 0 -315 74.5t-101 235.5z" />
<glyph unicode="t" horiz-adv-x="649" d="M20 893v135h175v211l188 64v-275h229v-135h-229v-631q0 -78 25.5 -104.5t105.5 -26.5q40 0 94 14v-143q-95 -25 -149 -25q-141 0 -202.5 48.5t-61.5 169.5v698h-175z" />
<glyph unicode="u" horiz-adv-x="1204" d="M158 383v645h188v-657q0 -128 54.5 -190t174.5 -62t196.5 66t76.5 169v674h190v-825q0 -109 9 -203h-193l-6 162q-34 -82 -121.5 -132t-202.5 -50q-102 0 -185.5 38t-131.5 103q-32 43 -40.5 99.5t-8.5 162.5z" />
<glyph unicode="v" horiz-adv-x="1112" d="M33 1028h192l328 -815l332 815h188l-434 -1028h-186z" />
<glyph unicode="w" horiz-adv-x="1658" d="M23 1028h186l256 -825l258 825h231l234 -825l262 825h184l-356 -1028h-199l-248 864l-270 -864h-201z" />
<glyph unicode="x" horiz-adv-x="1118" d="M27 0l395 541l-369 487h242l270 -385l283 385h219l-391 -496l393 -532h-244l-293 414l-288 -414h-217z" />
<glyph unicode="y" horiz-adv-x="1112" d="M33 1028h192l328 -815l332 815h188l-602 -1417h-176l158 389z" />
<glyph unicode="z" horiz-adv-x="899" d="M66 0v190l548 697h-514v141h723v-166l-563 -717h561v-145h-755z" />
<glyph unicode="{" horiz-adv-x="1024" d="M168 457v149q8 0 23 -1t22 -1q131 0 184.5 60.5t53.5 207.5v246q0 132 18.5 200.5t81.5 106.5q86 52 278 52h37v-150h-41q-125 0 -163.5 -46.5t-38.5 -182.5v-242q0 -150 -41 -222.5t-160 -103.5q121 -31 161 -102.5t40 -222.5v-242q0 -70 7.5 -110t29.5 -69t61.5 -39.5 t105.5 -10.5h39v-148h-43q-98 0 -162 10t-110 39q-63 38 -81.5 107t-18.5 201v245q0 147 -54 209t-186 62q-7 0 -21.5 -1t-21.5 -1z" />
<glyph unicode="|" horiz-adv-x="1024" d="M438 -483v2048h150v-2048h-150z" />
<glyph unicode="}" horiz-adv-x="1024" d="M160 -266h39q126 0 165 47.5t39 183.5v240q0 150 40.5 222t160.5 103q-119 31 -160 103.5t-41 222.5v242q0 135 -39 182t-165 47h-39v150h37q194 0 278 -52q63 -38 81.5 -106.5t18.5 -200.5v-246q0 -147 53.5 -207.5t184.5 -60.5q7 0 22 1t23 1v-149q-7 0 -22 1t-21 1 q-134 0 -187 -61.5t-53 -209.5v-245q0 -132 -18.5 -201t-81.5 -107q-46 -29 -110 -39t-162 -10h-43v148z" />
<glyph unicode="~" horiz-adv-x="1705" d="M178 451v155q212 144 387 144q118 0 291 -62q11 -4 41.5 -15t43 -15t39 -12.5t42.5 -12.5t38.5 -8.5t42.5 -6.5t40 -2q92 0 184.5 38t202.5 116v-156q-203 -141 -389 -141q-22 0 -43 2t-44.5 6.5t-39 8t-43 12.5t-38 12.5t-42.5 14.5t-39 14q-66 23 -99 33t-87.5 21 t-102.5 11q-88 0 -180 -38.5t-205 -118.5z" />
<glyph unicode="&#xa1;" horiz-adv-x="757" d="M270 0l33 1130h150l36 -1130h-219zM276 1268v207h205v-207h-205z" />
<glyph unicode="&#xa2;" d="M137 522q0 261 123 412t328 151q27 0 121 -12l71 252l103 -29l-76 -256q92 -46 135 -119t45 -184h-184q-3 87 -43 133l-205 -716q5 0 20 -1t25 -1q91 0 150.5 62t60.5 163h184q-7 -174 -117.5 -275.5t-275.5 -101.5q-28 0 -86 10l-78 -276l-102 30l78 269 q-134 50 -205.5 175t-71.5 314zM334 569q0 -143 29 -234.5t96 -144.5l209 746q-41 14 -80 14q-113 0 -183.5 -100.5t-70.5 -280.5z" />
<glyph unicode="&#xa3;" d="M70 0v156h145v534h-145v139h145v175q0 227 106.5 336.5t333.5 109.5q214 0 326 -83.5t115 -246.5h-201q-4 95 -63.5 145t-165.5 50q-111 0 -179.5 -64t-68.5 -172v-250h280v-139h-280v-534h639v-156h-987z" />
<glyph unicode="&#xa4;" d="M-23 811l52 117h118q20 278 149.5 423.5t350.5 145.5q193 0 301.5 -109t114.5 -309h-199q-9 121 -70.5 188.5t-156.5 67.5q-119 0 -196.5 -105.5t-92.5 -301.5h443l-52 -117h-399q-2 -49 -2 -88q0 -24 2 -55h334l-53 -121h-273q15 -200 89.5 -305t199.5 -105q95 0 156 69 t65 189h209q-1 -192 -119 -306t-315 -114q-207 0 -334 148.5t-152 423.5h-141l53 121h82q-2 49 -2 88q0 24 2 55h-164z" />
<glyph unicode="&#xa5;" horiz-adv-x="1239" d="M-33 1427h226l438 -712l424 712h211l-279 -440h227v-96h-290l-129 -205h419v-96h-483l-14 -27v-563h-191v563l-16 27h-485v96h421l-131 205h-290v96h229z" />
<glyph unicode="&#xa6;" horiz-adv-x="1024" d="M438 -350v758h150v-758h-150zM438 674v758h150v-758h-150z" />
<glyph unicode="&#xa7;" horiz-adv-x="1081" d="M186 707q0 92 57.5 162.5t166.5 113.5q-94 31 -143.5 91t-49.5 143q0 127 96.5 203.5t272.5 76.5q94 0 239 -37v-155q-133 55 -237 55q-79 0 -123.5 -36t-44.5 -101q0 -23 4.5 -41t17 -32.5t24 -23.5t37.5 -19.5t44 -17t55 -17.5q19 -6 29 -9q133 -41 191.5 -98 t58.5 -158q0 -84 -55 -155.5t-154 -110.5q109 -26 166 -92.5t57 -167.5q0 -141 -110.5 -223.5t-305.5 -82.5q-118 0 -258 43v175q152 -68 258 -68q100 0 156.5 42.5t56.5 117.5q0 15 -3 28.5t-5.5 24t-12 20.5t-14 16t-20 14t-22 12t-27.5 11.5t-29.5 10t-35 11t-36.5 11.5 q-54 17 -85.5 28.5t-71.5 29t-62 35t-43 42.5t-30 56.5t-9 71.5zM358 760q0 -57 60.5 -108.5t118.5 -51.5q50 0 114 60.5t64 119.5t-67.5 107.5t-127.5 48.5q-43 0 -102.5 -59.5t-59.5 -116.5z" />
<glyph unicode="&#xa8;" horiz-adv-x="1024" d="M256 1223v209h182v-209h-182zM586 1223v209h182v-209h-182z" />
<glyph unicode="&#xa9;" horiz-adv-x="1705" d="M117 727q0 147 56 281.5t163 242.5q103 103 235.5 158t280.5 55q309 0 524 -215q103 -103 159 -238t56 -284q0 -150 -55 -282t-158 -234q-109 -106 -245 -163.5t-281 -57.5q-146 0 -279 56.5t-239 162.5t-161.5 239t-55.5 279zM213 727q0 -126 49 -242.5t141 -208.5 q188 -188 451 -188q126 0 242.5 49t212.5 142q184 181 184 448q0 130 -47.5 247t-136.5 206q-188 188 -455 188q-264 0 -448 -184q-93 -93 -143 -211.5t-50 -245.5zM463 733q0 201 109.5 323t285.5 122q142 0 236.5 -75.5t105.5 -195.5h-147q-12 77 -65.5 118.5t-139.5 41.5 q-103 0 -164 -89t-61 -251q0 -158 62.5 -245t172.5 -87q82 0 137 46.5t68 129.5h145q-9 -131 -107 -211.5t-249 -80.5q-181 0 -285 119.5t-104 334.5z" />
<glyph unicode="&#xaa;" horiz-adv-x="815" d="M53 952q0 115 100 186.5t275 71.5h123v78q0 111 -141 111q-69 0 -108.5 -33t-41.5 -92h-158v8q0 103 76.5 160t220.5 57q164 0 239 -55.5t75 -175.5v-400q0 -69 10 -120h-148q-7 23 -14 88q-72 -107 -242 -107q-122 0 -194 62t-72 161zM102 489v113h570v-113h-570z M217 967q0 -53 39.5 -84t108.5 -31q88 0 137 49t49 139v64h-111q-108 0 -165.5 -36.5t-57.5 -100.5z" />
<glyph unicode="&#xab;" horiz-adv-x="1001" d="M115 522l213 393h164l-183 -393l193 -409h-162zM500 522l213 393h164l-183 -393l195 -409h-162z" />
<glyph unicode="&#xac;" horiz-adv-x="1705" d="M254 721v139h1198v-502h-137v363h-1061z" />
<glyph unicode="&#xad;" horiz-adv-x="677" d="M96 428v172h486v-172h-486z" />
<glyph unicode="&#xae;" horiz-adv-x="1705" d="M117 727q0 146 58 282.5t165 245.5q206 209 512 209q151 0 285.5 -56t240.5 -163q102 -104 157.5 -237.5t55.5 -280.5q0 -309 -215 -518q-109 -106 -244 -162.5t-280 -56.5q-147 0 -280.5 57t-239.5 164q-105 106 -160 238t-55 278zM213 727q0 -257 188 -448 q90 -92 206.5 -141.5t240.5 -49.5q265 0 459 188q90 87 138 202t48 243q0 275 -182 457q-187 190 -457 190q-267 0 -446 -182q-94 -95 -144.5 -214t-50.5 -245zM557 324v835h315q349 0 349 -229q0 -89 -50 -147.5t-141 -77.5l187 -381h-177l-170 356h-155v-356h-158z M715 780h133q110 0 160.5 30.5t50.5 102.5q0 76 -52 110t-163 34h-129v-277z" />
<glyph unicode="&#xaf;" horiz-adv-x="1024" d="M242 1257v140h540v-140h-540z" />
<glyph unicode="&#xb0;" horiz-adv-x="673" d="M49 1167q0 121 85 205t204 84t203 -84.5t84 -204.5q0 -118 -83.5 -202t-205.5 -84q-121 0 -204 83t-83 203zM143 1169q0 -82 56.5 -139t138.5 -57t137 57.5t55 138.5q0 80 -55.5 136.5t-136.5 56.5q-80 0 -137.5 -56t-57.5 -137z" />
<glyph unicode="&#xb1;" horiz-adv-x="1705" d="M254 29v141h1198v-141h-1198zM254 713v139h528v340h142v-340h528v-139h-528v-340h-142v340h-528z" />
<glyph unicode="&#xb2;" horiz-adv-x="747" d="M80 571v123q243 200 351 317t108 197q0 60 -43 97.5t-111 37.5q-70 0 -108.5 -38t-38.5 -109h-144q4 118 78.5 182t202.5 64q133 0 214 -63.5t81 -172.5q0 -88 -50.5 -158.5t-164.5 -173.5l-222 -202h435v-101h-588z" />
<glyph unicode="&#xb3;" horiz-adv-x="747" d="M55 799h142q6 -72 47 -106t121 -34q90 0 140 41t50 107q0 76 -59.5 119t-171.5 43q-6 0 -17 -1t-16 -1v94q127 3 187.5 39t60.5 110q0 60 -43.5 95.5t-116.5 35.5q-77 0 -123 -34.5t-47 -92.5h-135q2 104 81.5 166t217.5 62q140 0 220.5 -64.5t80.5 -169.5 q0 -136 -170 -192q88 -17 137 -73t49 -136q0 -110 -89.5 -180t-244.5 -70q-144 0 -221.5 63t-79.5 179z" />
<glyph unicode="&#xb4;" horiz-adv-x="1024" d="M369 1163l204 348h201l-285 -348h-120z" />
<glyph unicode="&#xb5;" horiz-adv-x="1150" d="M-113 -428l318 1499h180l-129 -600q-14 -63 -14 -133q0 -99 52 -153t148 -54q135 0 211 96t121 308l115 536h178l-156 -731q-22 -108 -22 -133q0 -37 17 -52.5t55 -15.5q20 0 32 2l-30 -143q-49 -10 -109 -10q-64 0 -97 29.5t-52 99.5q-88 -131 -271 -131 q-82 0 -143 27.5t-113 88.5l-110 -530h-181z" />
<glyph unicode="&#xb6;" horiz-adv-x="1024" d="M66 1130q0 156 106.5 252.5t286.5 96.5h499v-86h-120v-1393h-111v1393h-178v-1393h-111v782q-172 7 -272 102t-100 246z" />
<glyph unicode="&#xb7;" horiz-adv-x="567" d="M143 715q0 58 40.5 98.5t99.5 40.5q58 0 99.5 -41t41.5 -98q0 -58 -42 -100t-99 -42q-59 0 -99.5 41t-40.5 101z" />
<glyph unicode="&#xb8;" horiz-adv-x="1024" d="M256 -326q157 -39 246 -39q121 0 121 82q0 86 -127 86q-33 0 -60 -2v199h76v-102h29q110 0 166.5 -46.5t56.5 -134.5q0 -90 -63.5 -139t-186.5 -49q-100 0 -258 45v100z" />
<glyph unicode="&#xb9;" horiz-adv-x="747" d="M170 1171v127q139 61 207 129h131v-856h-131v717q-98 -75 -207 -117z" />
<glyph unicode="&#xba;" horiz-adv-x="923" d="M70 1100q0 182 106.5 289.5t288.5 107.5q183 0 286 -100t103 -277q0 -183 -105 -287t-288 -104q-185 0 -288 98.5t-103 272.5zM129 489v113h668v-113h-668zM236 1108q0 -126 58.5 -195t166.5 -69q105 0 166 72t61 200q0 131 -58.5 200.5t-166.5 69.5q-105 0 -166 -74 t-61 -204z" />
<glyph unicode="&#xbb;" horiz-adv-x="1001" d="M113 113l194 409l-182 393h164l213 -393l-228 -409h-161zM500 113l192 409l-182 393h164l213 -393l-228 -409h-159z" />
<glyph unicode="&#xbc;" horiz-adv-x="1769" d="M162 1188v119q129 57 198 120h123v-798h-123v667q-87 -63 -198 -108zM373 -25l899 1475h125l-899 -1475h-125zM1090 172v139l383 488h143v-533h123v-94h-123v-172h-119v172h-407zM1188 266h309v418z" />
<glyph unicode="&#xbd;" horiz-adv-x="1769" d="M162 1188v119q129 57 198 120h123v-798h-123v667q-87 -63 -198 -108zM373 -25l899 1475h125l-899 -1475h-125zM1133 0v115q230 184 334 294.5t104 184.5q0 57 -40.5 92t-105.5 35q-68 0 -104.5 -35.5t-36.5 -101.5h-137q4 110 74.5 169.5t193.5 59.5q127 0 204 -59 t77 -160q0 -45 -13.5 -84t-44.5 -78.5t-61.5 -69.5t-85.5 -79l-211 -189h414v-94h-561z" />
<glyph unicode="&#xbe;" horiz-adv-x="1769" d="M53 842h135q6 -67 44.5 -99t113.5 -32q87 0 135.5 38t48.5 101q0 70 -57 109.5t-164 39.5q-5 0 -16.5 -1t-16.5 -1v88q122 3 180 37t58 103q0 57 -41.5 90t-112.5 33q-72 0 -115.5 -32.5t-45.5 -86.5h-129q2 97 77.5 154t208.5 57t210 -59t77 -156q0 -130 -164 -183 q85 -15 131.5 -66.5t46.5 -127.5q0 -103 -84.5 -168.5t-232.5 -65.5q-137 0 -212 60t-75 168zM371 -25l899 1475h125l-899 -1475h-125zM1087 172v139l383 488h144v-533h123v-94h-123v-172h-119v172h-408zM1186 266h309v418z" />
<glyph unicode="&#xbf;" horiz-adv-x="1005" d="M115 344q0 65 18.5 121t59.5 110t81.5 96.5t107.5 105.5q7 6 10 9t8.5 8t9.5 9q10 9 25 23t20 19t14 14.5t11 15t6 14t4.5 19t1 22.5t0.5 31v174h170v-199q0 -74 -10 -99t-48 -63q-144 -148 -183 -195q-89 -115 -91 -208q0 -99 73 -161.5t199 -62.5q129 0 272 62v-189 q-139 -45 -280 -45q-218 0 -348.5 103t-130.5 266zM467 1262v213h213v-213h-213z" />
<glyph unicode="&#xc0;" horiz-adv-x="1460" d="M14 0l627 1475h211l592 -1475h-230l-147 381h-684l-164 -381h-205zM449 549h557l-271 727zM487 1958h201l205 -348h-121z" />
<glyph unicode="&#xc1;" horiz-adv-x="1460" d="M14 0l627 1475h211l592 -1475h-230l-147 381h-684l-164 -381h-205zM449 549h557l-271 727zM606 1610l205 348h201l-285 -348h-121z" />
<glyph unicode="&#xc2;" horiz-adv-x="1460" d="M14 0l627 1475h211l592 -1475h-230l-147 381h-684l-164 -381h-205zM449 549h557l-271 727zM455 1610l196 348h197l196 -348h-122l-172 229l-175 -229h-120z" />
<glyph unicode="&#xc3;" horiz-adv-x="1460" d="M14 0l627 1475h211l592 -1475h-230l-147 381h-684l-164 -381h-205zM449 549h557l-271 727zM457 1657q19 99 68.5 152t123.5 53q33 0 60 -9l98 -28q38 -10 53 -10q67 0 94 73h88q-20 -102 -70.5 -155.5t-125.5 -53.5q-24 0 -66 11l-96 26q-27 8 -49 8q-63 0 -90 -67h-88z " />
<glyph unicode="&#xc4;" horiz-adv-x="1460" d="M14 0l627 1475h211l592 -1475h-230l-147 381h-684l-164 -381h-205zM449 549h557l-271 727zM494 1669v209h182v-209h-182zM823 1669v209h183v-209h-183z" />
<glyph unicode="&#xc5;" horiz-adv-x="1460" d="M14 0l627 1456h211l592 -1456h-230l-147 381h-684l-164 -381h-205zM449 549h557l-271 727zM518 1743q0 95 67.5 162t162.5 67t161 -67t66 -162t-66 -161t-161 -66q-96 0 -163 66t-67 161zM633 1745q0 -49 33.5 -83t81.5 -34q46 0 81 35t35 82q0 45 -36 81t-80 36 q-47 0 -81 -35t-34 -82z" />
<glyph unicode="&#xc6;" horiz-adv-x="2015" d="M-20 0l831 1475h1049v-179h-740l76 -450h635v-176h-604l86 -492h571v-178h-745l-64 399h-661l-219 -399h-215zM514 575h533l-121 748z" />
<glyph unicode="&#xc7;" horiz-adv-x="1355" d="M115 729q0 368 165.5 568t467.5 200q238 0 374.5 -109.5t141.5 -300.5h-209q-9 113 -99 183.5t-227 70.5q-187 0 -295 -157.5t-108 -448.5q0 -283 105 -436.5t298 -153.5q140 0 225 67t95 185h219q-3 -192 -147.5 -307t-391.5 -115q-298 0 -456 193t-158 561zM477 -326 q157 -39 246 -39q121 0 121 82q0 86 -127 86q-33 0 -60 -2v199h76v-102h29q110 0 166.5 -46.5t56.5 -134.5q0 -90 -63.5 -139t-186.5 -49q-100 0 -258 45v100z" />
<glyph unicode="&#xc8;" horiz-adv-x="1236" d="M170 0v1475h915v-175h-718v-448h688v-174h-688v-502h735v-176h-932zM369 1958h200l205 -348h-121z" />
<glyph unicode="&#xc9;" horiz-adv-x="1236" d="M170 0v1475h915v-175h-718v-448h688v-174h-688v-502h735v-176h-932zM487 1610l205 348h201l-285 -348h-121z" />
<glyph unicode="&#xca;" horiz-adv-x="1236" d="M170 0v1475h915v-175h-718v-448h688v-174h-688v-502h735v-176h-932zM336 1610l196 348h197l197 -348h-123l-172 229l-174 -229h-121z" />
<glyph unicode="&#xcb;" horiz-adv-x="1236" d="M170 0v1475h915v-175h-718v-448h688v-174h-688v-502h735v-176h-932zM375 1669v209h182v-209h-182zM705 1669v209h182v-209h-182z" />
<glyph unicode="&#xcc;" horiz-adv-x="538" d="M8 1958h201l205 -348h-121zM170 0v1475h197v-1475h-197z" />
<glyph unicode="&#xcd;" horiz-adv-x="538" d="M127 1610l205 348h200l-284 -348h-121zM170 0v1475h197v-1475h-197z" />
<glyph unicode="&#xce;" horiz-adv-x="538" d="M-25 1610l197 348h197l196 -348h-123l-172 229l-174 -229h-121zM170 0v1475h197v-1475h-197z" />
<glyph unicode="&#xcf;" horiz-adv-x="538" d="M14 1669v209h183v-209h-183zM170 0v1475h197v-1475h-197zM344 1669v209h182v-209h-182z" />
<glyph unicode="&#xd0;" horiz-adv-x="1480" d="M0 680v156h186v643h412q184 0 302 -25t220 -104q123 -96 190.5 -258.5t67.5 -372.5q0 -172 -48 -313t-134 -232q-98 -103 -223 -138.5t-322 -35.5h-465v680h-186zM381 176h315q473 0 473 541q0 287 -131.5 441.5t-375.5 154.5h-281v-477h344v-156h-344v-504z" />
<glyph unicode="&#xd1;" horiz-adv-x="1503" d="M172 0v1475h281l698 -1203v1203h178v-1475h-242l-733 1251v-1251h-182zM481 1657q19 99 69 152t124 53q32 0 59 -9l98 -28q38 -10 54 -10q67 0 94 73h88q-20 -102 -71 -155.5t-126 -53.5q-23 0 -65 11l-96 26q-27 8 -50 8q-63 0 -90 -67h-88z" />
<glyph unicode="&#xd2;" horiz-adv-x="1579" d="M117 733q0 368 176.5 566t497.5 198q322 0 496.5 -197t174.5 -567q0 -364 -175.5 -561t-495.5 -197q-318 0 -496 198t-178 560zM328 743q0 -288 119.5 -443t340.5 -155q223 0 342 152.5t119 441.5q0 290 -120 443t-341 153t-340.5 -152.5t-119.5 -439.5zM528 1958h201 l205 -348h-121z" />
<glyph unicode="&#xd3;" horiz-adv-x="1579" d="M117 733q0 368 176.5 566t497.5 198q322 0 496.5 -197t174.5 -567q0 -364 -175.5 -561t-495.5 -197q-318 0 -496 198t-178 560zM328 743q0 -288 119.5 -443t340.5 -155q223 0 342 152.5t119 441.5q0 290 -120 443t-341 153t-340.5 -152.5t-119.5 -439.5zM647 1610 l205 348h201l-285 -348h-121z" />
<glyph unicode="&#xd4;" horiz-adv-x="1579" d="M117 733q0 368 176.5 566t497.5 198q322 0 496.5 -197t174.5 -567q0 -364 -175.5 -561t-495.5 -197q-318 0 -496 198t-178 560zM328 743q0 -288 119.5 -443t340.5 -155q223 0 342 152.5t119 441.5q0 290 -120 443t-341 153t-340.5 -152.5t-119.5 -439.5zM496 1610 l196 348h197l196 -348h-122l-172 229l-175 -229h-120z" />
<glyph unicode="&#xd5;" horiz-adv-x="1579" d="M117 733q0 368 176.5 566t497.5 198q322 0 496.5 -197t174.5 -567q0 -364 -175.5 -561t-495.5 -197q-318 0 -496 198t-178 560zM328 743q0 -288 119.5 -443t340.5 -155q223 0 342 152.5t119 441.5q0 290 -120 443t-341 153t-340.5 -152.5t-119.5 -439.5zM498 1657 q19 99 68.5 152t123.5 53q33 0 60 -9l98 -28q38 -10 53 -10q67 0 94 73h88q-20 -102 -70.5 -155.5t-125.5 -53.5q-24 0 -66 11l-96 26q-27 8 -49 8q-63 0 -90 -67h-88z" />
<glyph unicode="&#xd6;" horiz-adv-x="1579" d="M117 733q0 368 176.5 566t497.5 198q322 0 496.5 -197t174.5 -567q0 -364 -175.5 -561t-495.5 -197q-318 0 -496 198t-178 560zM328 743q0 -288 119.5 -443t340.5 -155q223 0 342 152.5t119 441.5q0 290 -120 443t-341 153t-340.5 -152.5t-119.5 -439.5zM535 1669v209 h182v-209h-182zM864 1669v209h183v-209h-183z" />
<glyph unicode="&#xd7;" horiz-adv-x="1705" d="M293 141l469 469l-469 469l98 99l469 -469l469 469l98 -99l-469 -469l469 -469l-98 -96l-469 467l-469 -467z" />
<glyph unicode="&#xd8;" horiz-adv-x="1579" d="M117 733q0 368 176.5 566t497.5 198q213 0 358 -86l139 217l92 -57l-145 -223q227 -187 227 -615q0 -364 -175.5 -561t-495.5 -197q-212 0 -375 99l-166 -256l-88 57l168 260q-213 201 -213 598zM332 743q0 -269 108 -432l613 949q-121 75 -260 75q-221 0 -341 -152.5 t-120 -439.5zM518 231q115 -86 275 -86q226 0 344 154t118 453q0 315 -122 434z" />
<glyph unicode="&#xd9;" horiz-adv-x="1490" d="M152 567v908h202v-871q0 -230 92.5 -340t294.5 -110q219 0 312.5 116t93.5 365v840h190v-963q0 -252 -162 -393.5t-452 -141.5q-282 0 -426.5 148t-144.5 442zM483 1958h201l205 -348h-121z" />
<glyph unicode="&#xda;" horiz-adv-x="1490" d="M152 567v908h202v-871q0 -230 92.5 -340t294.5 -110q219 0 312.5 116t93.5 365v840h190v-963q0 -252 -162 -393.5t-452 -141.5q-282 0 -426.5 148t-144.5 442zM602 1610l205 348h201l-285 -348h-121z" />
<glyph unicode="&#xdb;" horiz-adv-x="1490" d="M152 567v908h202v-871q0 -230 92.5 -340t294.5 -110q219 0 312.5 116t93.5 365v840h190v-963q0 -252 -162 -393.5t-452 -141.5q-282 0 -426.5 148t-144.5 442zM451 1610l196 348h197l196 -348h-122l-173 229l-174 -229h-120z" />
<glyph unicode="&#xdc;" horiz-adv-x="1490" d="M152 567v908h202v-871q0 -230 92.5 -340t294.5 -110q219 0 312.5 116t93.5 365v840h190v-963q0 -252 -162 -393.5t-452 -141.5q-282 0 -426.5 148t-144.5 442zM489 1669v209h183v-209h-183zM819 1669v209h182v-209h-182z" />
<glyph unicode="&#xdd;" horiz-adv-x="1345" d="M18 1475h244l426 -719l414 719h225l-551 -893v-582h-196v582zM530 1610l205 348h201l-285 -348h-121z" />
<glyph unicode="&#xde;" horiz-adv-x="1234" d="M170 0v1475h197v-299h317q481 0 481 -406q0 -221 -142 -321.5t-435 -100.5h-221v-348h-197zM367 530h284q160 0 232.5 54t72.5 182q0 132 -71.5 186t-233.5 54h-284v-476z" />
<glyph unicode="&#xdf;" horiz-adv-x="1318" d="M156 0v1063q0 226 107.5 331t350.5 105q203 0 319 -82t116 -221q0 -119 -101 -195q-18 -14 -48.5 -36.5t-44 -33.5t-30 -28t-22.5 -34t-6 -38q0 -26 9.5 -47t30.5 -38t41.5 -29.5t56 -33t60.5 -36.5q110 -72 160.5 -149t50.5 -179q0 -147 -110.5 -242t-292.5 -95 q-154 0 -237 79t-89 232h191q3 -83 44.5 -126.5t116.5 -43.5q91 0 144 51.5t53 134.5q0 64 -44 115.5t-134 103.5q-51 30 -80.5 48.5t-64.5 46t-53.5 52.5t-31 58.5t-12.5 71.5q0 63 29.5 106t97.5 95q68 51 98.5 91t30.5 93q0 77 -67 128.5t-177 51.5q-141 0 -206.5 -74.5 t-65.5 -228.5v-1067h-190z" />
<glyph unicode="&#xe0;" horiz-adv-x="1087" d="M84 285q0 161 128.5 257.5t356.5 96.5h179v125q0 168 -203 168q-95 0 -150.5 -46.5t-58.5 -129.5h-182v16q0 136 97 208.5t281 72.5q216 0 311 -77.5t95 -242.5v-635q0 -32 10 -98h-170q-10 32 -20 162q-38 -91 -122.5 -139t-207.5 -48q-158 0 -251 86t-93 224zM279 303 q0 -74 54.5 -124t139.5 -50q133 0 204 71.5t71 207.5v102h-160q-151 0 -230 -56t-79 -151zM283 1511h200l205 -348h-121z" />
<glyph unicode="&#xe1;" horiz-adv-x="1087" d="M84 285q0 161 128.5 257.5t356.5 96.5h179v125q0 168 -203 168q-95 0 -150.5 -46.5t-58.5 -129.5h-182v16q0 136 97 208.5t281 72.5q216 0 311 -77.5t95 -242.5v-635q0 -32 10 -98h-170q-10 32 -20 162q-38 -91 -122.5 -139t-207.5 -48q-158 0 -251 86t-93 224zM279 303 q0 -74 54.5 -124t139.5 -50q133 0 204 71.5t71 207.5v102h-160q-151 0 -230 -56t-79 -151zM401 1163l205 348h201l-285 -348h-121z" />
<glyph unicode="&#xe2;" horiz-adv-x="1087" d="M84 285q0 161 128.5 257.5t356.5 96.5h179v125q0 168 -203 168q-95 0 -150.5 -46.5t-58.5 -129.5h-182v16q0 136 97 208.5t281 72.5q216 0 311 -77.5t95 -242.5v-635q0 -32 10 -98h-170q-10 32 -20 162q-38 -91 -122.5 -139t-207.5 -48q-158 0 -251 86t-93 224zM250 1163 l196 348h197l197 -348h-123l-172 230l-174 -230h-121zM279 303q0 -74 54.5 -124t139.5 -50q133 0 204 71.5t71 207.5v102h-160q-151 0 -230 -56t-79 -151z" />
<glyph unicode="&#xe3;" horiz-adv-x="1087" d="M84 285q0 161 128.5 257.5t356.5 96.5h179v125q0 168 -203 168q-95 0 -150.5 -46.5t-58.5 -129.5h-182v16q0 136 97 208.5t281 72.5q216 0 311 -77.5t95 -242.5v-635q0 -32 10 -98h-170q-10 32 -20 162q-38 -91 -122.5 -139t-207.5 -48q-158 0 -251 86t-93 224zM252 1210 q19 99 68.5 152t123.5 53q36 0 60 -8l98 -29q38 -10 53 -10q68 0 95 74h88q-20 -102 -71 -155.5t-126 -53.5q-28 0 -66 10l-96 27q-27 8 -49 8q-63 0 -90 -68h-88zM279 303q0 -74 54.5 -124t139.5 -50q133 0 204 71.5t71 207.5v102h-160q-151 0 -230 -56t-79 -151z" />
<glyph unicode="&#xe4;" horiz-adv-x="1087" d="M84 285q0 161 128.5 257.5t356.5 96.5h179v125q0 168 -203 168q-95 0 -150.5 -46.5t-58.5 -129.5h-182v16q0 136 97 208.5t281 72.5q216 0 311 -77.5t95 -242.5v-635q0 -32 10 -98h-170q-10 32 -20 162q-38 -91 -122.5 -139t-207.5 -48q-158 0 -251 86t-93 224zM279 303 q0 -74 54.5 -124t139.5 -50q133 0 204 71.5t71 207.5v102h-160q-151 0 -230 -56t-79 -151zM289 1223v209h182v-209h-182zM618 1223v209h183v-209h-183z" />
<glyph unicode="&#xe5;" horiz-adv-x="1087" d="M84 285q0 161 128.5 257.5t356.5 96.5h179v125q0 168 -203 168q-95 0 -150.5 -46.5t-58.5 -129.5h-182v16q0 136 97 208.5t281 72.5q216 0 311 -77.5t95 -242.5v-635q0 -32 10 -98h-170q-10 32 -20 162q-38 -91 -122.5 -139t-207.5 -48q-158 0 -251 86t-93 224zM279 303 q0 -74 54.5 -124t139.5 -50q133 0 204 71.5t71 207.5v102h-160q-151 0 -230 -56t-79 -151zM340 1350q0 96 65 162.5t160 66.5t162.5 -67t67.5 -162t-67.5 -161.5t-162.5 -66.5t-160 66t-65 162zM453 1350q0 -49 33 -82t81 -33q46 0 80.5 34t34.5 81q0 46 -35 81t-80 35 q-47 0 -80.5 -34.5t-33.5 -81.5z" />
<glyph unicode="&#xe6;" horiz-adv-x="1839" d="M90 303q0 164 118.5 238.5t360.5 74.5h236v9q0 152 -59 225.5t-191 73.5q-98 0 -156.5 -44.5t-58.5 -113.5v-4h-193q8 139 110 215t284 76q142 0 231.5 -43t136.5 -136q66 95 151 138t204 43q218 0 341.5 -119t123.5 -328q0 -50 -7 -125h-727q0 -8 -1 -30t-1 -37 q0 -143 77.5 -221t211.5 -78q114 0 179 57t67 156h182q-3 -165 -117.5 -260t-314.5 -95q-131 0 -223.5 48t-159.5 153q-79 -106 -179 -153.5t-239 -47.5q-181 0 -284 88.5t-103 239.5zM281 299q0 -81 61 -131.5t162 -50.5q128 0 211.5 78t87.5 215l2 73h-236 q-147 0 -217.5 -44.5t-70.5 -139.5zM995 616h541v23q0 130 -71.5 207.5t-182.5 77.5q-120 0 -197 -81t-90 -227z" />
<glyph unicode="&#xe7;" horiz-adv-x="1056" d="M98 492q0 265 124 413t347 148q172 0 275.5 -93t103.5 -251v-4h-184q0 93 -60 154t-149 61q-119 0 -189.5 -100.5t-70.5 -282.5q0 -207 65 -312.5t191 -105.5q99 0 159.5 61.5t61.5 165.5h184q-12 -181 -115 -276t-286 -95q-220 0 -338.5 134.5t-118.5 382.5zM291 -326 q157 -39 246 -39q120 0 120 82q0 86 -127 86q-32 0 -59 -2v199h76v-102h28q110 0 167 -46.5t57 -134.5q0 -90 -63.5 -139t-186.5 -49q-100 0 -258 45v100z" />
<glyph unicode="&#xe8;" horiz-adv-x="1128" d="M102 494q0 274 123 416.5t350 142.5q209 0 329 -119.5t120 -325.5q0 -82 -4 -125h-729v-61q0 -147 75.5 -226t211.5 -79q114 0 179.5 57t67.5 156h181q-1 -161 -115.5 -258t-300.5 -97q-239 0 -363.5 132t-124.5 387zM301 616h530v23q0 130 -71 207.5t-182 77.5 q-121 0 -199 -85t-78 -223zM303 1511h201l205 -348h-121z" />
<glyph unicode="&#xe9;" horiz-adv-x="1128" d="M102 494q0 274 123 416.5t350 142.5q209 0 329 -119.5t120 -325.5q0 -82 -4 -125h-729v-61q0 -147 75.5 -226t211.5 -79q114 0 179.5 57t67.5 156h181q-1 -161 -115.5 -258t-300.5 -97q-239 0 -363.5 132t-124.5 387zM301 616h530v23q0 130 -71 207.5t-182 77.5 q-121 0 -199 -85t-78 -223zM422 1163l205 348h200l-284 -348h-121z" />
<glyph unicode="&#xea;" horiz-adv-x="1128" d="M102 494q0 274 123 416.5t350 142.5q209 0 329 -119.5t120 -325.5q0 -82 -4 -125h-729v-61q0 -147 75.5 -226t211.5 -79q114 0 179.5 57t67.5 156h181q-1 -161 -115.5 -258t-300.5 -97q-239 0 -363.5 132t-124.5 387zM270 1163l197 348h197l196 -348h-123l-172 230 l-174 -230h-121zM301 616h530v23q0 130 -71 207.5t-182 77.5q-121 0 -199 -85t-78 -223z" />
<glyph unicode="&#xeb;" horiz-adv-x="1128" d="M102 494q0 274 123 416.5t350 142.5q209 0 329 -119.5t120 -325.5q0 -82 -4 -125h-729v-61q0 -147 75.5 -226t211.5 -79q114 0 179.5 57t67.5 156h181q-1 -161 -115.5 -258t-300.5 -97q-239 0 -363.5 132t-124.5 387zM301 616h530v23q0 130 -71 207.5t-182 77.5 q-121 0 -199 -85t-78 -223zM309 1223v209h183v-209h-183zM639 1223v209h182v-209h-182z" />
<glyph unicode="&#xec;" horiz-adv-x="512" d="M-6 1511h201l204 -348h-120zM162 0v1028h190v-1028h-190z" />
<glyph unicode="&#xed;" horiz-adv-x="512" d="M113 1163l204 348h201l-285 -348h-120zM162 0v1028h190v-1028h-190z" />
<glyph unicode="&#xee;" horiz-adv-x="512" d="M-39 1163l197 348h196l197 -348h-123l-172 230l-174 -230h-121zM162 0v1028h190v-1028h-190z" />
<glyph unicode="&#xef;" horiz-adv-x="512" d="M0 1223v209h182v-209h-182zM162 0v1028h190v-1028h-190zM330 1223v209h182v-209h-182z" />
<glyph unicode="&#xf0;" horiz-adv-x="1232" d="M106 440q0 227 135.5 365.5t352.5 138.5q136 0 270 -76q-88 153 -235 287l-305 -127l-52 96l258 109q-133 87 -213 129l93 113q136 -62 299 -175l288 121l52 -96l-242 -102q157 -142 240 -327t83 -390q0 -254 -134.5 -392.5t-381.5 -138.5q-242 0 -375 124t-133 341z M301 455q0 -159 80.5 -248.5t224.5 -89.5q154 0 240 91.5t86 258.5q0 165 -82 255.5t-232 90.5q-148 0 -232.5 -96.5t-84.5 -261.5z" />
<glyph unicode="&#xf1;" horiz-adv-x="1204" d="M158 1028h192l6 -168q34 82 120.5 131t201.5 49q102 0 187 -37t132 -102q32 -43 41 -100.5t9 -161.5v-639h-189v649q0 128 -54.5 190t-174.5 62t-196.5 -65t-76.5 -168v-668h-190v817q0 112 -8 211zM309 1210q19 99 69 152t124 53q35 0 59 -8l98 -29q38 -10 54 -10 q67 0 94 74h88q-20 -102 -71 -155.5t-126 -53.5q-27 0 -65 10l-96 27q-27 8 -50 8q-63 0 -90 -68h-88z" />
<glyph unicode="&#xf2;" horiz-adv-x="1232" d="M106 494q0 258 137 407.5t375 149.5q239 0 372.5 -139t133.5 -390q0 -260 -137.5 -403.5t-386.5 -143.5q-230 0 -362 139.5t-132 379.5zM301 504q0 -184 81.5 -284.5t231.5 -100.5q147 0 232.5 105t85.5 296q0 189 -82.5 292t-231.5 103q-146 0 -231.5 -110.5 t-85.5 -300.5zM354 1511h201l205 -348h-121z" />
<glyph unicode="&#xf3;" horiz-adv-x="1232" d="M106 494q0 258 137 407.5t375 149.5q239 0 372.5 -139t133.5 -390q0 -260 -137.5 -403.5t-386.5 -143.5q-230 0 -362 139.5t-132 379.5zM301 504q0 -184 81.5 -284.5t231.5 -100.5q147 0 232.5 105t85.5 296q0 189 -82.5 292t-231.5 103q-146 0 -231.5 -110.5 t-85.5 -300.5zM473 1163l205 348h201l-285 -348h-121z" />
<glyph unicode="&#xf4;" horiz-adv-x="1232" d="M106 494q0 258 137 407.5t375 149.5q239 0 372.5 -139t133.5 -390q0 -260 -137.5 -403.5t-386.5 -143.5q-230 0 -362 139.5t-132 379.5zM301 504q0 -184 81.5 -284.5t231.5 -100.5q147 0 232.5 105t85.5 296q0 189 -82.5 292t-231.5 103q-146 0 -231.5 -110.5 t-85.5 -300.5zM322 1163l196 348h197l196 -348h-123l-172 230l-174 -230h-120z" />
<glyph unicode="&#xf5;" horiz-adv-x="1232" d="M106 494q0 258 137 407.5t375 149.5q239 0 372.5 -139t133.5 -390q0 -260 -137.5 -403.5t-386.5 -143.5q-230 0 -362 139.5t-132 379.5zM301 504q0 -184 81.5 -284.5t231.5 -100.5q147 0 232.5 105t85.5 296q0 189 -82.5 292t-231.5 103q-146 0 -231.5 -110.5 t-85.5 -300.5zM324 1210q19 99 68.5 152t123.5 53q35 0 59 -8l99 -29q38 -10 53 -10q67 0 94 74h88q-20 -102 -70.5 -155.5t-125.5 -53.5q-28 0 -66 10l-96 27q-27 8 -49 8q-63 0 -90 -68h-88z" />
<glyph unicode="&#xf6;" horiz-adv-x="1232" d="M106 494q0 258 137 407.5t375 149.5q239 0 372.5 -139t133.5 -390q0 -260 -137.5 -403.5t-386.5 -143.5q-230 0 -362 139.5t-132 379.5zM301 504q0 -184 81.5 -284.5t231.5 -100.5q147 0 232.5 105t85.5 296q0 189 -82.5 292t-231.5 103q-146 0 -231.5 -110.5 t-85.5 -300.5zM360 1223v209h183v-209h-183zM690 1223v209h182v-209h-182z" />
<glyph unicode="&#xf7;" horiz-adv-x="1705" d="M254 541v139h1198v-139h-1198zM729 242q0 52 37 88.5t88 36.5t88 -36.5t37 -88.5q0 -51 -36.5 -88t-88.5 -37q-54 0 -89.5 36t-35.5 89zM729 979q0 52 37 89.5t88 37.5t88 -37.5t37 -89.5q0 -51 -36.5 -88t-88.5 -37t-88.5 36t-36.5 89z" />
<glyph unicode="&#xf8;" horiz-adv-x="1232" d="M106 494q0 256 137.5 407.5t366.5 151.5q143 0 248 -54l113 195l94 -47l-115 -199q174 -126 174 -428q0 -257 -138 -401t-382 -144q-98 0 -213 31l-129 -217l-98 55l127 207q-185 167 -185 443zM301 508q0 -188 84 -299l397 663q-77 43 -164 43q-146 0 -231.5 -109.5 t-85.5 -297.5zM473 145q59 -26 129 -26q162 0 245 105.5t83 314.5q0 149 -70 256z" />
<glyph unicode="&#xf9;" horiz-adv-x="1204" d="M158 383v645h188v-657q0 -128 54.5 -190t174.5 -62t196.5 66t76.5 169v674h190v-825q0 -109 9 -203h-193l-6 162q-34 -82 -121.5 -132t-202.5 -50q-102 0 -185.5 38t-131.5 103q-32 43 -40.5 99.5t-8.5 162.5zM332 1511h200l205 -348h-121z" />
<glyph unicode="&#xfa;" horiz-adv-x="1204" d="M158 383v645h188v-657q0 -128 54.5 -190t174.5 -62t196.5 66t76.5 169v674h190v-825q0 -109 9 -203h-193l-6 162q-34 -82 -121.5 -132t-202.5 -50q-102 0 -185.5 38t-131.5 103q-32 43 -40.5 99.5t-8.5 162.5zM451 1163l204 348h201l-285 -348h-120z" />
<glyph unicode="&#xfb;" horiz-adv-x="1204" d="M158 383v645h188v-657q0 -128 54.5 -190t174.5 -62t196.5 66t76.5 169v674h190v-825q0 -109 9 -203h-193l-6 162q-34 -82 -121.5 -132t-202.5 -50q-102 0 -185.5 38t-131.5 103q-32 43 -40.5 99.5t-8.5 162.5zM299 1163l197 348h196l197 -348h-123l-172 230l-174 -230 h-121z" />
<glyph unicode="&#xfc;" horiz-adv-x="1204" d="M158 383v645h188v-657q0 -128 54.5 -190t174.5 -62t196.5 66t76.5 169v674h190v-825q0 -109 9 -203h-193l-6 162q-34 -82 -121.5 -132t-202.5 -50q-102 0 -185.5 38t-131.5 103q-32 43 -40.5 99.5t-8.5 162.5zM338 1223v209h182v-209h-182zM668 1223v209h182v-209h-182z " />
<glyph unicode="&#xfd;" horiz-adv-x="1112" d="M33 1028h192l328 -815l332 815h188l-602 -1417h-176l158 389zM414 1163l204 348h201l-284 -348h-121z" />
<glyph unicode="&#xfe;" horiz-adv-x="1232" d="M158 -389v1864h188v-601q117 179 332 179q213 0 332.5 -141t119.5 -394q0 -260 -116 -397t-332 -137q-213 0 -336 174v-547h-188zM346 535q0 -203 82 -314.5t211 -111.5q132 0 214.5 105t82.5 290q0 202 -82 313t-211 111q-132 0 -214.5 -104.5t-82.5 -288.5z" />
<glyph unicode="&#xff;" horiz-adv-x="1112" d="M33 1028h192l328 -815l332 815h188l-602 -1417h-176l158 389zM301 1223v209h182v-209h-182zM631 1223v209h182v-209h-182z" />
<glyph unicode="&#x152;" horiz-adv-x="2037" d="M115 745q0 368 180.5 556t535.5 188q51 0 155.5 -6t156.5 -6h792v-174h-692v-453h653v-176h-653v-500h692v-174h-768q-53 0 -170 -6t-182 -6q-352 0 -526 187.5t-174 569.5zM317 741q0 -284 131 -431.5t383 -147.5q75 0 207 12v1126q-147 15 -200 15q-521 0 -521 -574z " />
<glyph unicode="&#x153;" horiz-adv-x="1918" d="M102 494q0 262 131.5 410.5t368.5 148.5q129 0 225 -43t174 -136q72 92 162 135.5t207 43.5q209 0 330 -119.5t121 -325.5q0 -82 -4 -125h-730v-84q0 -131 78.5 -207.5t208.5 -76.5q113 0 179.5 58t68.5 157h180q-1 -161 -115.5 -258t-300.5 -97q-136 0 -231.5 41 t-163.5 131q-83 -90 -180 -131t-227 -41q-228 0 -355 138t-127 381zM295 504q0 -185 80 -287t227 -102q142 0 225.5 106t83.5 297t-82 298.5t-225 107.5q-141 0 -225 -114.5t-84 -305.5zM1094 618h532v23q0 129 -71.5 206t-182.5 77q-122 0 -200 -84t-78 -222z" />
<glyph unicode="&#x178;" horiz-adv-x="1345" d="M18 1475h244l426 -719l414 719h225l-551 -893v-582h-196v582zM418 1669v209h182v-209h-182zM748 1669v209h182v-209h-182z" />
<glyph unicode="&#x2c6;" horiz-adv-x="1024" d="M217 1163l197 348h196l197 -348h-123l-172 230l-174 -230h-121z" />
<glyph unicode="&#x2dc;" horiz-adv-x="1024" d="M219 1210q19 99 69 152t124 53q35 0 59 -8l98 -29q38 -10 54 -10q67 0 94 74h88q-20 -102 -71 -155.5t-126 -53.5q-27 0 -65 10l-97 27q-27 8 -49 8q-63 0 -90 -68h-88z" />
<glyph unicode="&#x2000;" horiz-adv-x="986" />
<glyph unicode="&#x2001;" horiz-adv-x="1972" />
<glyph unicode="&#x2002;" horiz-adv-x="986" />
<glyph unicode="&#x2003;" horiz-adv-x="1972" />
<glyph unicode="&#x2004;" horiz-adv-x="657" />
<glyph unicode="&#x2005;" horiz-adv-x="493" />
<glyph unicode="&#x2006;" horiz-adv-x="328" />
<glyph unicode="&#x2007;" horiz-adv-x="328" />
<glyph unicode="&#x2008;" horiz-adv-x="246" />
<glyph unicode="&#x2009;" horiz-adv-x="394" />
<glyph unicode="&#x200a;" horiz-adv-x="109" />
<glyph unicode="&#x2010;" horiz-adv-x="677" d="M96 428v172h486v-172h-486z" />
<glyph unicode="&#x2011;" horiz-adv-x="677" d="M96 428v172h486v-172h-486z" />
<glyph unicode="&#x2012;" horiz-adv-x="677" d="M96 428v172h486v-172h-486z" />
<glyph unicode="&#x2013;" horiz-adv-x="1024" d="M0 451v127h1024v-127h-1024z" />
<glyph unicode="&#x2014;" horiz-adv-x="2048" d="M0 451v127h2048v-127h-2048z" />
<glyph unicode="&#x2018;" horiz-adv-x="522" d="M76 971l229 504h141l-137 -504h-233z" />
<glyph unicode="&#x2019;" horiz-adv-x="522" d="M76 971l135 504h235l-229 -504h-141z" />
<glyph unicode="&#x201a;" horiz-adv-x="522" d="M76 -252l135 504h235l-229 -504h-141z" />
<glyph unicode="&#x201c;" horiz-adv-x="897" d="M76 971l229 504h141l-137 -504h-233zM451 971l229 504h141l-137 -504h-233z" />
<glyph unicode="&#x201d;" horiz-adv-x="897" d="M76 971l135 504h235l-229 -504h-141zM451 971l137 504h233l-229 -504h-141z" />
<glyph unicode="&#x201e;" horiz-adv-x="897" d="M76 -248l135 502h235l-229 -502h-141zM451 -248l137 502h233l-229 -502h-141z" />
<glyph unicode="&#x2022;" horiz-adv-x="1208" d="M307 762q0 123 87 209t210 86q122 0 208.5 -86t86.5 -209q0 -122 -87 -209.5t-210 -87.5t-209 87t-86 210z" />
<glyph unicode="&#x2026;" horiz-adv-x="2048" d="M229 0v252h224v-252h-224zM911 0v252h224v-252h-224zM1595 0v252h224v-252h-224z" />
<glyph unicode="&#x202f;" horiz-adv-x="394" />
<glyph unicode="&#x2039;" horiz-adv-x="616" d="M115 522l213 393h164l-183 -393l193 -409h-162z" />
<glyph unicode="&#x203a;" horiz-adv-x="616" d="M115 113l192 409l-182 393h164l213 -393l-228 -409h-159z" />
<glyph unicode="&#x205f;" horiz-adv-x="493" />
<glyph unicode="&#x20ac;" d="M-23 811l52 117h118q20 278 149.5 423.5t350.5 145.5q193 0 301.5 -109t114.5 -309h-199q-9 121 -70.5 188.5t-156.5 67.5q-119 0 -196.5 -105.5t-92.5 -301.5h443l-52 -117h-399q-2 -49 -2 -88q0 -24 2 -55h334l-53 -121h-273q15 -200 89.5 -305t199.5 -105q95 0 156 69 t65 189h209q-1 -192 -119 -306t-315 -114q-207 0 -334 148.5t-152 423.5h-141l53 121h82q-2 49 -2 88q0 24 2 55h-164z" />
<glyph unicode="&#x2122;" horiz-adv-x="1705" d="M242 1378v80h452v-80h-172v-458h-108v458h-172zM813 920v538h150l151 -385l141 385h150v-538h-98v444l-166 -444h-56l-174 444v-444h-98z" />
<glyph unicode="&#x25fc;" horiz-adv-x="1024" d="M0 0v1024h1024v-1024h-1024z" />
<glyph unicode="&#xfb01;" horiz-adv-x="1189" d="M8 889v139h189v164q0 307 284 307q70 0 172 -18v-152q-94 23 -127 23q-66 0 -102.5 -42.5t-36.5 -121.5v-160h238v-139h-238v-889h-190v889h-189zM829 1266v209h220v-209h-220zM844 0v1028h190v-1028h-190z" />
<glyph unicode="&#xfb02;" horiz-adv-x="1189" d="M8 889v139h189v164q0 307 284 307q70 0 172 -18v-152q-94 23 -127 23q-66 0 -102.5 -42.5t-36.5 -121.5v-160h238v-139h-238v-889h-190v889h-189zM844 0v1475h190v-1475h-190z" />
</font>
</defs>
</svg>
