<?xml version="1.0" standalone="no"?>
<!DOCTYPE svg PUBLIC "-//W3C//DTD SVG 1.1//EN" "http://www.w3.org/Graphics/SVG/1.1/DTD/svg11.dtd" >
<svg xmlns="http://www.w3.org/2000/svg">
<metadata></metadata>
<defs>
<font id="zurich_lightitalic" horiz-adv-x="1165" >
<font-face units-per-em="2048" ascent="1638" descent="-410" />
<missing-glyph horiz-adv-x="567" />
<glyph horiz-adv-x="0" />
<glyph horiz-adv-x="682" />
<glyph unicode=" "  horiz-adv-x="567" />
<glyph unicode="&#x09;" horiz-adv-x="567" />
<glyph unicode="&#xa0;" horiz-adv-x="567" />
<glyph unicode="!" horiz-adv-x="735" d="M94 0l47 168h152l-47 -168h-152zM219 432l260 1043h160l-315 -1043h-105z" />
<glyph unicode="&#x22;" horiz-adv-x="550" d="M100 881v553h86v-553h-86zM365 881v553h86v-553h-86z" />
<glyph unicode="#" horiz-adv-x="1574" d="M129 494l31 90h336l100 282h-360l28 90h365l176 498h110l-174 -498h271l176 498h110l-174 -498h322l-31 -90h-323l-101 -282h348l-30 -90h-351l-174 -494h-112l176 494h-270l-179 -494h-110l174 494h-334zM610 584h269l100 282h-270z" />
<glyph unicode="$" horiz-adv-x="1132" d="M-12 307q0 29 6 72h127q-2 -14 -2 -39q0 -85 54.5 -143t156.5 -80l166 588l-131 92q-162 116 -162 272t137.5 259.5t366.5 103.5l43 155h79l-45 -162q150 -26 223.5 -96.5t73.5 -189.5q0 -5 -1 -15.5t-1 -15.5h-129v14q0 92 -45 138t-151 61l-152 -533l150 -104 q166 -117 166 -285q0 -175 -137 -288t-369 -113h-39l-49 -174h-80l53 180q-147 33 -228 115t-81 188zM338 1085q0 -59 32.5 -102t108.5 -102l58 -43l139 491q-157 -4 -247.5 -73t-90.5 -171zM403 106q6 0 17.5 -1t17.5 -1q154 0 249 79.5t95 197.5q0 59 -37 113t-114 110 l-70 49z" />
<glyph unicode="%" horiz-adv-x="1716" d="M72 975q0 99 48 208t120 175q105 94 241 94q126 0 201.5 -77.5t75.5 -209.5q0 -123 -55 -234.5t-149.5 -180t-203.5 -68.5q-128 0 -203 79t-75 214zM193 977q0 -93 44.5 -145t120.5 -52q71 0 137 55.5t106 145t40 182.5q0 88 -45 137.5t-121 49.5q-73 0 -139 -54 t-104.5 -140.5t-38.5 -178.5zM293 -70l997 1565h113l-997 -1565h-113zM932 262q0 99 49 209t121 176q105 94 241 94q126 0 201.5 -78t75.5 -210q0 -123 -55 -234t-149.5 -179.5t-203.5 -68.5q-128 0 -204 78.5t-76 212.5zM1055 268q0 -93 45 -144.5t121 -51.5 q72 0 137.5 55.5t105 143.5t39.5 182q0 88 -44.5 137t-119.5 49q-111 0 -197.5 -114.5t-86.5 -256.5z" />
<glyph unicode="&#x26;" horiz-adv-x="1255" d="M61 336q0 181 95 298t276 157q-176 75 -176 278q0 211 124 314.5t374 103.5h168l-33 -105h-201q-148 0 -227.5 -83.5t-79.5 -239.5q0 -122 76 -176t241 -54h224l82 297h120l-86 -297h179l-29 -104h-178l-209 -725h-324q-214 0 -315 78.5t-101 257.5zM184 340 q0 -120 71.5 -178t217.5 -58h238l178 619h-314q-186 0 -288.5 -105t-102.5 -278z" />
<glyph unicode="'" horiz-adv-x="284" d="M100 881v553h86v-553h-86z" />
<glyph unicode="(" horiz-adv-x="569" d="M109 195q0 181 22.5 330t83.5 300q113 272 422 672h94q-305 -433 -420 -772q-98 -289 -98 -743q0 -118 12 -281h-84q-32 285 -32 494z" />
<glyph unicode=")" horiz-adv-x="569" d="M-221 -299q309 439 422 772q96 283 96 744q0 144 -10 280h84q32 -285 32 -493q0 -181 -22.5 -329.5t-83.5 -299.5q-112 -271 -424 -674h-94z" />
<glyph unicode="*" horiz-adv-x="1062" d="M240 1071v139l307 -34l-189 251l119 70l131 -285l123 285l121 -70l-180 -251l307 34v-139l-307 35l180 -256l-121 -74l-123 293l-131 -293l-119 74l189 256z" />
<glyph unicode="+" horiz-adv-x="1705" d="M254 569v80h559v570h80v-570h559v-80h-559v-569h-80v569h-559z" />
<glyph unicode="," horiz-adv-x="567" d="M-133 -248l203 414h176l-279 -414h-100z" />
<glyph unicode="-" horiz-adv-x="569" d="M-49 477l49 105h492l-48 -105h-493z" />
<glyph unicode="." horiz-adv-x="567" d="M4 0l53 184h164l-51 -184h-166z" />
<glyph unicode="/" horiz-adv-x="569" d="M-145 -190l682 1687h106l-682 -1687h-106z" />
<glyph unicode="0" horiz-adv-x="1132" d="M55 416q0 169 51 367t138 356q86 154 198 233.5t240 79.5q171 0 271 -112t100 -318q0 -177 -52 -379.5t-137 -353.5q-177 -316 -440 -316q-176 0 -272.5 115t-96.5 328zM190 408q0 -156 62.5 -239t173.5 -83q183 0 319 264q79 154 124.5 335t45.5 333q0 158 -62 241.5 t-175 83.5q-97 0 -173.5 -66.5t-148.5 -207.5q-77 -153 -121.5 -332t-44.5 -329z" />
<glyph unicode="1" horiz-adv-x="1132" d="M301 1081l35 125q201 65 383 221h135l-408 -1427h-137l357 1243q-173 -136 -365 -162z" />
<glyph unicode="2" horiz-adv-x="1132" d="M-135 0l39 123q499 302 746 542.5t247 428.5q0 115 -64.5 178t-181.5 63t-199 -68t-120 -198h-133q40 180 164.5 278.5t310.5 98.5q161 0 260.5 -92.5t99.5 -243.5q0 -223 -229.5 -464.5t-702.5 -530.5h689l-33 -115h-893z" />
<glyph unicode="3" horiz-adv-x="1132" d="M-27 326q0 33 2 51h129v-29q0 -128 76.5 -199t212.5 -71q164 0 267.5 102t103.5 256q0 125 -80 192.5t-233 67.5h-13l31 109h72q190 0 290.5 80.5t100.5 224.5q0 112 -71.5 176t-196.5 64q-145 0 -234.5 -72.5t-99.5 -198.5h-121q5 167 130 269t329 102q184 0 291.5 -93 t107.5 -245q0 -148 -105 -252t-290 -131q117 -37 170 -111.5t53 -199.5q0 -190 -141.5 -316.5t-368.5 -126.5q-191 0 -301.5 95t-110.5 256z" />
<glyph unicode="4" horiz-adv-x="1132" d="M-43 322l37 133l903 972h180l-284 -995h233l-31 -110h-235l-92 -322h-133l92 322h-670zM106 432h553l259 903q-44 -72 -138 -174z" />
<glyph unicode="5" horiz-adv-x="1132" d="M31 326v18h139v-25q0 -108 68 -171.5t186 -63.5q165 0 280 131t115 328q0 124 -70 196t-192 72q-194 0 -311 -197h-125l252 813h784l-33 -112h-651l-156 -488q137 88 287 88q163 0 260 -96.5t97 -261.5q0 -156 -70.5 -289.5t-196.5 -213t-278 -79.5q-179 0 -282 94 t-103 257z" />
<glyph unicode="6" horiz-adv-x="1132" d="M66 401q0 183 60.5 399t152.5 365q173 285 477 285q170 0 264 -81.5t94 -229.5q0 -36 -2 -54h-137l2 24l1.5 18t0.5 8q0 99 -59 152.5t-166 53.5q-96 0 -171.5 -36t-136 -114t-108 -188.5t-92.5 -271.5q77 99 167 147t203 48q149 0 250 -101t101 -241q0 -273 -143.5 -441 t-368.5 -168q-186 0 -287.5 110.5t-101.5 315.5zM190 352q0 -124 72 -196t197 -72q163 0 272 138.5t109 348.5q0 107 -70.5 176.5t-177.5 69.5q-112 0 -204.5 -62t-145 -168.5t-52.5 -234.5z" />
<glyph unicode="7" horiz-adv-x="1132" d="M47 0l914 1313h-750l33 114h897l-33 -114l-899 -1313h-162z" />
<glyph unicode="8" horiz-adv-x="1132" d="M-4 346q0 166 114 280t312 140q-207 80 -207 276q0 172 138 290t354 118q184 0 293.5 -92.5t109.5 -243.5q0 -142 -95.5 -242t-281.5 -145q112 -44 165.5 -118t53.5 -185q0 -196 -144.5 -322.5t-371.5 -126.5q-205 0 -322.5 102.5t-117.5 268.5zM123 346q0 -120 84 -194 t223 -74q169 0 278 95t109 237q0 122 -82.5 196t-222.5 74q-171 0 -280 -95.5t-109 -238.5zM342 1051q0 -108 77.5 -176t205.5 -68q158 0 256 85.5t98 223.5q0 107 -74.5 171.5t-202.5 64.5q-159 0 -259.5 -86.5t-100.5 -214.5z" />
<glyph unicode="9" horiz-adv-x="1132" d="M-18 289q0 35 2 53h137q-1 -13 -2 -25.5t-1.5 -19.5t-0.5 -10q0 -96 58.5 -148.5t164.5 -52.5q196 0 317 159.5t211 512.5q-122 -215 -370 -215q-160 0 -255.5 96t-95.5 254q0 251 136.5 405t355.5 154q185 0 287 -111.5t102 -316.5q0 -184 -60.5 -399t-150.5 -363 q-91 -148 -206.5 -217.5t-270.5 -69.5q-170 0 -264 83t-94 231zM281 899q0 -115 64 -181.5t173 -66.5q160 0 268.5 122.5t108.5 305.5q0 119 -70 191.5t-188 72.5q-152 0 -254 -125.5t-102 -318.5z" />
<glyph unicode=":" horiz-adv-x="735" d="M55 0l54 184h165l-51 -184h-168zM297 844l53 184h164l-51 -184h-166z" />
<glyph unicode=";" horiz-adv-x="735" d="M-102 -248l200 414h178l-278 -414h-100zM297 844l53 184h164l-51 -184h-166z" />
<glyph unicode="&#x3c;" horiz-adv-x="1705" d="M264 580v61l1178 483v-90l-1045 -424l1045 -424v-88z" />
<glyph unicode="=" horiz-adv-x="1705" d="M254 389v80h1198v-80h-1198zM254 752v79h1198v-79h-1198z" />
<glyph unicode="&#x3e;" horiz-adv-x="1705" d="M264 98v88l1045 424l-1045 424v90l1178 -483v-61z" />
<glyph unicode="?" horiz-adv-x="995" d="M106 0l48 168h151l-49 -168h-150zM219 346l55 197q7 23 15 44.5t15.5 38t19.5 33.5t19.5 28.5t23 26t23 22.5t26.5 22t26.5 19.5t28.5 21t29 20.5q65 46 104.5 76.5t83.5 71t67.5 74.5t39.5 76.5t16 88.5q0 88 -62.5 136.5t-177.5 48.5q-98 0 -241 -41l32 118 q145 31 232 31q164 0 255 -75t91 -205q0 -111 -69 -212t-212 -212q-29 -23 -85 -61t-82.5 -59t-56.5 -61.5t-44 -89.5l-51 -178h-121z" />
<glyph unicode="@" horiz-adv-x="2048" d="M121 522q0 329 198 572q143 175 344.5 265.5t450.5 90.5q162 0 306.5 -45t246.5 -123q128 -98 194 -226.5t66 -277.5q0 -169 -63 -308t-181 -232q-139 -111 -305 -111q-192 0 -192 145q0 11 4 39q-49 -89 -125 -136.5t-166 -47.5q-154 0 -233.5 83t-79.5 243 q0 151 62.5 276.5t168 196.5t230.5 71q194 0 256 -170l61 129h80l-137 -553q-21 -79 -21 -108q0 -43 30.5 -67.5t86.5 -24.5q98 0 203 76q100 73 161.5 205.5t61.5 283.5q0 271 -199 438.5t-526 167.5q-336 0 -569 -192q-310 -257 -310 -672q0 -325 220.5 -521t592.5 -196 q160 0 323 50t300 143l29 -45q-296 -220 -648 -220q-375 0 -620 185q-301 228 -301 616zM690 446q0 -116 57.5 -180.5t159.5 -64.5q111 0 196 72.5t116 193.5l63 254q-45 203 -233 203q-152 0 -255.5 -138.5t-103.5 -339.5z" />
<glyph unicode="A" horiz-adv-x="1355" d="M-174 0l999 1475h158l170 -1475h-141l-39 395h-731l-258 -395h-158zM317 510h641l-92 829z" />
<glyph unicode="B" horiz-adv-x="1327" d="M-8 0l422 1475h409q229 0 338 -75.5t109 -246.5q0 -137 -96 -243t-267 -148q119 -29 175.5 -97t56.5 -182q0 -223 -160 -353t-459 -130h-528zM162 117h401q202 0 319 101t117 261q0 122 -75.5 176t-233.5 54h-360zM365 823h372q180 0 286.5 92.5t106.5 239.5 q0 115 -71.5 159t-229.5 44h-311z" />
<glyph unicode="C" horiz-adv-x="1359" d="M109 504q0 203 85 416.5t220 353.5q106 109 237 167t267 58q213 0 329.5 -88.5t116.5 -245.5q0 -34 -2 -69h-150v41q0 119 -73 183t-211 64q-233 0 -412 -200q-123 -137 -190.5 -312t-67.5 -358q0 -201 100.5 -312.5t280.5 -111.5q128 0 222 65t140 185h144 q-47 -171 -183 -268t-329 -97q-251 0 -387.5 138t-136.5 391z" />
<glyph unicode="D" horiz-adv-x="1507" d="M-8 0l424 1475h348q287 0 450.5 -156t163.5 -426q0 -172 -67.5 -346.5t-180.5 -298.5q-118 -128 -275.5 -188t-369.5 -60h-493zM162 117h299q186 0 319.5 48.5t235.5 160.5q99 108 159 263.5t60 309.5q0 222 -125 340.5t-362 118.5h-230z" />
<glyph unicode="E" horiz-adv-x="1232" d="M-8 0l424 1475h882l-34 -117h-746l-158 -545h715l-31 -102h-712l-170 -594h782l-33 -117h-919z" />
<glyph unicode="F" horiz-adv-x="1128" d="M-8 0l422 1475h825l-35 -117h-688l-154 -539h660l-31 -114h-661l-203 -705h-135z" />
<glyph unicode="G" horiz-adv-x="1470" d="M109 504q0 215 83.5 419.5t227.5 350.5q225 225 512 225q211 0 329.5 -88.5t118.5 -236.5q0 -37 -2 -64h-151v37q0 111 -76.5 174t-212.5 63q-114 0 -220.5 -49t-189.5 -141q-128 -141 -198 -318.5t-70 -361.5q0 -198 103.5 -309t291.5 -111q160 0 336 64l135 473h-419 l32 117h557l-196 -687q-251 -84 -463 -84q-254 0 -391 138t-137 389z" />
<glyph unicode="H" horiz-adv-x="1478" d="M-8 0l424 1475h135l-186 -648h794l184 648h138l-424 -1475h-135l202 711h-792l-205 -711h-135z" />
<glyph unicode="I" horiz-adv-x="559" d="M-4 0l424 1475h135l-422 -1475h-137z" />
<glyph unicode="J" horiz-adv-x="999" d="M-127 297q0 33 6 70h141q-8 -58 -8 -72q0 -101 60.5 -156t171.5 -55q72 0 123 21.5t88.5 72t62.5 113t55 166.5l293 1018h135l-317 -1108q-58 -204 -161 -298t-281 -94q-172 0 -270.5 85.5t-98.5 236.5z" />
<glyph unicode="K" horiz-adv-x="1124" d="M-8 0l424 1475h135l-186 -648l813 648h174l-838 -680l504 -795h-162l-500 793l-229 -793h-135z" />
<glyph unicode="L" horiz-adv-x="1013" d="M-8 0l424 1475h135l-389 -1358h762l-35 -117h-897z" />
<glyph unicode="M" horiz-adv-x="1947" d="M-8 0l424 1475h205l176 -1119q14 -85 14 -176q0 -37 -2 -55q47 106 100 182l813 1168h228l-424 -1475h-135l387 1346l-936 -1346h-115l-213 1354l-393 -1354h-129z" />
<glyph unicode="N" horiz-adv-x="1503" d="M-8 0l424 1475h149l369 -1092q45 -126 65 -260q6 36 14.5 75.5t14 62t17 64.5t14.5 52l315 1098h131l-424 -1475h-161l-379 1133q-33 96 -52 210q-13 -104 -43 -213l-323 -1130h-131z" />
<glyph unicode="O" horiz-adv-x="1574" d="M109 504q0 201 81 411t213 351q107 115 239.5 174t279.5 59q249 0 395.5 -142.5t146.5 -393.5q0 -166 -66 -358t-175 -333q-112 -145 -259 -222t-309 -77q-252 0 -399 141t-147 390zM258 514q0 -202 103 -311t290 -109q247 0 441 238q104 128 163.5 294t59.5 322 q0 202 -105.5 316t-287.5 114q-228 0 -402 -192q-126 -139 -194 -314t-68 -358z" />
<glyph unicode="P" horiz-adv-x="1245" d="M-8 0l422 1475h379q241 0 358 -82.5t117 -259.5q0 -114 -47.5 -210t-135.5 -161q-93 -69 -202 -89t-281 -20h-289l-186 -653h-135zM348 770h326q220 0 335 94.5t115 265.5q0 122 -82.5 175t-259.5 53h-266z" />
<glyph unicode="Q" horiz-adv-x="1574" d="M104 504q0 201 81.5 411t213.5 351q107 115 239.5 174t279.5 59q249 0 395.5 -142.5t146.5 -393.5q0 -173 -59 -346.5t-164 -309.5t-233 -198h354l-33 -109h-354q-58 0 -170 -11.5t-166 -11.5q-244 0 -387.5 141t-143.5 386zM256 514q0 -202 102 -311t289 -109 q246 0 440 238q104 129 164 294.5t60 321.5q0 202 -105.5 316t-287.5 114q-228 0 -402 -192q-125 -139 -192.5 -313.5t-67.5 -358.5z" />
<glyph unicode="R" horiz-adv-x="1323" d="M-8 0l422 1475h409q232 0 344.5 -75t112.5 -239q0 -154 -104 -265t-283 -134q77 -9 113 -51t36 -125q0 -42 -15 -185t-15 -243q0 -66 6 -158h-139q-5 132 -5 150q0 67 14.5 199.5t14.5 195.5q0 44 -8.5 73t-24.5 48t-46.5 28.5t-66.5 13t-93 3.5h-330l-205 -711h-137z M367 825h378q186 0 294 92t108 232q0 117 -74 163t-233 46h-320z" />
<glyph unicode="S" horiz-adv-x="1142" d="M-25 346v31h150q0 -5 -1 -15t-1 -14q0 -125 85.5 -194.5t242.5 -69.5q163 0 261.5 84t98.5 219q0 154 -158 250l-176 108q-144 88 -208 169.5t-64 197.5q0 169 139.5 277t370.5 108q193 0 302 -85t109 -232q0 -5 -1 -16t-1 -17h-141v20q0 105 -74 163.5t-211 58.5 q-161 0 -253.5 -71.5t-92.5 -191.5q0 -69 36 -120.5t112 -98.5l217 -135q125 -76 183 -159.5t58 -200.5q0 -191 -146.5 -314t-387.5 -123q-213 0 -331 98t-118 273z" />
<glyph unicode="T" horiz-adv-x="919" d="M92 1358l35 117h1075l-35 -117h-465l-389 -1358h-135l389 1358h-475z" />
<glyph unicode="U" horiz-adv-x="1478" d="M123 365q0 117 41 256l246 854h135l-242 -844q-43 -152 -43 -256q0 -138 88 -213.5t252 -75.5q105 0 183 28t135.5 89.5t98 145.5t75.5 208l264 918h129l-293 -1022q-69 -240 -220.5 -359t-391.5 -119q-208 0 -332.5 109.5t-124.5 280.5z" />
<glyph unicode="V" horiz-adv-x="1232" d="M180 1475h137l99 -1311l827 1311h146l-955 -1475h-131z" />
<glyph unicode="W" horiz-adv-x="2088" d="M219 0l35 1475h127l-35 -1354q51 111 105 205l675 1149h174l56 -1354q39 103 82 182l630 1172h138l-793 -1475h-180l-55 1348l-789 -1348h-170z" />
<glyph unicode="X" horiz-adv-x="1204" d="M-215 0l739 760l-286 715h149l244 -611l596 611h170l-713 -727l305 -748h-153l-258 643l-629 -643h-164z" />
<glyph unicode="Y" horiz-adv-x="1089" d="M147 1475h146l239 -715l652 715h157l-770 -830l-184 -645h-135l182 637z" />
<glyph unicode="Z" horiz-adv-x="1208" d="M-129 0l35 117l1210 1241h-815l33 117h987l-33 -117l-1208 -1241h881l-33 -117h-1057z" />
<glyph unicode="[" horiz-adv-x="569" d="M-80 -309l510 1784h303l-22 -76h-183l-469 -1632h185l-23 -76h-301z" />
<glyph unicode="\" horiz-adv-x="569" d="M53 1497h107l309 -1687h-104z" />
<glyph unicode="]" horiz-adv-x="569" d="M-244 -309l23 76h182l469 1632h-184l22 76h301l-510 -1784h-303z" />
<glyph unicode="^" horiz-adv-x="2048" d="M424 901l539 557h118l541 -557h-125l-473 469l-475 -469h-125z" />
<glyph unicode="_" horiz-adv-x="1024" d="M0 -403h1024v-80h-1024v80z" />
<glyph unicode="`" horiz-adv-x="1024" d="M422 1503h147l199 -350h-90z" />
<glyph unicode="a" horiz-adv-x="1044" d="M-47 250q0 383 647 383q65 0 100 -2l23 80q14 43 14 88q0 78 -51.5 120t-150.5 42q-230 0 -265 -173h-127q22 124 128 194.5t278 70.5q156 0 236.5 -63t80.5 -183q0 -61 -28 -156l-125 -432q-20 -67 -43 -219h-113l29 139q-151 -164 -348 -164q-133 0 -209 74t-76 201z M76 254q0 -85 51.5 -133.5t144.5 -48.5q144 0 229 80t132 247l39 131q-14 0 -39 1t-37 1q-265 0 -392.5 -66.5t-127.5 -211.5z" />
<glyph unicode="b" horiz-adv-x="1204" d="M-27 0q41 112 88 272l345 1203h131l-175 -607q163 172 361 172q146 0 233.5 -95t87.5 -257q0 -124 -50 -262.5t-138 -245.5q-157 -192 -373 -192q-118 0 -194.5 48.5t-120.5 151.5l-53 -188h-142zM229 324q0 -121 60.5 -185.5t173.5 -64.5q83 0 159 43t134 125 q68 96 107.5 215t39.5 225q0 124 -59 190t-168 66q-117 0 -221 -87t-165 -229t-61 -298z" />
<glyph unicode="c" horiz-adv-x="1075" d="M37 354q0 118 43.5 245t122.5 235q84 113 183.5 167t229.5 54q149 0 238.5 -72.5t89.5 -183.5q0 -32 -10 -94h-127q6 49 6 59q0 188 -205 188q-78 0 -156.5 -44.5t-138.5 -127.5q-64 -88 -103.5 -212.5t-39.5 -231.5q0 -115 65.5 -182.5t184.5 -67.5q205 0 287 223h124 q-26 -149 -142.5 -240.5t-280.5 -91.5q-173 0 -272 100t-99 277z" />
<glyph unicode="d" horiz-adv-x="1204" d="M25 342q0 122 51 260.5t139 247.5q76 94 172.5 143t200.5 49q228 0 313 -202l182 635h134l-334 -1156q-4 -15 -22 -77t-33 -120.5t-29 -121.5h-137l45 162q-165 -174 -361 -174q-147 0 -234 96t-87 258zM166 346q0 -124 59 -190t168 -66q117 0 221 87t165 229.5t61 298.5 q0 121 -59.5 185t-172.5 64q-84 0 -160.5 -43.5t-134.5 -124.5q-68 -96 -107.5 -215t-39.5 -225z" />
<glyph unicode="e" horiz-adv-x="1161" d="M37 354q0 135 54.5 276t146.5 244q162 179 395 179q174 0 269 -90.5t95 -255.5q0 -87 -28 -211h-776q-21 -86 -21 -148q0 -117 76.5 -190.5t206.5 -73.5q218 0 313 221h131q-44 -154 -168 -241t-301 -87q-191 0 -292 97t-101 280zM219 592h637q12 76 12 125 q0 111 -64 174t-179 63q-134 0 -245 -97t-161 -265z" />
<glyph unicode="f" horiz-adv-x="606" d="M10 0l269 934h-199l26 94h199l57 197q40 136 114 202t188 66q58 0 127 -14l-31 -103q-44 10 -76 10q-77 0 -120.5 -35t-67.5 -120l-60 -203h223l-26 -94h-223l-269 -934h-131z" />
<glyph unicode="g" horiz-adv-x="1193" d="M-86 -109h135v-16q0 -82 60.5 -129t169.5 -47q93 0 159.5 24.5t113 77.5t76.5 118.5t58 166.5l29 96q-148 -170 -353 -170q-147 0 -231 91.5t-84 252.5q0 125 47 263t123 233q73 93 169 141.5t202 48.5q227 0 313 -202l62 188h135q-58 -165 -80 -242l-205 -714 q-70 -247 -190.5 -361t-337.5 -114q-371 0 -371 290v4zM178 356q0 -117 59.5 -179t172.5 -62q117 0 217.5 83t158.5 219t58 290q0 119 -58.5 183t-164.5 64q-184 0 -304 -166q-66 -92 -102.5 -206.5t-36.5 -225.5z" />
<glyph unicode="h" d="M-31 0l422 1475h131l-180 -629q182 194 383 194q123 0 194.5 -58t71.5 -157q0 -55 -24 -141l-197 -684h-131l195 676q20 67 20 110q0 70 -44 109t-124 39q-155 0 -269 -114t-179 -339l-138 -481h-131z" />
<glyph unicode="i" horiz-adv-x="497" d="M-31 0l295 1028h131l-295 -1028h-131zM336 1319l47 156h149l-45 -156h-151z" />
<glyph unicode="j" horiz-adv-x="501" d="M-293 -393l31 106q32 -4 41 -4q66 0 100.5 43t65.5 148l323 1128h131l-333 -1171q-38 -134 -96 -198.5t-163 -64.5q-46 0 -100 13zM342 1319l45 156h150l-43 -156h-152z" />
<glyph unicode="k" horiz-adv-x="985" d="M-29 0l422 1475h131l-248 -869l568 422h184l-633 -465l400 -563h-152l-383 551l-158 -551h-131z" />
<glyph unicode="l" horiz-adv-x="497" d="M-31 0l422 1475h131l-422 -1475h-131z" />
<glyph unicode="m" horiz-adv-x="1837" d="M-31 0l203 709q56 196 84 319h139l-53 -182q93 99 185.5 146.5t197.5 47.5q119 0 191 -57.5t75 -151.5q194 209 404 209q123 0 194.5 -58t71.5 -157q0 -52 -25 -141l-196 -684h-129l192 676q21 70 21 110q0 71 -43.5 109.5t-122.5 38.5q-155 0 -269.5 -114t-179.5 -339 l-139 -481h-131l195 676q20 67 20 110q0 70 -44 109t-124 39q-155 0 -269 -114t-179 -339l-138 -481h-131z" />
<glyph unicode="n" d="M-31 0l203 709q56 196 84 319h139l-53 -182q182 194 383 194q123 0 194.5 -58t71.5 -157q0 -55 -24 -141l-197 -684h-131l195 676q20 67 20 110q0 70 -44 109t-124 39q-155 0 -269 -114t-179 -339l-138 -481h-131z" />
<glyph unicode="o" d="M37 354q0 118 44.5 248.5t121.5 233.5q79 107 187.5 163t234.5 56q175 0 273.5 -100t98.5 -281q0 -123 -46 -256.5t-122 -231.5q-164 -209 -415 -209q-180 0 -278.5 99.5t-98.5 277.5zM172 348q0 -129 66 -198.5t184 -69.5q117 0 220 85.5t161.5 222t58.5 284.5 q0 131 -65.5 202.5t-184.5 71.5t-221 -85t-160.5 -223t-58.5 -290z" />
<glyph unicode="p" horiz-adv-x="1204" d="M-129 -389l315 1098q55 189 84 319h138l-46 -160q163 172 361 172q146 0 233.5 -95t87.5 -257q0 -124 -50 -262.5t-138 -245.5q-157 -192 -373 -192q-118 0 -194.5 48.5t-120.5 151.5l-166 -577h-131zM229 324q0 -121 60.5 -185.5t173.5 -64.5q83 0 159 43t134 125 q68 96 107.5 215t39.5 225q0 124 -59 190t-168 66q-117 0 -221 -87t-165 -229t-61 -298z" />
<glyph unicode="q" horiz-adv-x="1204" d="M25 342q0 122 51 260.5t139 247.5q76 94 172.5 143t200.5 49q116 0 196.5 -53.5t114.5 -154.5l55 194h140q-80 -249 -93 -295l-319 -1122h-133l158 551q-165 -174 -361 -174q-147 0 -234 96t-87 258zM166 346q0 -124 59 -190t168 -66q117 0 221 87t165 229.5t61 298.5 q0 121 -59.5 185t-172.5 64q-84 0 -160.5 -43.5t-134.5 -124.5q-68 -96 -107.5 -215t-39.5 -225z" />
<glyph unicode="r" horiz-adv-x="692" d="M-31 0l203 709q61 217 80 319h131l-37 -172q141 178 311 178q34 0 86 -10l-32 -113q-70 9 -80 9q-142 0 -235 -107.5t-158 -331.5l-138 -481h-131z" />
<glyph unicode="s" horiz-adv-x="915" d="M-80 248q0 5 1 15.5t1 15.5h137q-2 -12 -2 -33q0 -82 58 -126t166 -44q135 0 213.5 58.5t78.5 154.5q0 63 -33 93.5t-116 61.5l-133 50q-106 39 -157.5 97.5t-51.5 147.5q0 135 108.5 224.5t290.5 89.5q154 0 243 -67.5t89 -180.5q0 -4 -1 -12.5t-1 -12.5h-133v21 q0 74 -52 114.5t-151 40.5q-119 0 -189.5 -54.5t-70.5 -143.5q0 -64 35 -95t117 -63l139 -53q107 -40 156 -95.5t49 -142.5q0 -142 -120 -238t-315 -96q-168 0 -262 72.5t-94 200.5z" />
<glyph unicode="t" horiz-adv-x="573" d="M33 934l28 94h213l58 205l151 70l-80 -275h246l-26 -94h-246l-187 -651q-18 -68 -18 -115q0 -72 109 -72q60 0 104 10l-33 -112q-39 -8 -78 -8q-237 0 -237 161q0 63 35 179l174 608h-213z" />
<glyph unicode="u" d="M35 203q0 55 24 141l197 684h129l-192 -676q-21 -70 -21 -110q0 -71 43.5 -109.5t122.5 -38.5q155 0 269 114t179 339l140 481h131l-203 -709q-56 -196 -84 -319h-139l51 182q-93 -99 -185.5 -146.5t-195.5 -47.5q-123 0 -194.5 58t-71.5 157z" />
<glyph unicode="v" horiz-adv-x="1019" d="M78 1028h127l106 -881l598 881h133l-702 -1028h-137z" />
<glyph unicode="w" horiz-adv-x="1734" d="M90 1028h133l70 -876l559 876h135l60 -876l550 876h134l-664 -1028h-131l-66 870l-557 -870h-133z" />
<glyph unicode="x" horiz-adv-x="923" d="M-221 0l536 524l-235 504h135l188 -414l414 414h152l-512 -504l248 -524h-136l-200 430l-437 -430h-153z" />
<glyph unicode="y" horiz-adv-x="966" d="M-92 -389l289 430l-136 987h134l106 -846l578 846h131l-967 -1417h-135z" />
<glyph unicode="z" horiz-adv-x="886" d="M-133 0l27 115l792 805h-545l31 108h709l-33 -108l-801 -811h596l-31 -109h-745z" />
<glyph unicode="{" horiz-adv-x="1024" d="M176 485v90q18 -2 49 -2q140 0 197 65.5t57 221.5v240q0 88 8 147t28.5 106t57.5 72.5t93.5 38.5t138.5 13h43v-88h-37q-74 0 -118 -12.5t-69.5 -46t-33.5 -80t-8 -126.5v-241q0 -162 -39 -240.5t-156 -112.5q118 -35 156.5 -112t38.5 -240v-241q0 -79 8 -125.5t33 -79.5 t69 -45.5t117 -12.5h39v-88h-43q-103 0 -166 18.5t-99 65.5t-48.5 113.5t-12.5 177.5v240q0 157 -57 221.5t-201 64.5q-7 0 -22 -1t-23 -1z" />
<glyph unicode="|" horiz-adv-x="1024" d="M467 -483v2048h90v-2048h-90z" />
<glyph unicode="}" horiz-adv-x="1024" d="M176 -326h39q73 0 117 12.5t69 45.5t33 79.5t8 125.5v241q0 162 39 239.5t158 112.5q-119 34 -158 112t-39 241v241q0 80 -8 126.5t-33.5 80t-69.5 46t-118 12.5h-37v88h43q82 0 138.5 -13t93.5 -38.5t57.5 -72.5t28.5 -106t8 -147v-240q0 -157 57.5 -222t200.5 -65 q7 0 22 1t23 1v-90q-8 0 -23 1t-22 1q-144 0 -201 -64.5t-57 -221.5v-240q0 -111 -12.5 -177.5t-48.5 -113.5t-99 -65.5t-166 -18.5h-43v88z" />
<glyph unicode="~" horiz-adv-x="1705" d="M178 481v92q211 148 387 148q19 0 39.5 -2t36.5 -4t38.5 -7.5t34.5 -8.5t37 -11.5t33 -11.5t36 -13t34 -12q142 -52 203 -63q45 -8 86 -8q87 0 180 39.5t207 119.5v-92q-210 -147 -387 -147q-51 0 -109 12.5t-84 21.5t-96 35q-4 1 -40 14.5t-44 16t-38 12t-43.5 12.5 t-38 8.5t-44.5 7t-41 1.5q-87 0 -180 -40t-207 -120z" />
<glyph unicode="&#xa1;" horiz-adv-x="735" d="M94 0l318 1042h104l-260 -1042h-162zM440 1307l49 168h150l-47 -168h-152z" />
<glyph unicode="&#xa2;" horiz-adv-x="1132" d="M76 377q0 132 52.5 272.5t143.5 247.5q150 178 373 178q41 0 90 -6l119 258h86l-131 -276q82 -29 128 -91.5t46 -138.5q0 -32 -10 -94h-127q6 47 6 59q0 61 -20.5 101t-67.5 67l-397 -831q70 -17 98 -17q94 0 167 59t113 167h132q-41 -160 -154.5 -246t-276.5 -86 q-69 0 -124 16l-132 -268h-81l139 297q-172 102 -172 332zM211 377q0 -136 90 -217l385 815q-5 0 -14.5 1t-14.5 1q-140 0 -249 -109q-85 -84 -141 -224.5t-56 -266.5z" />
<glyph unicode="&#xa3;" horiz-adv-x="1132" d="M-53 0l33 115h124l191 657h-162l29 105h162l34 122q67 232 186 341.5t312 109.5q162 0 254 -74.5t92 -201.5q0 -27 -2 -41h-119q0 4 1 13t1 13q0 91 -59.5 140t-169.5 49q-143 0 -226.5 -83.5t-135.5 -267.5l-35 -120h344l-29 -105h-344l-190 -657h653l-33 -115h-911z " />
<glyph unicode="&#xa4;" horiz-adv-x="1132" d="M-8 557l47 100h88q8 69 31 164h-166l47 101h147q89 279 246 429t344 150q176 0 276.5 -92t100.5 -248q0 -30 -2 -65h-127v41q0 120 -59.5 183.5t-171.5 63.5q-151 0 -271.5 -117t-197.5 -345h524l-47 -101h-508q-27 -118 -31 -164h465l-45 -100h-428q0 -7 -1 -21.5 t-1 -21.5q0 -210 78 -317t229 -107q104 0 180.5 64t114.5 186h121q-40 -170 -154 -267.5t-270 -97.5q-208 0 -321 138.5t-113 398.5v45h-125z" />
<glyph unicode="&#xa5;" horiz-adv-x="1284" d="M35 592l22 76h455l-80 221h-311l20 76h262l-163 462h145l240 -692l606 692h162l-424 -462h293l-23 -76h-328l-204 -221h469l-21 -76h-502l-170 -592h-133l170 592h-485z" />
<glyph unicode="&#xa6;" horiz-adv-x="1024" d="M467 -350v758h90v-758h-90zM467 674v758h90v-758h-90z" />
<glyph unicode="&#xa7;" horiz-adv-x="1062" d="M25 43l32 92q149 -55 297 -55q123 0 197 52t74 132q0 57 -42.5 107t-133.5 106l-130 78q-122 75 -122 188q0 174 311 263q-81 62 -116.5 112t-35.5 115q0 111 93 181.5t247 70.5q123 0 287 -49l-29 -97q-164 52 -254 52q-100 0 -157.5 -39.5t-57.5 -102.5q0 -45 31 -81.5 t105 -94.5l120 -94q62 -48 89.5 -90.5t27.5 -104.5q0 -79 -69.5 -147.5t-198.5 -110.5q85 -55 123.5 -106.5t38.5 -134.5q0 -127 -114 -213t-306 -86q-139 0 -307 57zM326 756q0 -49 41.5 -89t130.5 -85q116 39 171.5 82.5t55.5 99.5q0 90 -150 180q-130 -38 -189.5 -81.5 t-59.5 -106.5z" />
<glyph unicode="&#xa8;" horiz-adv-x="1024" d="M428 1231l47 164h141l-45 -164h-143zM752 1231l45 164h143l-47 -164h-141z" />
<glyph unicode="&#xa9;" horiz-adv-x="1705" d="M123 721q0 145 56 279t161 241q208 211 512 211q149 0 282.5 -55.5t237.5 -159.5q103 -103 157 -235.5t54 -280.5q0 -304 -211 -512q-107 -106 -241 -162.5t-279 -56.5t-277 56t-237 161q-104 104 -159.5 236t-55.5 278zM195 721q0 -130 50 -249.5t144 -213.5 t213.5 -144.5t249.5 -50.5q129 0 250.5 51t218.5 146q190 187 190 461q0 134 -49 253.5t-141 211.5q-194 194 -469 194q-133 0 -251.5 -49t-209.5 -141q-95 -97 -145.5 -217.5t-50.5 -251.5zM471 725q0 207 107.5 329t281.5 122q132 0 223 -72t103 -186h-105 q-20 82 -79.5 127t-147.5 45q-125 0 -195.5 -97t-70.5 -274q0 -171 72 -268t194 -97q91 0 156 52t84 141h102q-10 -123 -107.5 -201t-240.5 -78q-171 0 -274 122t-103 335z" />
<glyph unicode="&#xaa;" horiz-adv-x="784" d="M-35 928q0 268 486 268h75l17 55q10 25 10 62q0 112 -152 112q-174 0 -198 -120h-94q15 87 94.5 136.5t208.5 49.5q118 0 177.5 -44t59.5 -128q0 -48 -20 -109l-94 -303q-20 -72 -33 -153h-84l22 98q-115 -115 -262 -115q-99 0 -156 51.5t-57 139.5zM57 932 q0 -60 39 -94.5t109 -34.5q107 0 170.5 56t99.5 173l29 92q-10 0 -29.5 1t-28.5 1q-198 0 -293.5 -47t-95.5 -147z" />
<glyph unicode="&#xab;" horiz-adv-x="854" d="M68 592l313 326h92l-291 -349l72 -456h-84zM381 592l313 326h92l-290 -349l71 -456h-84z" />
<glyph unicode="&#xac;" horiz-adv-x="1705" d="M254 776v80h1198v-502h-80v422h-1118z" />
<glyph unicode="&#xad;" horiz-adv-x="569" d="M-49 477l49 105h492l-48 -105h-493z" />
<glyph unicode="&#xae;" horiz-adv-x="1705" d="M123 721q0 145 56 279t161 241q208 211 512 211q149 0 282.5 -55.5t237.5 -159.5q103 -103 157 -235.5t54 -280.5q0 -304 -211 -512q-107 -106 -241 -162.5t-279 -56.5t-277 56t-237 161q-104 104 -159.5 236t-55.5 278zM195 721q0 -130 50 -249.5t144 -213.5 t213.5 -144.5t249.5 -50.5q129 0 250.5 51t218.5 146q190 187 190 461q0 134 -49 253.5t-141 211.5q-194 194 -469 194q-133 0 -251.5 -49t-209.5 -141q-95 -97 -145.5 -217.5t-50.5 -251.5zM569 309v846h305q177 0 263 -56t86 -177q0 -89 -55 -149.5t-148 -70.5l190 -393 h-131l-182 377h-213v-377h-115zM684 764h168q139 0 196.5 34t57.5 128q0 79 -62.5 115t-191.5 36h-168v-313z" />
<glyph unicode="&#xaf;" horiz-adv-x="1024" d="M412 1253l32 117h512l-32 -117h-512z" />
<glyph unicode="&#xb0;" horiz-adv-x="673" d="M63 1176q0 115 80.5 194.5t194.5 79.5q113 0 192.5 -80t79.5 -194q0 -113 -79.5 -193t-194.5 -80t-194 79.5t-79 193.5zM125 1176q0 -89 62.5 -151t150.5 -62q89 0 151 62.5t62 150.5t-62.5 150.5t-150.5 62.5q-89 0 -151 -62t-62 -151z" />
<glyph unicode="&#xb1;" horiz-adv-x="1705" d="M254 61v80h1198v-80h-1198zM254 727v80h559v354h80v-354h559v-80h-559v-352h-80v352h-559z" />
<glyph unicode="&#xb2;" horiz-adv-x="747" d="M-90 571l27 74q330 183 492.5 326.5t162.5 255.5q0 69 -42.5 107t-119.5 38t-131.5 -41t-79.5 -119h-88q26 108 108 168t205 60q106 0 172 -56t66 -147q0 -133 -151 -278t-463 -318h454l-22 -70h-590z" />
<glyph unicode="&#xb3;" horiz-adv-x="747" d="M-18 766q0 21 2 31h86v-17q0 -77 49.5 -119.5t140.5 -42.5q108 0 176 61.5t68 154.5q0 74 -53.5 114.5t-153.5 40.5h-8l20 66h47q126 0 192 47.5t66 134.5q0 67 -47 105t-129 38q-95 0 -154.5 -43t-66.5 -118h-80q3 100 86 161.5t217 61.5q122 0 193.5 -55.5t71.5 -147.5 q0 -89 -70 -151.5t-193 -77.5q78 -23 113 -68.5t35 -120.5q0 -114 -93 -189t-243 -75q-126 0 -199 56.5t-73 152.5z" />
<glyph unicode="&#xb4;" horiz-adv-x="1024" d="M520 1153l271 350h145l-324 -350h-92z" />
<glyph unicode="&#xb5;" horiz-adv-x="1093" d="M-111 -424l316 1487h121l-123 -590q-17 -87 -17 -141q0 -126 60 -192t174 -66q125 0 218 107.5t138 314.5l125 567h121l-166 -787q-25 -121 -25 -135q0 -63 68 -63q16 0 39 2l-18 -96q-63 -13 -76 -13q-133 0 -133 127q0 13 4 45q-43 -83 -124 -127.5t-188 -44.5 q-98 0 -170 45t-104 127l-119 -567h-121z" />
<glyph unicode="&#xb6;" horiz-adv-x="1024" d="M90 1130q0 155 107.5 252t287.5 97h447v-64h-129v-1415h-70v1415h-192v-1415h-70v782q-177 7 -279 102t-102 246z" />
<glyph unicode="&#xb7;" horiz-adv-x="567" d="M184 715q0 35 24 59.5t58 24.5t59 -25t25 -59q0 -35 -24.5 -58.5t-59.5 -23.5q-34 0 -58 23.5t-24 58.5z" />
<glyph unicode="&#xb8;" horiz-adv-x="1024" d="M-80 -367l31 76q130 -39 211 -39q72 0 109.5 32t37.5 87q0 45 -41 62.5t-133 17.5h-20l73 178h64l-45 -110h22q94 0 143.5 -37t49.5 -105q0 -92 -64.5 -150.5t-175.5 -58.5q-119 0 -262 47z" />
<glyph unicode="&#xb9;" horiz-adv-x="747" d="M199 1221l22 73q137 43 252 133h90l-268 -856h-92l235 746q-117 -82 -239 -96z" />
<glyph unicode="&#xba;" horiz-adv-x="874" d="M29 1001q0 83 32.5 174.5t90.5 163.5q122 152 317 152q131 0 205 -69.5t74 -196.5q0 -87 -34 -180t-91 -160q-124 -148 -312 -148q-135 0 -208.5 70t-73.5 194zM129 997q0 -91 49.5 -139.5t138.5 -48.5q88 0 164.5 60t121 156t44.5 200q0 92 -49 141t-139 49 q-134 0 -232 -127t-98 -291z" />
<glyph unicode="&#xbb;" horiz-adv-x="854" d="M-72 113l291 348l-72 457h82l105 -480l-316 -325h-90zM242 113l290 348l-73 457h84l104 -480l-315 -325h-90z" />
<glyph unicode="&#xbc;" horiz-adv-x="1769" d="M188 1235l23 70q128 36 242 122h84l-256 -798h-86l223 696q-106 -75 -230 -90zM373 -25l913 1475h111l-912 -1475h-112zM1030 180l23 74l569 545h113l-179 -557h148l-21 -62h-147l-59 -180h-84l59 180h-422zM1124 242h349l161 506q-33 -48 -86 -97z" />
<glyph unicode="&#xbd;" horiz-adv-x="1769" d="M188 1235l23 70q128 36 242 122h84l-256 -798h-86l223 696q-106 -75 -230 -90zM373 -25l913 1475h111l-912 -1475h-112zM971 0l24 70q627 334 627 542q0 64 -41 100t-115 36q-149 0 -200 -150h-84q25 101 103.5 156t195.5 55q101 0 164 -51.5t63 -134.5q0 -126 -145 -262 t-443 -298h434l-20 -63h-563z" />
<glyph unicode="&#xbe;" horiz-adv-x="1769" d="M-16 811v29h82v-17q0 -71 48 -111t134 -40q103 0 168 57t65 143q0 71 -50 108.5t-146 37.5h-9l19 61h45q121 0 184.5 45t63.5 127q0 61 -46 97t-124 36q-91 0 -147.5 -40.5t-63.5 -110.5h-76q3 94 81.5 150.5t207.5 56.5q117 0 184.5 -51.5t67.5 -137.5 q0 -83 -66.5 -141.5t-181.5 -73.5q73 -20 106 -61.5t33 -112.5q0 -106 -88.5 -177t-232.5 -71q-119 0 -188.5 53.5t-69.5 143.5zM371 -25l913 1475h111l-912 -1475h-112zM1028 180l23 74l569 545h113l-179 -557h148l-21 -62h-147l-59 -180h-84l59 180h-422zM1122 242h348 l162 506q-33 -48 -86 -97z" />
<glyph unicode="&#xbf;" horiz-adv-x="995" d="M20 256q0 111 69 212t212 212q28 22 69.5 49.5t67.5 46t54.5 44t48 57t30.5 71.5l52 180h120l-57 -196q-7 -23 -15.5 -44.5t-15 -37.5t-19.5 -34t-19.5 -28.5t-23 -26.5t-22.5 -22.5t-26.5 -22.5t-25.5 -19.5t-29.5 -21t-28.5 -20.5q-64 -46 -104 -76.5t-83.5 -70.5 t-67 -74.5t-39 -77t-15.5 -88.5q0 -88 62 -136t177 -48q106 0 242 39l-35 -117q-145 -31 -229 -31q-164 0 -256.5 75.5t-92.5 205.5zM657 1307l48 168h151l-49 -168h-150z" />
<glyph unicode="&#xc0;" horiz-adv-x="1355" d="M-174 0l999 1475h158l170 -1475h-141l-39 395h-731l-258 -395h-158zM317 510h641l-92 829zM725 1954h147l199 -350h-90z" />
<glyph unicode="&#xc1;" horiz-adv-x="1355" d="M-174 0l999 1475h158l170 -1475h-141l-39 395h-731l-258 -395h-158zM317 510h641l-92 829zM823 1604l271 350h145l-324 -350h-92z" />
<glyph unicode="&#xc2;" horiz-adv-x="1355" d="M-174 0l999 1475h158l170 -1475h-141l-39 395h-731l-258 -395h-158zM317 510h641l-92 829zM672 1604l291 350h133l129 -350h-80l-129 247l-252 -247h-92z" />
<glyph unicode="&#xc3;" horiz-adv-x="1355" d="M-174 0l999 1475h158l170 -1475h-141l-39 395h-731l-258 -395h-158zM317 510h641l-92 829zM696 1657q43 99 87 141.5t112 42.5q36 0 57 -8l90 -29q29 -10 58 -10q64 0 98 72h78q-41 -97 -86.5 -140t-114.5 -43q-25 0 -67 11l-93 30q-25 7 -45 7q-59 0 -94 -74h-80z" />
<glyph unicode="&#xc4;" horiz-adv-x="1355" d="M-174 0l999 1475h158l170 -1475h-141l-39 395h-731l-258 -395h-158zM317 510h641l-92 829zM731 1681l47 164h142l-46 -164h-143zM1055 1681l45 164h143l-47 -164h-141z" />
<glyph unicode="&#xc5;" horiz-adv-x="1355" d="M-174 0l999 1464h158l170 -1464h-141l-39 395h-731l-258 -395h-158zM317 510h641l-92 829zM692 1749q0 92 65.5 157.5t157.5 65.5q93 0 159.5 -65.5t66.5 -157.5t-67 -158.5t-159 -66.5q-93 0 -158 66t-65 159zM774 1749q0 -58 42.5 -100.5t101.5 -42.5q58 0 99.5 42 t41.5 101q0 60 -41 100.5t-100 40.5t-101.5 -41.5t-42.5 -99.5z" />
<glyph unicode="&#xc6;" horiz-adv-x="1796" d="M-205 0l1108 1475h979l-33 -117h-737l-72 -543h654l-31 -110h-637l-78 -588h602l-32 -117h-717l53 399h-612l-301 -399h-146zM319 508h549l121 881h-22z" />
<glyph unicode="&#xc7;" horiz-adv-x="1359" d="M109 -367l30 76q130 -39 211 -39q72 0 110 32t38 87q0 45 -41 62.5t-133 17.5h-21l74 178h63l-45 -110h23q94 0 143 -37t49 -105q0 -92 -64 -150.5t-175 -58.5q-119 0 -262 47zM109 504q0 203 85 416.5t220 353.5q106 109 237 167t267 58q213 0 329.5 -88.5t116.5 -245.5 q0 -34 -2 -69h-150v41q0 119 -73 183t-211 64q-233 0 -412 -200q-123 -137 -190.5 -312t-67.5 -358q0 -201 100.5 -312.5t280.5 -111.5q128 0 222 65t140 185h144q-47 -171 -183 -268t-329 -97q-251 0 -387.5 138t-136.5 391z" />
<glyph unicode="&#xc8;" horiz-adv-x="1232" d="M-8 0l424 1475h882l-34 -117h-746l-158 -545h715l-31 -102h-712l-170 -594h782l-33 -117h-919zM670 1954h147l199 -350h-90z" />
<glyph unicode="&#xc9;" horiz-adv-x="1232" d="M-8 0l424 1475h882l-34 -117h-746l-158 -545h715l-31 -102h-712l-170 -594h782l-33 -117h-919zM768 1604l270 350h146l-324 -350h-92z" />
<glyph unicode="&#xca;" horiz-adv-x="1232" d="M-8 0l424 1475h882l-34 -117h-746l-158 -545h715l-31 -102h-712l-170 -594h782l-33 -117h-919zM616 1604l291 350h133l129 -350h-79l-129 247l-252 -247h-93z" />
<glyph unicode="&#xcb;" horiz-adv-x="1232" d="M-8 0l424 1475h882l-34 -117h-746l-158 -545h715l-31 -102h-712l-170 -594h782l-33 -117h-919zM676 1681l47 164h141l-45 -164h-143zM999 1681l45 164h144l-47 -164h-142z" />
<glyph unicode="&#xcc;" horiz-adv-x="559" d="M-4 0l424 1475h135l-422 -1475h-137zM315 1954h148l199 -350h-91z" />
<glyph unicode="&#xcd;" horiz-adv-x="559" d="M-4 0l424 1475h135l-422 -1475h-137zM414 1604l270 350h145l-323 -350h-92z" />
<glyph unicode="&#xce;" horiz-adv-x="559" d="M-4 0l424 1475h135l-422 -1475h-137zM262 1604l291 350h133l129 -350h-80l-129 247l-252 -247h-92z" />
<glyph unicode="&#xcf;" horiz-adv-x="559" d="M-4 0l424 1475h135l-422 -1475h-137zM322 1681l47 164h141l-45 -164h-143zM645 1681l45 164h144l-48 -164h-141z" />
<glyph unicode="&#xd0;" horiz-adv-x="1511" d="M-4 0l217 756h-213l27 96h213l178 623h350q287 0 450.5 -156t163.5 -426q0 -173 -67 -347.5t-180 -297.5q-118 -128 -276 -188t-370 -60h-493zM168 117h297q186 0 319.5 48.5t235.5 160.5q99 108 159 263.5t60 309.5q0 222 -125 340.5t-362 118.5h-228l-145 -506h391 l-29 -96h-389z" />
<glyph unicode="&#xd1;" horiz-adv-x="1503" d="M-8 0l424 1475h149l369 -1092q45 -126 65 -260q6 36 14.5 75.5t14 62t17 64.5t14.5 52l315 1098h131l-424 -1475h-161l-379 1133q-33 96 -52 210q-13 -104 -43 -213l-323 -1130h-131zM723 1657q43 99 87 141.5t112 42.5q36 0 57 -8l90 -29q29 -10 57 -10q65 0 99 72h78 q-41 -97 -86.5 -140t-114.5 -43q-26 0 -68 11l-92 30q-25 7 -45 7q-59 0 -94 -74h-80z" />
<glyph unicode="&#xd2;" horiz-adv-x="1574" d="M109 504q0 201 81 411t213 351q107 115 239.5 174t279.5 59q249 0 395.5 -142.5t146.5 -393.5q0 -166 -66 -358t-175 -333q-112 -145 -259 -222t-309 -77q-252 0 -399 141t-147 390zM258 514q0 -202 103 -311t290 -109q247 0 441 238q104 128 163.5 294t59.5 322 q0 202 -105.5 316t-287.5 114q-228 0 -402 -192q-126 -139 -194 -314t-68 -358zM797 1954h147l199 -350h-90z" />
<glyph unicode="&#xd3;" horiz-adv-x="1574" d="M109 504q0 201 81 411t213 351q107 115 239.5 174t279.5 59q249 0 395.5 -142.5t146.5 -393.5q0 -166 -66 -358t-175 -333q-112 -145 -259 -222t-309 -77q-252 0 -399 141t-147 390zM258 514q0 -202 103 -311t290 -109q247 0 441 238q104 128 163.5 294t59.5 322 q0 202 -105.5 316t-287.5 114q-228 0 -402 -192q-126 -139 -194 -314t-68 -358zM895 1604l270 350h146l-324 -350h-92z" />
<glyph unicode="&#xd4;" horiz-adv-x="1574" d="M109 504q0 201 81 411t213 351q107 115 239.5 174t279.5 59q249 0 395.5 -142.5t146.5 -393.5q0 -166 -66 -358t-175 -333q-112 -145 -259 -222t-309 -77q-252 0 -399 141t-147 390zM258 514q0 -202 103 -311t290 -109q247 0 441 238q104 128 163.5 294t59.5 322 q0 202 -105.5 316t-287.5 114q-228 0 -402 -192q-126 -139 -194 -314t-68 -358zM743 1604l291 350h133l129 -350h-79l-130 247l-251 -247h-93z" />
<glyph unicode="&#xd5;" horiz-adv-x="1574" d="M109 504q0 201 81 411t213 351q107 115 239.5 174t279.5 59q249 0 395.5 -142.5t146.5 -393.5q0 -166 -66 -358t-175 -333q-112 -145 -259 -222t-309 -77q-252 0 -399 141t-147 390zM258 514q0 -202 103 -311t290 -109q247 0 441 238q104 128 163.5 294t59.5 322 q0 202 -105.5 316t-287.5 114q-228 0 -402 -192q-126 -139 -194 -314t-68 -358zM768 1657q43 99 87 141.5t112 42.5q36 0 57 -8l90 -29q29 -10 57 -10q65 0 99 72h78q-41 -97 -86.5 -140t-114.5 -43q-26 0 -68 11l-92 30q-25 7 -45 7q-59 0 -94 -74h-80z" />
<glyph unicode="&#xd6;" horiz-adv-x="1574" d="M109 504q0 201 81 411t213 351q107 115 239.5 174t279.5 59q249 0 395.5 -142.5t146.5 -393.5q0 -166 -66 -358t-175 -333q-112 -145 -259 -222t-309 -77q-252 0 -399 141t-147 390zM258 514q0 -202 103 -311t290 -109q247 0 441 238q104 128 163.5 294t59.5 322 q0 202 -105.5 316t-287.5 114q-228 0 -402 -192q-126 -139 -194 -314t-68 -358zM803 1681l47 164h141l-45 -164h-143zM1126 1681l45 164h144l-47 -164h-142z" />
<glyph unicode="&#xd7;" horiz-adv-x="1705" d="M309 123l488 487l-488 488l58 57l487 -487l487 487l58 -57l-488 -488l488 -487l-58 -57l-487 487l-487 -487z" />
<glyph unicode="&#xd8;" horiz-adv-x="1574" d="M0 -25l199 207q-49 68 -69.5 140t-20.5 165q0 187 65 378.5t178 336.5q112 144 257 220.5t304 76.5q247 0 400 -141l131 139h123l-197 -205q94 -135 94 -319q0 -174 -65.5 -366.5t-175.5 -334.5q-112 -146 -258.5 -222.5t-311.5 -76.5q-121 0 -225.5 39t-175.5 109 l-135 -146h-117zM256 498q0 -109 45 -207l913 962q-102 125 -288 125q-258 0 -449 -243q-107 -138 -164 -301.5t-57 -335.5zM348 219q110 -125 299 -125q254 0 445 238q105 131 165 299t60 334q0 138 -51 217z" />
<glyph unicode="&#xd9;" horiz-adv-x="1478" d="M123 365q0 117 41 256l246 854h135l-242 -844q-43 -152 -43 -256q0 -138 88 -213.5t252 -75.5q105 0 183 28t135.5 89.5t98 145.5t75.5 208l264 918h129l-293 -1022q-69 -240 -220.5 -359t-391.5 -119q-208 0 -332.5 109.5t-124.5 280.5zM760 1954h147l199 -350h-90z" />
<glyph unicode="&#xda;" horiz-adv-x="1478" d="M123 365q0 117 41 256l246 854h135l-242 -844q-43 -152 -43 -256q0 -138 88 -213.5t252 -75.5q105 0 183 28t135.5 89.5t98 145.5t75.5 208l264 918h129l-293 -1022q-69 -240 -220.5 -359t-391.5 -119q-208 0 -332.5 109.5t-124.5 280.5zM858 1604l270 350h146l-324 -350 h-92z" />
<glyph unicode="&#xdb;" horiz-adv-x="1478" d="M123 365q0 117 41 256l246 854h135l-242 -844q-43 -152 -43 -256q0 -138 88 -213.5t252 -75.5q105 0 183 28t135.5 89.5t98 145.5t75.5 208l264 918h129l-293 -1022q-69 -240 -220.5 -359t-391.5 -119q-208 0 -332.5 109.5t-124.5 280.5zM707 1604l290 350h133l130 -350 h-80l-129 247l-252 -247h-92z" />
<glyph unicode="&#xdc;" horiz-adv-x="1478" d="M123 365q0 117 41 256l246 854h135l-242 -844q-43 -152 -43 -256q0 -138 88 -213.5t252 -75.5q105 0 183 28t135.5 89.5t98 145.5t75.5 208l264 918h129l-293 -1022q-69 -240 -220.5 -359t-391.5 -119q-208 0 -332.5 109.5t-124.5 280.5zM766 1681l47 164h141l-45 -164 h-143zM1090 1681l45 164h143l-47 -164h-141z" />
<glyph unicode="&#xdd;" horiz-adv-x="1089" d="M147 1475h146l239 -715l652 715h157l-770 -830l-184 -645h-135l182 637zM680 1604l270 350h146l-324 -350h-92z" />
<glyph unicode="&#xde;" horiz-adv-x="1245" d="M-8 0l422 1475h135l-86 -304h242q242 0 359.5 -81.5t117.5 -258.5q0 -113 -48.5 -210t-136.5 -162q-93 -69 -201 -89t-280 -20h-289l-100 -350h-135zM260 467h326q220 0 335 94.5t115 265.5q0 122 -82.5 175t-259.5 53h-266z" />
<glyph unicode="&#xdf;" horiz-adv-x="1171" d="M-31 0l299 1044q63 220 202.5 334.5t344.5 114.5q148 0 236 -71t88 -183q0 -85 -46 -149t-149 -142q-24 -19 -58.5 -44t-53 -39t-37.5 -30.5t-27 -29.5t-8 -25q0 -16 20.5 -44.5t69.5 -82.5l123 -133q76 -82 76 -203q0 -145 -107.5 -242.5t-275.5 -97.5q-138 0 -221 68 t-83 176q0 5 1 14t2 22t2 24h129q-2 -23 -2 -52q0 -72 48.5 -111.5t135.5 -39.5q112 0 180 62.5t68 164.5q0 99 -68 170l-135 141q-86 89 -86 156q0 20 4.5 37.5t18 35.5t24.5 31t36.5 33.5t41 32t51.5 37t55 39.5q77 56 113.5 104.5t36.5 106.5q0 76 -58.5 123t-158.5 47 q-300 0 -420 -418l-281 -981h-131z" />
<glyph unicode="&#xe0;" horiz-adv-x="1044" d="M-47 250q0 383 647 383q65 0 100 -2l23 80q14 43 14 88q0 78 -51.5 120t-150.5 42q-230 0 -265 -173h-127q22 124 128 194.5t278 70.5q156 0 236.5 -63t80.5 -183q0 -61 -28 -156l-125 -432q-20 -67 -43 -219h-113l29 139q-151 -164 -348 -164q-133 0 -209 74t-76 201z M76 254q0 -85 51.5 -133.5t144.5 -48.5q144 0 229 80t132 247l39 131q-14 0 -39 1t-37 1q-265 0 -392.5 -66.5t-127.5 -211.5zM375 1503h147l199 -350h-90z" />
<glyph unicode="&#xe1;" horiz-adv-x="1044" d="M-47 250q0 383 647 383q65 0 100 -2l23 80q14 43 14 88q0 78 -51.5 120t-150.5 42q-230 0 -265 -173h-127q22 124 128 194.5t278 70.5q156 0 236.5 -63t80.5 -183q0 -61 -28 -156l-125 -432q-20 -67 -43 -219h-113l29 139q-151 -164 -348 -164q-133 0 -209 74t-76 201z M76 254q0 -85 51.5 -133.5t144.5 -48.5q144 0 229 80t132 247l39 131q-14 0 -39 1t-37 1q-265 0 -392.5 -66.5t-127.5 -211.5zM473 1153l270 350h146l-324 -350h-92z" />
<glyph unicode="&#xe2;" horiz-adv-x="1044" d="M-47 250q0 383 647 383q65 0 100 -2l23 80q14 43 14 88q0 78 -51.5 120t-150.5 42q-230 0 -265 -173h-127q22 124 128 194.5t278 70.5q156 0 236.5 -63t80.5 -183q0 -61 -28 -156l-125 -432q-20 -67 -43 -219h-113l29 139q-151 -164 -348 -164q-133 0 -209 74t-76 201z M76 254q0 -85 51.5 -133.5t144.5 -48.5q144 0 229 80t132 247l39 131q-14 0 -39 1t-37 1q-265 0 -392.5 -66.5t-127.5 -211.5zM322 1153l290 350h133l129 -350h-79l-129 248l-252 -248h-92z" />
<glyph unicode="&#xe3;" horiz-adv-x="1044" d="M-47 250q0 383 647 383q65 0 100 -2l23 80q14 43 14 88q0 78 -51.5 120t-150.5 42q-230 0 -265 -173h-127q22 124 128 194.5t278 70.5q156 0 236.5 -63t80.5 -183q0 -61 -28 -156l-125 -432q-20 -67 -43 -219h-113l29 139q-151 -164 -348 -164q-133 0 -209 74t-76 201z M76 254q0 -85 51.5 -133.5t144.5 -48.5q144 0 229 80t132 247l39 131q-14 0 -39 1t-37 1q-265 0 -392.5 -66.5t-127.5 -211.5zM346 1206q43 99 87 142t112 43q33 0 57 -9l90 -28q32 -11 58 -11q64 0 98 72h78q-41 -96 -86.5 -139t-114.5 -43q-30 0 -68 10l-92 31 q-21 6 -45 6q-59 0 -94 -74h-80z" />
<glyph unicode="&#xe4;" horiz-adv-x="1044" d="M-47 250q0 383 647 383q65 0 100 -2l23 80q14 43 14 88q0 78 -51.5 120t-150.5 42q-230 0 -265 -173h-127q22 124 128 194.5t278 70.5q156 0 236.5 -63t80.5 -183q0 -61 -28 -156l-125 -432q-20 -67 -43 -219h-113l29 139q-151 -164 -348 -164q-133 0 -209 74t-76 201z M76 254q0 -85 51.5 -133.5t144.5 -48.5q144 0 229 80t132 247l39 131q-14 0 -39 1t-37 1q-265 0 -392.5 -66.5t-127.5 -211.5zM381 1231l47 164h141l-45 -164h-143zM705 1231l45 164h143l-47 -164h-141z" />
<glyph unicode="&#xe5;" horiz-adv-x="1044" d="M-47 250q0 383 647 383q65 0 100 -2l23 80q14 43 14 88q0 78 -51.5 120t-150.5 42q-230 0 -265 -173h-127q22 124 128 194.5t278 70.5q156 0 236.5 -63t80.5 -183q0 -61 -28 -156l-125 -432q-20 -67 -43 -219h-113l29 139q-151 -164 -348 -164q-133 0 -209 74t-76 201z M76 254q0 -85 51.5 -133.5t144.5 -48.5q144 0 229 80t132 247l39 131q-14 0 -39 1t-37 1q-265 0 -392.5 -66.5t-127.5 -211.5zM420 1343q0 92 66.5 158t158.5 66t157.5 -66t65.5 -158t-65.5 -158.5t-157.5 -66.5q-93 0 -159 66t-66 159zM502 1343q0 -59 42 -101t101 -42 q58 0 99.5 42t41.5 101q0 60 -41 101t-100 41t-101 -42t-42 -100z" />
<glyph unicode="&#xe6;" horiz-adv-x="1753" d="M-45 233q0 191 155.5 276t485.5 85q67 0 104 -2l23 119q14 72 14 98q0 71 -52.5 111.5t-149.5 40.5q-230 0 -265 -173h-127q22 127 128.5 196t283.5 69q247 0 301 -176q164 176 381 176q168 0 264 -91.5t96 -254.5q0 -78 -30 -211h-776q-19 -78 -19 -148 q0 -117 76.5 -190.5t206.5 -73.5q218 0 313 221h131q-41 -152 -166.5 -240t-296.5 -88q-144 0 -241 62t-123 168q-82 -119 -183 -175.5t-235 -56.5q-142 0 -220.5 70t-78.5 188zM74 248q0 -80 56.5 -131t145.5 -51q145 0 234.5 81t134.5 248l27 101q-92 6 -111 6 q-245 0 -366 -62t-121 -192zM817 592h637q12 77 12 125q0 111 -64 174t-179 63q-134 0 -245 -97t-161 -265z" />
<glyph unicode="&#xe7;" horiz-adv-x="1075" d="M-53 -367l30 76q130 -39 211 -39q72 0 110 32t38 87q0 45 -41 62.5t-133 17.5h-21l74 178h64l-46 -110h23q94 0 143.5 -37t49.5 -105q0 -92 -64.5 -150.5t-175.5 -58.5q-119 0 -262 47zM37 354q0 118 43.5 245t122.5 235q84 113 183.5 167t229.5 54q149 0 238.5 -72.5 t89.5 -183.5q0 -32 -10 -94h-127q6 49 6 59q0 188 -205 188q-78 0 -156.5 -44.5t-138.5 -127.5q-64 -88 -103.5 -212.5t-39.5 -231.5q0 -115 65.5 -182.5t184.5 -67.5q205 0 287 223h124q-26 -149 -142.5 -240.5t-280.5 -91.5q-173 0 -272 100t-99 277z" />
<glyph unicode="&#xe8;" horiz-adv-x="1161" d="M37 354q0 135 54.5 276t146.5 244q162 179 395 179q174 0 269 -90.5t95 -255.5q0 -87 -28 -211h-776q-21 -86 -21 -148q0 -117 76.5 -190.5t206.5 -73.5q218 0 313 221h131q-44 -154 -168 -241t-301 -87q-191 0 -292 97t-101 280zM219 592h637q12 76 12 125 q0 111 -64 174t-179 63q-134 0 -245 -97t-161 -265zM471 1503h147l199 -350h-90z" />
<glyph unicode="&#xe9;" horiz-adv-x="1161" d="M37 354q0 135 54.5 276t146.5 244q162 179 395 179q174 0 269 -90.5t95 -255.5q0 -87 -28 -211h-776q-21 -86 -21 -148q0 -117 76.5 -190.5t206.5 -73.5q218 0 313 221h131q-44 -154 -168 -241t-301 -87q-191 0 -292 97t-101 280zM219 592h637q12 76 12 125 q0 111 -64 174t-179 63q-134 0 -245 -97t-161 -265zM569 1153l271 350h145l-323 -350h-93z" />
<glyph unicode="&#xea;" horiz-adv-x="1161" d="M37 354q0 135 54.5 276t146.5 244q162 179 395 179q174 0 269 -90.5t95 -255.5q0 -87 -28 -211h-776q-21 -86 -21 -148q0 -117 76.5 -190.5t206.5 -73.5q218 0 313 221h131q-44 -154 -168 -241t-301 -87q-191 0 -292 97t-101 280zM219 592h637q12 76 12 125 q0 111 -64 174t-179 63q-134 0 -245 -97t-161 -265zM418 1153l291 350h133l129 -350h-80l-129 248l-252 -248h-92z" />
<glyph unicode="&#xeb;" horiz-adv-x="1161" d="M37 354q0 135 54.5 276t146.5 244q162 179 395 179q174 0 269 -90.5t95 -255.5q0 -87 -28 -211h-776q-21 -86 -21 -148q0 -117 76.5 -190.5t206.5 -73.5q218 0 313 221h131q-44 -154 -168 -241t-301 -87q-191 0 -292 97t-101 280zM219 592h637q12 76 12 125 q0 111 -64 174t-179 63q-134 0 -245 -97t-161 -265zM477 1231l47 164h142l-45 -164h-144zM801 1231l45 164h143l-47 -164h-141z" />
<glyph unicode="&#xec;" horiz-adv-x="497" d="M-31 0l295 1028h131l-295 -1028h-131zM160 1503h147l199 -350h-90z" />
<glyph unicode="&#xed;" horiz-adv-x="497" d="M-31 0l295 1028h131l-295 -1028h-131zM258 1153l270 350h146l-324 -350h-92z" />
<glyph unicode="&#xee;" horiz-adv-x="497" d="M-31 0l295 1028h131l-295 -1028h-131zM106 1153l291 350h133l129 -350h-79l-129 248l-252 -248h-93z" />
<glyph unicode="&#xef;" horiz-adv-x="497" d="M-31 0l295 1028h131l-295 -1028h-131zM166 1231l47 164h141l-45 -164h-143zM489 1231l46 164h143l-47 -164h-142z" />
<glyph unicode="&#xf0;" d="M33 354q0 119 41 229t111.5 193t173 132.5t219.5 49.5q183 0 282 -122q-10 184 -78 321l-309 -96l-29 80l295 94q-69 98 -141 178l90 64q92 -86 168 -207l240 73l28 -81l-223 -70q88 -195 88 -451q0 -354 -150 -560t-401 -206q-193 0 -299 101t-106 278zM170 342 q0 -122 72 -193t192 -71q110 0 202 69.5t143.5 183t51.5 242.5q0 136 -70 208.5t-198 72.5q-110 0 -200 -68t-141.5 -185.5t-51.5 -258.5z" />
<glyph unicode="&#xf1;" d="M-31 0l203 709q56 196 84 319h139l-53 -182q182 194 383 194q123 0 194.5 -58t71.5 -157q0 -55 -24 -141l-197 -684h-131l195 676q20 67 20 110q0 70 -44 109t-124 39q-155 0 -269 -114t-179 -339l-138 -481h-131zM446 1206q43 99 87 142t112 43q33 0 57 -9l91 -28 q32 -11 57 -11q64 0 98 72h78q-41 -96 -86.5 -139t-114.5 -43q-29 0 -67 10l-92 31q-21 6 -45 6q-60 0 -95 -74h-80z" />
<glyph unicode="&#xf2;" d="M37 354q0 118 44.5 248.5t121.5 233.5q79 107 187.5 163t234.5 56q175 0 273.5 -100t98.5 -281q0 -123 -46 -256.5t-122 -231.5q-164 -209 -415 -209q-180 0 -278.5 99.5t-98.5 277.5zM172 348q0 -129 66 -198.5t184 -69.5q117 0 220 85.5t161.5 222t58.5 284.5 q0 131 -65.5 202.5t-184.5 71.5t-221 -85t-160.5 -223t-58.5 -290zM430 1503h148l198 -350h-90z" />
<glyph unicode="&#xf3;" d="M37 354q0 118 44.5 248.5t121.5 233.5q79 107 187.5 163t234.5 56q175 0 273.5 -100t98.5 -281q0 -123 -46 -256.5t-122 -231.5q-164 -209 -415 -209q-180 0 -278.5 99.5t-98.5 277.5zM172 348q0 -129 66 -198.5t184 -69.5q117 0 220 85.5t161.5 222t58.5 284.5 q0 131 -65.5 202.5t-184.5 71.5t-221 -85t-160.5 -223t-58.5 -290zM528 1153l271 350h145l-323 -350h-93z" />
<glyph unicode="&#xf4;" d="M37 354q0 118 44.5 248.5t121.5 233.5q79 107 187.5 163t234.5 56q175 0 273.5 -100t98.5 -281q0 -123 -46 -256.5t-122 -231.5q-164 -209 -415 -209q-180 0 -278.5 99.5t-98.5 277.5zM172 348q0 -129 66 -198.5t184 -69.5q117 0 220 85.5t161.5 222t58.5 284.5 q0 131 -65.5 202.5t-184.5 71.5t-221 -85t-160.5 -223t-58.5 -290zM377 1153l291 350h133l129 -350h-80l-129 248l-252 -248h-92z" />
<glyph unicode="&#xf5;" d="M37 354q0 118 44.5 248.5t121.5 233.5q79 107 187.5 163t234.5 56q175 0 273.5 -100t98.5 -281q0 -123 -46 -256.5t-122 -231.5q-164 -209 -415 -209q-180 0 -278.5 99.5t-98.5 277.5zM172 348q0 -129 66 -198.5t184 -69.5q117 0 220 85.5t161.5 222t58.5 284.5 q0 131 -65.5 202.5t-184.5 71.5t-221 -85t-160.5 -223t-58.5 -290zM401 1206q43 99 87 142t112 43q33 0 57 -9l91 -28q32 -11 57 -11q64 0 98 72h78q-41 -96 -86.5 -139t-114.5 -43q-29 0 -67 10l-92 31q-21 6 -46 6q-59 0 -94 -74h-80z" />
<glyph unicode="&#xf6;" d="M37 354q0 118 44.5 248.5t121.5 233.5q79 107 187.5 163t234.5 56q175 0 273.5 -100t98.5 -281q0 -123 -46 -256.5t-122 -231.5q-164 -209 -415 -209q-180 0 -278.5 99.5t-98.5 277.5zM172 348q0 -129 66 -198.5t184 -69.5q117 0 220 85.5t161.5 222t58.5 284.5 q0 131 -65.5 202.5t-184.5 71.5t-221 -85t-160.5 -223t-58.5 -290zM436 1231l47 164h142l-45 -164h-144zM760 1231l45 164h143l-47 -164h-141z" />
<glyph unicode="&#xf7;" horiz-adv-x="1705" d="M254 571v80h1198v-80h-1198zM756 266q0 40 29.5 70.5t68.5 30.5q41 0 69.5 -30.5t28.5 -70.5q0 -41 -28.5 -69.5t-69.5 -28.5q-42 0 -70 28t-28 70zM756 956q0 41 29 70t69 29q41 0 69.5 -29t28.5 -70q0 -40 -28.5 -70t-69.5 -30t-69.5 29.5t-28.5 70.5z" />
<glyph unicode="&#xf8;" d="M-61 -25l151 160q-53 90 -53 217q0 119 45 250.5t121 233.5q167 219 422 219q153 0 260 -88l78 86h112l-137 -146q59 -91 59 -231q0 -127 -45.5 -259t-122.5 -231q-165 -209 -419 -209q-171 0 -269 95l-92 -97h-110zM172 352q0 -62 16 -114l609 634q-71 74 -183 74 q-121 0 -223.5 -84.5t-160.5 -221t-58 -288.5zM227 162q73 -82 191 -82q196 0 327 205q56 87 88.5 195.5t32.5 195.5q0 68 -24 129z" />
<glyph unicode="&#xf9;" d="M35 203q0 55 24 141l197 684h129l-192 -676q-21 -70 -21 -110q0 -71 43.5 -109.5t122.5 -38.5q155 0 269 114t179 339l140 481h131l-203 -709q-56 -196 -84 -319h-139l51 182q-93 -99 -185.5 -146.5t-195.5 -47.5q-123 0 -194.5 58t-71.5 157zM473 1503h148l198 -350h-90 z" />
<glyph unicode="&#xfa;" d="M35 203q0 55 24 141l197 684h129l-192 -676q-21 -70 -21 -110q0 -71 43.5 -109.5t122.5 -38.5q155 0 269 114t179 339l140 481h131l-203 -709q-56 -196 -84 -319h-139l51 182q-93 -99 -185.5 -146.5t-195.5 -47.5q-123 0 -194.5 58t-71.5 157zM571 1153l271 350h145 l-323 -350h-93z" />
<glyph unicode="&#xfb;" d="M35 203q0 55 24 141l197 684h129l-192 -676q-21 -70 -21 -110q0 -71 43.5 -109.5t122.5 -38.5q155 0 269 114t179 339l140 481h131l-203 -709q-56 -196 -84 -319h-139l51 182q-93 -99 -185.5 -146.5t-195.5 -47.5q-123 0 -194.5 58t-71.5 157zM420 1153l291 350h133 l129 -350h-80l-129 248l-252 -248h-92z" />
<glyph unicode="&#xfc;" d="M35 203q0 55 24 141l197 684h129l-192 -676q-21 -70 -21 -110q0 -71 43.5 -109.5t122.5 -38.5q155 0 269 114t179 339l140 481h131l-203 -709q-56 -196 -84 -319h-139l51 182q-93 -99 -185.5 -146.5t-195.5 -47.5q-123 0 -194.5 58t-71.5 157zM479 1231l47 164h142 l-45 -164h-144zM803 1231l45 164h143l-47 -164h-141z" />
<glyph unicode="&#xfd;" horiz-adv-x="966" d="M-92 -389l289 430l-136 987h134l106 -846l578 846h131l-967 -1417h-135zM492 1153l270 350h145l-323 -350h-92z" />
<glyph unicode="&#xfe;" horiz-adv-x="1204" d="M-129 -389l535 1864h131l-175 -603q174 168 361 168q147 0 234 -95t87 -257q0 -125 -50 -263t-138 -245q-157 -192 -373 -192q-117 0 -194 48.5t-121 151.5l-166 -577h-131zM229 324q0 -121 60.5 -185.5t173.5 -64.5q170 0 293 168q68 96 107.5 215t39.5 225 q0 124 -59 190t-168 66q-117 0 -221 -87t-165 -229t-61 -298z" />
<glyph unicode="&#xff;" horiz-adv-x="966" d="M-92 -389l289 430l-136 987h134l106 -846l578 846h131l-967 -1417h-135zM399 1231l47 164h142l-45 -164h-144zM723 1231l45 164h143l-47 -164h-141z" />
<glyph unicode="&#x152;" horiz-adv-x="2019" d="M109 504q0 228 99.5 451t264.5 366q196 170 533 170q16 0 179 -8t312 -8h588l-35 -117h-674l-155 -545h641l-31 -102h-641l-170 -594h711l-33 -117h-713q-47 0 -170.5 -7t-198.5 -7q-245 0 -376 136.5t-131 381.5zM258 496q0 -203 100.5 -302.5t307.5 -99.5q65 0 219 21 l358 1255q-131 16 -223 16q-164 0 -285.5 -47t-218.5 -153q-125 -138 -191.5 -316t-66.5 -374z" />
<glyph unicode="&#x153;" horiz-adv-x="1925" d="M37 354q0 118 44.5 248.5t121.5 233.5q79 107 187.5 163t234.5 56q275 0 354 -240q87 122 191 180t239 58q171 0 267 -91t96 -255q0 -73 -31 -211h-776q-19 -78 -19 -148q0 -117 76.5 -190.5t206.5 -73.5q218 0 313 221h131q-47 -159 -171 -243.5t-314 -84.5 q-130 0 -222.5 60t-129.5 168q-166 -228 -422 -228q-180 0 -278.5 99.5t-98.5 277.5zM172 348q0 -129 66 -198.5t184 -69.5q117 0 220 85.5t161.5 222t58.5 284.5q0 131 -65.5 202.5t-184.5 71.5t-221 -85t-160.5 -223t-58.5 -290zM991 592h637q12 77 12 125q0 111 -64 174 t-179 63q-134 0 -245 -97t-161 -265z" />
<glyph unicode="&#x178;" horiz-adv-x="1089" d="M147 1475h146l239 -715l652 715h157l-770 -830l-184 -645h-135l182 637zM588 1681l47 164h141l-45 -164h-143zM911 1681l45 164h144l-47 -164h-142z" />
<glyph unicode="&#x2c6;" horiz-adv-x="1024" d="M369 1153l290 350h134l129 -350h-80l-129 248l-252 -248h-92z" />
<glyph unicode="&#x2dc;" horiz-adv-x="1024" d="M393 1206q43 99 87 142t112 43q33 0 57 -9l90 -28q32 -11 58 -11q64 0 98 72h78q-41 -96 -86.5 -139t-114.5 -43q-29 0 -67 10l-93 31q-21 6 -45 6q-59 0 -94 -74h-80z" />
<glyph unicode="&#x2000;" horiz-adv-x="986" />
<glyph unicode="&#x2001;" horiz-adv-x="1972" />
<glyph unicode="&#x2002;" horiz-adv-x="986" />
<glyph unicode="&#x2003;" horiz-adv-x="1972" />
<glyph unicode="&#x2004;" horiz-adv-x="657" />
<glyph unicode="&#x2005;" horiz-adv-x="493" />
<glyph unicode="&#x2006;" horiz-adv-x="328" />
<glyph unicode="&#x2007;" horiz-adv-x="328" />
<glyph unicode="&#x2008;" horiz-adv-x="246" />
<glyph unicode="&#x2009;" horiz-adv-x="394" />
<glyph unicode="&#x200a;" horiz-adv-x="109" />
<glyph unicode="&#x2010;" horiz-adv-x="569" d="M-49 477l49 105h492l-48 -105h-493z" />
<glyph unicode="&#x2011;" horiz-adv-x="569" d="M-49 477l49 105h492l-48 -105h-493z" />
<glyph unicode="&#x2012;" horiz-adv-x="569" d="M-49 477l49 105h492l-48 -105h-493z" />
<glyph unicode="&#x2013;" horiz-adv-x="1024" d="M-84 483l35 86h1026l-35 -86h-1026z" />
<glyph unicode="&#x2014;" horiz-adv-x="2048" d="M-84 483l35 86h2050l-35 -86h-2050z" />
<glyph unicode="&#x2018;" horiz-adv-x="497" d="M172 1061l279 414h100l-201 -414h-178z" />
<glyph unicode="&#x2019;" horiz-adv-x="497" d="M203 1061l200 414h179l-279 -414h-100z" />
<glyph unicode="&#x201a;" horiz-adv-x="497" d="M-150 -248l201 414h176l-276 -414h-101z" />
<glyph unicode="&#x201c;" horiz-adv-x="854" d="M172 1061l279 414h100l-201 -414h-178zM528 1061l279 414h100l-202 -414h-177z" />
<glyph unicode="&#x201d;" horiz-adv-x="854" d="M203 1061l200 414h179l-279 -414h-100zM559 1061l201 414h176l-277 -414h-100z" />
<glyph unicode="&#x201e;" horiz-adv-x="854" d="M-150 -248l201 414h176l-276 -414h-101zM205 -248l201 414h178l-279 -414h-100z" />
<glyph unicode="&#x2022;" horiz-adv-x="1208" d="M307 762q0 123 87 209t210 86q122 0 208.5 -86t86.5 -209q0 -122 -87 -209.5t-210 -87.5t-209 87t-86 210z" />
<glyph unicode="&#x2026;" horiz-adv-x="2048" d="M61 0l54 184h164l-52 -184h-166zM743 0l54 184h164l-52 -184h-166zM1427 0l54 184h164l-52 -184h-166z" />
<glyph unicode="&#x202f;" horiz-adv-x="394" />
<glyph unicode="&#x2039;" horiz-adv-x="540" d="M68 592l313 326h92l-291 -349l72 -456h-84z" />
<glyph unicode="&#x203a;" horiz-adv-x="540" d="M-72 113l291 348l-72 457h82l105 -480l-316 -325h-90z" />
<glyph unicode="&#x205f;" horiz-adv-x="493" />
<glyph unicode="&#x20ac;" horiz-adv-x="1132" d="M-8 557l47 100h88q8 69 31 164h-166l47 101h147q89 279 246 429t344 150q176 0 276.5 -92t100.5 -248q0 -30 -2 -65h-127v41q0 120 -59.5 183.5t-171.5 63.5q-151 0 -271.5 -117t-197.5 -345h524l-47 -101h-508q-27 -118 -31 -164h465l-45 -100h-428q0 -7 -1 -21.5 t-1 -21.5q0 -210 78 -317t229 -107q104 0 180.5 64t114.5 186h121q-40 -170 -154 -267.5t-270 -97.5q-208 0 -321 138.5t-113 398.5v45h-125z" />
<glyph unicode="&#x2122;" horiz-adv-x="1705" d="M274 1403v51h420v-51h-174v-479h-67v479h-179zM825 924v530h101l174 -440l162 440h102v-530h-59v479l-181 -479h-49l-190 479v-479h-60z" />
<glyph unicode="&#x25fc;" horiz-adv-x="1024" d="M0 0v1024h1024v-1024h-1024z" />
<glyph unicode="&#xfb01;" horiz-adv-x="1103" d="M10 0l269 934h-199l26 94h199l57 197q40 136 114 202t188 66q58 0 127 -14l-31 -103q-44 10 -76 10q-77 0 -120.5 -35t-67.5 -120l-60 -203h223l-26 -94h-223l-269 -934h-131zM575 0l295 1028h131l-294 -1028h-132zM944 1319l45 156h150l-45 -156h-150z" />
<glyph unicode="&#xfb02;" horiz-adv-x="1103" d="M10 0l269 934h-199l26 94h199l57 197q40 136 114 202t188 66q58 0 127 -14l-31 -103q-44 10 -76 10q-77 0 -120.5 -35t-67.5 -120l-60 -203h223l-26 -94h-223l-269 -934h-131zM575 0l424 1475h131l-423 -1475h-132z" />
</font>
</defs>
</svg>
