<?xml version="1.0" standalone="no"?>
<!DOCTYPE svg PUBLIC "-//W3C//DTD SVG 1.1//EN" "http://www.w3.org/Graphics/SVG/1.1/DTD/svg11.dtd" >
<svg xmlns="http://www.w3.org/2000/svg">
<metadata></metadata>
<defs>
<font id="zurich_blkex_btblack" horiz-adv-x="1554" >
<font-face units-per-em="2048" ascent="1556" descent="-492" />
<missing-glyph horiz-adv-x="778" />
<glyph horiz-adv-x="0" />
<glyph unicode="&#xd;" horiz-adv-x="778" />
<glyph unicode=" "  horiz-adv-x="778" />
<glyph unicode="&#x09;" horiz-adv-x="778" />
<glyph unicode="&#xa0;" horiz-adv-x="778" />
<glyph unicode="!" horiz-adv-x="825" d="M190 1475h443l-64 -1055h-315zM221 0v317h383v-317h-383z" />
<glyph unicode="&#x22;" horiz-adv-x="713" d="M76 877v561h219v-561h-219zM416 877v561h223v-561h-223z" />
<glyph unicode="#" horiz-adv-x="1575" d="M23 381l86 231h270l82 230h-283l86 231h279l141 393h250l-139 -393h235l141 393h250l-139 -393h270l-86 -231h-268l-80 -230h277l-84 -231h-275l-141 -393h-250l139 393h-235l-141 -393h-250l139 393h-274zM625 610h245l82 232h-245z" />
<glyph unicode="$" d="M51 450l395 1q10 -111 67.5 -164.5t174.5 -59.5v359q-335 56 -462.5 152t-127.5 280q0 200 148.5 303t441.5 107v159h166v-160q302 -6 452 -105.5t160 -299.5h-381q-6 89 -61.5 133.5t-169.5 52.5v-342q348 -53 491.5 -156.5t143.5 -295.5q0 -204 -155 -305t-480 -109 v-176h-166v176q-314 5 -473 117.5t-164 332.5zM469 1057q0 -68 49.5 -106.5t169.5 -63.5v321q-106 -1 -162.5 -40t-56.5 -111zM854 228q119 3 181.5 43.5t62.5 113.5q0 74 -54 114t-190 64v-335z" />
<glyph unicode="%" horiz-adv-x="2009" d="M66 1044q0 189 101 286t296 97t296 -97.5t101 -285.5q0 -187 -102 -286t-295 -99q-194 0 -295.5 98.5t-101.5 286.5zM307 1044q0 -117 36 -167t120 -50q82 0 117.5 50.5t35.5 166.5q0 117 -36 167.5t-117 50.5q-83 0 -119.5 -50.5t-36.5 -167.5zM354 -25l1071 1475h234 l-1071 -1475h-234zM1151 383q0 189 100 286t295 97t296.5 -97.5t101.5 -285.5q0 -187 -102 -285t-296 -98t-294.5 97.5t-100.5 285.5zM1391 383q0 -117 35.5 -166t119.5 -49q83 0 118.5 49.5t35.5 165.5t-36 166.5t-118 50.5q-83 0 -119 -50.5t-36 -166.5z" />
<glyph unicode="&#x26;" horiz-adv-x="2091" d="M141 422q0 137 86 224.5t262 129.5q-155 63 -220.5 139.5t-65.5 192.5q0 199 140.5 295t432.5 96q62 0 139.5 -4t206.5 -14v-250q-93 9 -153.5 12.5t-100.5 3.5q-138 0 -204 -42t-66 -130q0 -89 76 -123t319 -34h279v241h389v-241h326v-275h-326v-643h-776 q-203 0 -303 12.5t-181 40.5q-121 43 -190.5 141.5t-69.5 227.5zM553 477q0 -102 94.5 -145t333.5 -43h291v377h-291q-259 0 -343.5 -41.5t-84.5 -147.5z" />
<glyph unicode="'" horiz-adv-x="371" d="M76 877v561h219v-561h-219z" />
<glyph unicode="(" horiz-adv-x="829" d="M143 600q0 213 77.5 429.5t244.5 467.5h303q-136 -273 -202 -493.5t-66 -403.5q0 -174 67 -396.5t201 -492.5h-303q-162 243 -242 464t-80 425z" />
<glyph unicode=")" horiz-adv-x="829" d="M63 -289q135 270 202 492.5t67 396.5q0 183 -66 403.5t-203 493.5h304q167 -251 244 -467.5t77 -429.5q0 -204 -79.5 -425t-241.5 -464h-304z" />
<glyph unicode="*" horiz-adv-x="1255" d="M262 995v234l301 -78l-225 213l192 133l99 -299l94 299l199 -135l-230 -211l301 78v-234l-301 78l230 -203l-199 -141l-94 307l-97 -309l-192 135l223 211z" />
<glyph unicode="+" horiz-adv-x="1706" d="M254 496v231h481v494h238v-494h479v-231h-479v-496h-238v496h-481z" />
<glyph unicode="," horiz-adv-x="778" d="M86 -231l156 526h395l-279 -526h-272z" />
<glyph unicode="-" horiz-adv-x="909" d="M80 338v352h749v-352h-749z" />
<glyph unicode="." horiz-adv-x="778" d="M186 0v322h404v-322h-404z" />
<glyph unicode="/" horiz-adv-x="834" d="M-53 -190l661 1687h238l-658 -1687h-241z" />
<glyph unicode="0" d="M80 713q0 362 177 549.5t519 187.5t520.5 -188t178.5 -549t-178.5 -549.5t-520.5 -188.5q-341 0 -518.5 188t-177.5 550zM510 713q0 -268 62 -382t204 -114q143 0 205.5 115.5t62.5 380.5q0 264 -62.5 379.5t-205.5 115.5q-142 0 -204 -114.5t-62 -380.5z" />
<glyph unicode="1" d="M268 866v334q137 51 253.5 107.5t215.5 119.5h361v-1427h-410v1036q-81 -52 -185 -94.5t-235 -75.5z" />
<glyph unicode="2" d="M84 0v303q178 90 341.5 186.5t311.5 200.5q144 100 191 164.5t47 144.5q0 88 -55 132.5t-162 44.5q-104 0 -157 -51.5t-56 -153.5h-422q0 236 159.5 357.5t469.5 121.5q311 0 485 -119t174 -330q0 -193 -172.5 -358.5t-595.5 -368.5h772v-274h-1331z" />
<glyph unicode="3" d="M66 424h431q2 -93 65.5 -142t185.5 -49q118 0 182.5 49.5t64.5 139.5q0 96 -64.5 140t-207.5 44q-23 0 -77 -3l-7 -1v258h25q155 0 227 39.5t72 124.5q0 82 -51 125t-148 43q-99 0 -156.5 -40t-66.5 -113l-426 -1q17 200 179.5 306t453.5 106q313 0 479 -104.5 t166 -303.5q0 -127 -87 -205t-251 -100q182 -19 280.5 -109.5t98.5 -236.5q0 -209 -172 -312.5t-521 -103.5q-333 0 -500.5 111.5t-174.5 337.5z" />
<glyph unicode="4" d="M45 299v340l713 788h495v-860h267v-268h-267v-299h-397v299h-811zM375 567h481v539q-110 -145 -230.5 -279.5t-250.5 -259.5z" />
<glyph unicode="5" d="M115 405l409 1q8 -78 70.5 -121t167.5 -43q124 0 190 58t66 167q0 104 -63.5 164.5t-172.5 60.5q-90 0 -145 -29.5t-86 -95.5h-404l43 860h1139v-276h-774l-27 -342q76 67 168.5 98t216.5 31q257 0 400 -123.5t143 -345.5q0 -240 -176.5 -367t-511.5 -127 q-333 0 -492 105t-161 325z" />
<glyph unicode="6" d="M80 698q0 378 189 566t569 188q274 0 427 -97t181 -288h-436q-13 67 -66 101t-147 34q-138 0 -211.5 -82.5t-73.5 -236.5q0 -21 0.5 -31t1.5 -18q93 58 197 87t217 29q260 0 413.5 -128t153.5 -345q0 -237 -184.5 -369.5t-515.5 -132.5q-342 0 -528.5 189t-186.5 534z M530 467q0 -102 69 -159.5t192 -57.5q122 0 189 55t67 156q0 105 -67.5 166t-184.5 61q-121 0 -193 -60t-72 -161z" />
<glyph unicode="7" d="M119 1139v288h1294v-327l-659 -1100h-492l717 1139h-860z" />
<glyph unicode="8" d="M74 401q0 135 96.5 224t271.5 116q-159 31 -242 110t-83 200q0 188 174 293.5t487 105.5q312 0 485 -105t173 -294q0 -121 -83 -200t-241 -110q175 -27 271 -116t96 -224q0 -204 -182.5 -315t-520.5 -111q-337 0 -519.5 111t-182.5 315zM496 424q0 -92 72 -140t208 -48 q139 0 211 47.5t72 140.5q0 90 -75 141t-208 51t-206.5 -50.5t-73.5 -141.5zM532 1018q0 -80 60.5 -119t183.5 -39q124 0 185 39.5t61 118.5q0 85 -64 131.5t-180 46.5q-115 0 -180.5 -47t-65.5 -131z" />
<glyph unicode="9" d="M59 948q0 237 185 369.5t516 132.5q342 0 528.5 -188.5t186.5 -532.5q0 -378 -188.5 -566t-567.5 -188q-275 0 -429 97.5t-181 287.5h436q12 -67 65.5 -101t147.5 -34q138 0 212 82.5t74 237.5q0 18 -0.5 28.5t-1.5 18.5q-92 -58 -197 -87.5t-218 -29.5 q-261 0 -414.5 128t-153.5 345zM508 965q0 -105 67 -165.5t185 -60.5q121 0 192.5 59.5t71.5 159.5q0 103 -69 161.5t-191 58.5t-189 -56t-67 -157z" />
<glyph unicode=":" horiz-adv-x="825" d="M211 0v322h403v-322h-403zM211 707v321h403v-321h-403z" />
<glyph unicode=";" horiz-adv-x="825" d="M104 -233l156 526h393l-276 -526h-273zM211 707v321h403v-321h-403z" />
<glyph unicode="&#x3c;" horiz-adv-x="1706" d="M264 494v233l1178 487v-253l-854 -351l854 -348v-254z" />
<glyph unicode="=" horiz-adv-x="1706" d="M254 272v230h1198v-230h-1198zM254 719v231h1198v-231h-1198z" />
<glyph unicode="&#x3e;" horiz-adv-x="1706" d="M264 8v254l854 348l-854 351v253l1178 -487v-233z" />
<glyph unicode="?" horiz-adv-x="1262" d="M111 1165v283q117 22 230 32.5t224 10.5q309 0 468 -99t159 -292q0 -111 -52 -192.5t-177 -162.5q-16 -10 -47 -29q-222 -138 -222 -280v-16h-360q0 9 -1 27t-1 26q0 115 31.5 184.5t111.5 133.5q44 34 131 90q174 111 174 198q0 74 -68 113t-198 39q-100 0 -201 -16.5 t-202 -49.5zM322 0v313h383v-313h-383z" />
<glyph unicode="@" horiz-adv-x="2048" d="M82 520q0 169 53 320.5t156 277.5q148 183 359.5 278t467.5 95q170 0 320 -46t260 -132q136 -107 203 -243t67 -306q0 -167 -65.5 -307t-190.5 -240q-69 -56 -154 -85.5t-176 -29.5q-106 0 -161 40t-60 120q-56 -82 -126.5 -120t-168.5 -38q-163 0 -247 87.5t-84 257.5 q0 241 141.5 404t349.5 163q77 0 134 -30.5t95 -92.5l52 92h206l-153 -610q0 -2 -1 -6q-3 -18 -3 -27q0 -30 16 -44.5t47 -14.5q137 0 240.5 143.5t103.5 335.5q0 239 -179.5 390t-467.5 151q-148 0 -274 -36.5t-230 -109.5q-155 -110 -239 -274.5t-84 -356.5 q0 -302 203 -481.5t544 -179.5q164 0 316 47.5t280 138.5l97 -135q-156 -117 -329 -175t-364 -58q-192 0 -354.5 49t-288.5 145q-157 122 -234 281.5t-77 361.5zM778 444q0 -83 35 -128.5t98 -45.5q84 0 148 59t88 158l51 209q-9 76 -50 116t-110 40q-103 0 -181.5 -121.5 t-78.5 -286.5z" />
<glyph unicode="A" horiz-adv-x="1868" d="M-57 0l768 1475h499l723 -1475h-475l-131 299h-803l-137 -299h-444zM662 584h530l-252 567z" />
<glyph unicode="B" horiz-adv-x="1729" d="M166 0v1475h747q184 0 280 -11.5t163 -38.5q104 -39 162.5 -127.5t58.5 -205.5q0 -128 -77.5 -205.5t-244.5 -114.5q184 -11 281.5 -102.5t97.5 -253.5q0 -100 -38 -178t-113 -132q-80 -57 -202 -81.5t-368 -24.5h-747zM573 287h285q204 0 274 37.5t70 132.5 q0 91 -65.5 127.5t-278.5 36.5h-285v-334zM573 881h254q178 0 243 36t65 125q0 84 -60 117t-248 33h-254v-311z" />
<glyph unicode="C" horiz-adv-x="1712" d="M88 735q0 370 218.5 564t635.5 194q328 0 500.5 -125t195.5 -379h-421q-17 103 -93.5 156t-208.5 53q-204 0 -302.5 -111.5t-98.5 -343.5q0 -234 94.5 -350.5t284.5 -116.5q152 0 231.5 58t96.5 180h423q-9 -265 -192.5 -402t-529.5 -137q-407 0 -620.5 195t-213.5 565z " />
<glyph unicode="D" horiz-adv-x="1915" d="M166 0v1475h745q217 0 347 -25.5t233 -83.5q160 -90 246 -257t86 -388q0 -213 -82.5 -372.5t-237.5 -246.5q-97 -55 -218.5 -78.5t-373.5 -23.5h-745zM580 322h268q284 0 412.5 97t128.5 312q0 212 -134.5 316t-406.5 104h-268v-829z" />
<glyph unicode="E" horiz-adv-x="1518" d="M166 0v1475h1255v-314h-848v-256h807v-303h-807v-285h871v-317h-1278z" />
<glyph unicode="F" horiz-adv-x="1475" d="M166 0v1475h1249v-314h-837v-297h792v-311h-792v-553h-412z" />
<glyph unicode="G" horiz-adv-x="1849" d="M88 725q0 370 233 569t666 199q366 0 555.5 -122t204.5 -367h-451q-4 101 -89.5 160t-231.5 59q-218 0 -335.5 -123.5t-117.5 -351.5q0 -243 124.5 -365.5t371.5 -122.5q74 0 152 11t161 32v244h-370v276h786v-747q-161 -50 -340.5 -75.5t-376.5 -25.5q-470 0 -706 188.5 t-236 561.5z" />
<glyph unicode="H" horiz-adv-x="1907" d="M166 0v1475h418v-570h739v570h418v-1475h-418v596h-739v-596h-418z" />
<glyph unicode="I" horiz-adv-x="768" d="M172 0v1475h422v-1475h-422z" />
<glyph unicode="J" horiz-adv-x="1489" d="M47 520v17h422v-9q0 -140 52 -200t173 -60q126 0 175 72.5t49 292.5v842h419v-875q0 -318 -166 -471.5t-512 -153.5q-304 0 -458 137.5t-154 407.5z" />
<glyph unicode="K" horiz-adv-x="1636" d="M166 0v1475h418v-631l585 631h492l-633 -654l684 -821h-543l-585 750v-750h-418z" />
<glyph unicode="L" horiz-adv-x="1382" d="M166 0v1475h418v-1153h774v-322h-1192z" />
<glyph unicode="M" horiz-adv-x="2460" d="M162 0v1475h639l454 -1104l471 1104h574v-1475h-354v1180l-494 -1180h-442l-488 1180v-1180h-360z" />
<glyph unicode="N" horiz-adv-x="1913" d="M158 0v1475h547l675 -1061v1061h375v-1475h-549l-674 1057v-1057h-374z" />
<glyph unicode="O" horiz-adv-x="1952" d="M88 741q0 358 237.5 558t663.5 200q422 0 648.5 -200t226.5 -572q0 -367 -233.5 -560.5t-680.5 -193.5q-415 0 -638.5 199t-223.5 569zM518 723q0 -232 113.5 -348.5t339.5 -116.5q230 0 345.5 114.5t115.5 342.5q0 245 -119 373.5t-346 128.5q-213 0 -331 -130 t-118 -364z" />
<glyph unicode="P" horiz-adv-x="1597" d="M166 0v1475h762q166 0 259 -17t161 -55q100 -57 152 -160t52 -244t-53 -243t-156 -156q-73 -40 -171.5 -57t-317.5 -17h-33h-248v-526h-407zM573 811h254q175 0 240.5 42.5t65.5 147.5q0 102 -63.5 142.5t-242.5 40.5h-254v-373z" />
<glyph unicode="Q" horiz-adv-x="1987" d="M88 741q0 358 237.5 558t663.5 200q414 0 644.5 -198t230.5 -551q0 -165 -68 -290.5t-215 -232.5q69 32 162.5 47t218.5 15h25v-289h-469q-104 0 -286 -13.5t-259 -13.5q-432 0 -658.5 197t-226.5 571zM518 719q0 -234 113 -351.5t338 -117.5q231 0 347 114.5t116 344.5 q0 248 -119 378t-346 130q-213 0 -331 -131t-118 -367z" />
<glyph unicode="R" horiz-adv-x="1688" d="M166 0v1475h805q177 0 269 -14.5t161 -47.5q90 -44 139 -124t49 -183q0 -153 -100.5 -246t-302.5 -127q152 -2 229.5 -41.5t106.5 -128.5q15 -46 42.5 -236t69.5 -327h-434q-20 39 -36 151q-2 14 -3 22l-28 196q-18 120 -68.5 157t-243.5 37h-248v-563h-407zM573 846h261 q185 0 254 39.5t69 136.5q0 94 -64 131t-259 37h-261v-344z" />
<glyph unicode="S" horiz-adv-x="1589" d="M100 461v31h418v-15q0 -109 72 -161t223 -52q134 0 200 38.5t66 115.5q0 112 -306 167q-62 11 -95 17q-302 58 -424.5 156t-122.5 272q0 226 177.5 345.5t512.5 119.5q320 0 474 -107t167 -337h-397v4q0 81 -64.5 122.5t-191.5 41.5q-123 0 -189.5 -36t-66.5 -102 q0 -105 296 -160q52 -10 81 -16l17 -3q326 -63 431 -154q61 -53 93 -129.5t32 -167.5q0 -229 -184.5 -352.5t-527.5 -123.5q-346 0 -518.5 121t-172.5 365z" />
<glyph unicode="T" horiz-adv-x="1602" d="M33 1165v310h1536v-310h-559v-1165h-418v1165h-559z" />
<glyph unicode="U" horiz-adv-x="1907" d="M162 641v834h428v-832q0 -180 88 -268t268 -88q189 0 280 87.5t91 268.5v832h428v-834q0 -346 -192.5 -506t-608.5 -160q-198 0 -350 40t-246 116q-100 82 -143 197.5t-43 312.5z" />
<glyph unicode="V" horiz-adv-x="1716" d="M-16 1475h452l434 -1117l449 1117h414l-635 -1475h-504z" />
<glyph unicode="W" horiz-adv-x="2494" d="M2 1475h428l283 -1084l340 1084h469l303 -1113l289 1113h385l-424 -1475h-527l-286 1055l-324 -1055h-514z" />
<glyph unicode="X" horiz-adv-x="1743" d="M-61 0l675 776l-618 699h522l383 -469l379 469h477l-629 -699l670 -776h-536l-416 522l-414 -522h-493z" />
<glyph unicode="Y" horiz-adv-x="1548" d="M-98 1475h493l410 -611l391 611h455l-666 -951v-524h-418v530z" />
<glyph unicode="Z" horiz-adv-x="1636" d="M96 0v375l932 801h-870v299h1353v-379l-919 -789h944v-307h-1440z" />
<glyph unicode="[" horiz-adv-x="829" d="M180 -299v1796h588v-207h-258v-1390h258v-199h-588z" />
<glyph unicode="\" horiz-adv-x="834" d="M-12 1497h239l662 -1687h-242z" />
<glyph unicode="]" horiz-adv-x="829" d="M61 -100h261v1390h-261v207h588v-1796h-588v199z" />
<glyph unicode="^" horiz-adv-x="2048" d="M414 899l465 563h288l465 -563h-264l-344 342l-346 -342h-264z" />
<glyph unicode="_" horiz-adv-x="1024" d="M0 -244h1024v-239h-1024v239z" />
<glyph unicode="`" horiz-adv-x="1024" d="M94 1450h357l268 -285h-178z" />
<glyph unicode="a" horiz-adv-x="1440" d="M49 287q0 93 41 167t119 121q62 39 173.5 55.5t352.5 16.5h191q0 6 1 15.5t1 13.5q0 84 -49.5 128t-143.5 44q-107 0 -159 -29.5t-62 -95.5h-399q19 169 171.5 249.5t454.5 80.5q291 0 428.5 -96t137.5 -298v-524q0 -43 4.5 -75t15.5 -60h-366q-13 28 -19 61t-6 72v19 q-64 -86 -187 -131.5t-292 -45.5q-195 0 -301.5 81.5t-106.5 230.5zM459 313q0 -57 49 -85.5t147 -28.5q131 0 201 61t70 176v23h-31q-244 0 -340 -33t-96 -113z" />
<glyph unicode="b" horiz-adv-x="1587" d="M121 0q8 64 12 122t4 111v1242h393v-594q89 87 199 130.5t242 43.5q244 0 386 -143.5t142 -389.5q0 -258 -137.5 -402.5t-382.5 -144.5q-139 0 -253.5 55.5t-195.5 162.5v-33q0 -40 -3 -80t-9 -80h-397zM526 528q0 -149 75 -232t208 -83q136 0 211.5 86.5t75.5 243.5 q0 139 -76.5 222t-204.5 83q-141 0 -215 -81.5t-74 -238.5z" />
<glyph unicode="c" horiz-adv-x="1434" d="M72 498q0 266 175.5 412.5t497.5 146.5q278 0 433.5 -100t175.5 -291h-393q-13 84 -69 126t-157 42q-122 0 -189 -86.5t-67 -243.5q0 -142 65.5 -217.5t188.5 -75.5q112 0 170 48.5t60 141.5h405q-11 -215 -167.5 -319.5t-471.5 -104.5q-319 0 -488 134.5t-169 386.5z " />
<glyph unicode="d" horiz-adv-x="1587" d="M88 522q0 246 142 389.5t386 143.5q132 0 242 -43.5t199 -130.5v594h393v-1242q0 -53 4 -111t12 -122h-397q-6 40 -9 80t-3 80v33q-81 -108 -194.5 -163t-252.5 -55q-246 0 -384 144.5t-138 402.5zM494 543q0 -158 74 -244t210 -86q134 0 208.5 83t74.5 232 q0 157 -74 238.5t-215 81.5q-128 0 -203 -83t-75 -222z" />
<glyph unicode="e" horiz-adv-x="1417" d="M72 498q0 266 175.5 412.5t497.5 146.5q304 0 457.5 -149.5t153.5 -446.5v-35h-891q5 -110 77.5 -174t192.5 -64q93 0 150 37.5t65 102.5h385q-14 -173 -169.5 -263t-442.5 -90q-313 0 -482 135.5t-169 387.5zM467 635h501q-3 97 -69 152t-178 55q-113 0 -179.5 -54 t-74.5 -153z" />
<glyph unicode="f" horiz-adv-x="946" d="M12 784v244h236v141q0 168 109.5 247t344.5 79q67 0 127 -6.5t113 -20.5v-217q-8 1 -22 1q-69 3 -99 3q-108 0 -145 -28.5t-37 -108.5v-90h303v-244h-303v-784h-391v784h-236z" />
<glyph unicode="g" horiz-adv-x="1597" d="M96 539q0 240 146.5 377t402.5 137q121 0 229 -44.5t201 -134.5q0 45 3 83.5t9 70.5h385q-7 -56 -10.5 -114.5t-3.5 -118.5v-525q0 -198 -21.5 -293t-72.5 -163q-85 -111 -239 -164t-390 -53q-290 0 -435 90t-148 272h388q4 -69 56 -104t152 -35q162 0 239.5 75t77.5 232 v86q-76 -87 -186 -130.5t-252 -43.5q-238 0 -384.5 139t-146.5 361zM500 537q0 -123 76.5 -197t203.5 -74q141 0 215 73t74 212q0 132 -74.5 205t-210.5 73q-135 0 -209.5 -76.5t-74.5 -215.5z" />
<glyph unicode="h" horiz-adv-x="1542" d="M137 0v1475h393v-611q86 95 196 142t247 47q206 0 326 -110.5t120 -299.5v-643h-395v627q0 95 -59 144.5t-172 49.5q-129 0 -196 -76t-67 -223v-522h-393z" />
<glyph unicode="i" horiz-adv-x="653" d="M115 1186v289h424v-289h-424zM131 0v1028h393v-1028h-393z" />
<glyph unicode="j" horiz-adv-x="696" d="M-86 -131q14 0 38.5 -1t35.5 -1q55 0 88.5 8t54.5 27q23 19 32 61t9 180v885h393v-1008q0 -221 -114 -322t-363 -101q-55 0 -96 2.5t-78 9.5v260zM158 1186v289h422v-289h-422z" />
<glyph unicode="k" horiz-adv-x="1475" d="M131 0v1475h393v-877l488 430h469l-504 -444l555 -584h-508l-500 549v-549h-393z" />
<glyph unicode="l" horiz-adv-x="653" d="M131 0v1475h393v-1475h-393z" />
<glyph unicode="m" horiz-adv-x="2318" d="M125 1028h387q6 -41 10.5 -82.5t8.5 -82.5q85 94 192 142t233 48q142 0 235.5 -54t133.5 -159q73 105 179 159t241 54q218 0 334 -112.5t116 -324.5v-616h-391v627q0 93 -52 143.5t-146 50.5q-126 0 -186 -73t-60 -226v-522h-387v627q0 91 -52.5 142.5t-144.5 51.5 q-128 0 -190 -73t-62 -226v-522h-387v786q0 79 -3 135.5t-9 106.5z" />
<glyph unicode="n" horiz-adv-x="1542" d="M125 1028h395q5 -40 7.5 -81t2.5 -83q93 98 200 143.5t243 45.5q210 0 328 -112.5t118 -311.5v-629h-395v610q0 104 -55 157.5t-162 53.5q-140 0 -208.5 -73.5t-68.5 -225.5v-522h-393v786q0 79 -3 135.5t-9 106.5z" />
<glyph unicode="o" horiz-adv-x="1540" d="M72 516q0 261 179 400t517 139q340 0 519 -140t179 -403q0 -267 -179.5 -402t-534.5 -135q-331 0 -505.5 139t-174.5 402zM485 526q0 -156 73.5 -238.5t213.5 -82.5q131 0 207 85.5t76 233.5q0 150 -76.5 237t-208.5 87q-136 0 -210.5 -84t-74.5 -238z" />
<glyph unicode="p" horiz-adv-x="1587" d="M121 1028h397q6 -40 9 -80t3 -80v-32q82 107 196.5 163t252.5 56q245 0 382.5 -145t137.5 -404q0 -246 -142 -389.5t-386 -143.5q-132 0 -242 43.5t-199 130.5v-536h-393v1184q0 53 -4 111t-12 122zM526 500q0 -157 74 -238.5t215 -81.5q128 0 204.5 83t76.5 222 q0 157 -75.5 243.5t-211.5 86.5q-133 0 -208 -83t-75 -232z" />
<glyph unicode="q" horiz-adv-x="1587" d="M88 506q0 258 138.5 403.5t383.5 145.5q138 0 251.5 -56t195.5 -163v32q0 40 3 80t9 80h397q-8 -64 -12 -122t-4 -111v-1184h-393v536q-89 -87 -198.5 -130.5t-242.5 -43.5q-244 0 -386 143.5t-142 389.5zM494 485q0 -139 75 -222t203 -83q141 0 215 82.5t74 239.5 q0 148 -74.5 230.5t-208.5 82.5q-136 0 -210 -86t-74 -244z" />
<glyph unicode="r" horiz-adv-x="1010" d="M125 1028h385q4 -35 6 -73t2 -83v-47q60 109 161 162t247 53h41v-339q-31 5 -61 7.5t-62 2.5q-153 0 -233.5 -90t-80.5 -263v-358h-393v786q0 79 -3 135.5t-9 106.5z" />
<glyph unicode="s" horiz-adv-x="1294" d="M70 326h391q0 -66 49.5 -102t140.5 -36q85 0 131.5 28t46.5 79q0 82 -214 109q-38 5 -58 8q-262 34 -353 102.5t-91 212.5q0 159 133 242.5t385 83.5q298 0 433.5 -81t135.5 -257h-385v4q0 65 -41.5 96t-128.5 31q-74 0 -113.5 -22t-39.5 -62q0 -73 215 -107 q46 -8 71 -12q273 -45 357 -108.5t84 -194.5q0 -186 -142 -275.5t-438 -89.5q-291 0 -424 82.5t-145 268.5z" />
<glyph unicode="t" horiz-adv-x="999" d="M4 784v244h236v219l209 66q39 12 82.5 31t91.5 45v-361h323v-244h-323v-401q0 -80 35.5 -110.5t125.5 -30.5q27 0 63 2t99 8v-250q-62 -13 -125.5 -20t-128.5 -7q-233 0 -342.5 79t-109.5 247v483h-236z" />
<glyph unicode="u" horiz-adv-x="1542" d="M117 418v610h395v-596q0 -116 53.5 -170.5t167.5 -54.5q135 0 204 76t69 225v520h393v-784q0 -69 10 -220q2 -17 2 -24h-395q-5 42 -7.5 83t-2.5 81q-90 -93 -202.5 -141t-240.5 -48q-216 0 -331 114.5t-115 328.5z" />
<glyph unicode="v" horiz-adv-x="1389" d="M-37 1028h436l301 -743l304 743h419l-489 -1028h-488z" />
<glyph unicode="w" horiz-adv-x="2224" d="M-35 1028h422l242 -719l274 719h459l270 -719l266 719h363l-434 -1028h-443l-280 725l-266 -725h-461z" />
<glyph unicode="x" horiz-adv-x="1360" d="M-39 0l500 555l-432 473h489l197 -254l213 254h422l-432 -477l479 -551h-494l-246 322l-270 -322h-426z" />
<glyph unicode="y" horiz-adv-x="1366" d="M-33 1028h432l299 -682l320 682h377l-729 -1417h-410l233 405z" />
<glyph unicode="z" horiz-adv-x="1298" d="M92 0v293l633 498h-582v237h1039v-260l-647 -516h694v-252h-1137z" />
<glyph unicode="{" horiz-adv-x="1024" d="M152 410v241q6 0 18 -1t18 -1q118 0 168 55.5t50 188.5v254q0 136 24 193.5t82 89.5q48 25 120.5 37t180.5 12q12 0 38.5 -1t41.5 -1v-242q-7 0 -21 1t-20 1q-98 0 -132 -35.5t-34 -146.5v-240q0 -140 -46 -200t-165 -85q120 -24 165.5 -82.5t45.5 -199.5v-242 q0 -110 33.5 -145t130.5 -35q7 0 21.5 1t21.5 1v-242q-15 0 -42 -1t-40 -1q-108 0 -179.5 12t-119.5 37q-59 32 -82.5 88.5t-23.5 192.5v256q0 133 -49.5 187.5t-168.5 54.5q-4 0 -17 -1t-19 -1z" />
<glyph unicode="|" horiz-adv-x="1024" d="M393 -483v2048h240v-2048h-240z" />
<glyph unicode="}" horiz-adv-x="1024" d="M133 -172q9 0 23 -1t20 -1q97 0 130.5 34.5t33.5 145.5v242q0 140 46 199t165 83q-120 25 -165.5 84t-45.5 201v240q0 111 -33.5 146.5t-126.5 35.5q-7 0 -22.5 -1t-24.5 -1v242q15 0 41.5 1t38.5 1q108 0 180 -12t121 -37q58 -32 82.5 -89.5t24.5 -193.5v-254 q0 -134 49 -189t168 -55q6 0 18 1t18 1v-241q-6 0 -18 1t-18 1q-119 0 -168 -55t-49 -187v-256q0 -137 -24.5 -194.5t-82.5 -88.5q-45 -24 -113.5 -35.5t-177.5 -11.5q-14 0 -44 1t-46 1v242z" />
<glyph unicode="~" horiz-adv-x="1706" d="M178 401v254q112 73 207.5 108.5t179.5 35.5q63 0 126.5 -12t169.5 -46q16 -5 51 -17q159 -56 247 -56q84 0 173.5 36t197.5 115v-254q-101 -69 -194 -103t-183 -34q-45 0 -89 7.5t-83 21.5q-13 4 -38 13q-255 89 -382 89q-84 0 -175.5 -37.5t-207.5 -120.5z" />
<glyph unicode="&#xa0;" />
<glyph unicode="&#xa1;" horiz-adv-x="825" d="M190 0l64 1055h315l64 -1055h-443zM219 1157v318h383v-318h-383z" />
<glyph unicode="&#xa2;" d="M129 498q0 265 174.5 413t489.5 148q32 0 49 -0.5t32 -1.5l54 151h174l-60 -174q169 -37 262 -130.5t107 -239.5h-391q-8 42 -24 72.5t-40 49.5l-196 -575q6 0 19.5 -1t19.5 -1q114 0 167.5 47.5t53.5 146.5h405q-3 -204 -160.5 -316t-443.5 -112q-32 0 -67 1.5t-74 4.5 l-64 -186h-176l74 211q-181 43 -283 173t-102 319zM537 504q0 -72 18.5 -129.5t52.5 -93.5l191 555q-130 -7 -196 -90.5t-66 -241.5z" />
<glyph unicode="&#xa3;" d="M145 674v217h211q-1 10 -1.5 22t-0.5 35q0 260 143 381t447 121q286 0 439 -93.5t165 -275.5h-436q-8 65 -48 97t-114 32q-90 0 -133 -66t-43 -204q0 -8 1 -24.5t1 -24.5h344v-217h-344v-418h754v-256h-1352v256h180v418h-213z" />
<glyph unicode="&#xa4;" d="M-33 801l72 162h108q62 262 245.5 396t481.5 134q306 0 462 -117t184 -366h-424q-2 119 -63.5 180t-180.5 61q-117 0 -189.5 -73.5t-95.5 -214.5h449l-74 -162h-385q0 -9 -1 -28.5t-1 -29.5q0 -6 1.5 -32.5t2.5 -42.5h348l-71 -162h-269q31 -150 98.5 -219.5t180.5 -69.5 q123 0 180.5 64.5t65.5 214.5h428q-16 -257 -179 -389t-467 -132t-488.5 135t-238.5 396h-147l72 162h55v133h-160z" />
<glyph unicode="&#xa5;" horiz-adv-x="1567" d="M-98 1427h493l410 -589l391 589h455l-332 -456h248v-152h-359l-110 -153h469v-152h-582v-514h-418v514h-567v152h455l-109 153h-346v152h233z" />
<glyph unicode="&#xa6;" horiz-adv-x="1024" d="M393 -350v758h240v-758h-240zM393 674v758h240v-758h-240z" />
<glyph unicode="&#xa7;" horiz-adv-x="1255" d="M127 684q0 90 52.5 155.5t168.5 118.5q-100 51 -150.5 115.5t-50.5 143.5q0 132 123 206t344 74q97 0 205.5 -16.5t222.5 -48.5v-275q-115 46 -215 70t-172 24q-69 0 -106 -20.5t-37 -59.5q0 -54 199 -118q68 -22 108 -35q162 -54 232.5 -116.5t70.5 -149.5 q0 -90 -60 -154.5t-190 -114.5q133 -39 197 -105.5t64 -164.5q0 -152 -140 -234.5t-397 -82.5q-104 0 -212 17t-222 52v295q104 -58 205 -88.5t190 -30.5q99 0 152 27t53 76q0 65 -166 112q-65 19 -102 31q-229 74 -298 135t-69 162zM455 719q0 -38 43 -66t131 -49 q72 23 110.5 52t38.5 61q0 29 -43 56.5t-139 57.5q-66 -14 -103.5 -44.5t-37.5 -67.5z" />
<glyph unicode="&#xa8;" horiz-adv-x="1024" d="M139 1190v237h291v-237h-291zM594 1190v237h291v-237h-291z" />
<glyph unicode="&#xa9;" horiz-adv-x="1706" d="M106 737q0 148 57.5 285t164.5 246q105 106 238 161.5t286 55.5q154 0 289.5 -56t242.5 -163q106 -106 160.5 -240.5t54.5 -288.5q0 -153 -54 -287t-159 -237q-109 -108 -247 -165.5t-287 -57.5q-148 0 -283.5 57t-242.5 164t-163.5 241.5t-56.5 284.5zM242 737 q0 -119 47 -230.5t135 -199.5q87 -87 198 -133.5t232 -46.5t234 47t202 135q86 84 130 193t44 235q0 125 -45 235.5t-131 196.5q-88 89 -198.5 135t-235.5 46q-126 0 -235 -45.5t-195 -133.5q-88 -89 -135 -201t-47 -233zM446 731q0 207 111 329t299 122q157 0 257 -80 t108 -211h-213q-7 67 -47.5 104t-108.5 37q-83 0 -129.5 -77t-46.5 -216q0 -140 47.5 -212t138.5 -72q67 0 106.5 40.5t45.5 114.5h215q-6 -143 -107.5 -230t-263.5 -87q-190 0 -301 117.5t-111 320.5z" />
<glyph unicode="&#xaa;" horiz-adv-x="1079" d="M37 954q0 67 30.5 118t90.5 85q46 27 130.5 38t262.5 11h143q0 5 1 11.5t1 9.5q0 59 -37 90t-108 31q-81 0 -119 -20.5t-47 -67.5h-299q15 119 129 175t342 56q218 0 321 -67t103 -210v-366q0 -33 3.5 -54.5t10.5 -39.5h-274q-10 21 -14.5 43.5t-4.5 50.5v12 q-47 -60 -139 -91.5t-221 -31.5q-145 0 -225 57t-80 160zM344 973q0 -40 37 -60t111 -20q97 0 149.5 43t52.5 123v16h-22q-183 0 -255.5 -23t-72.5 -79z" />
<glyph unicode="&#xab;" horiz-adv-x="1214" d="M76 514l239 393h338l-227 -393l227 -393h-338zM604 514l240 393h338l-228 -393l228 -393h-338z" />
<glyph unicode="&#xac;" horiz-adv-x="1706" d="M254 639v227h1198v-501h-229v274h-969z" />
<glyph unicode="&#xad;" horiz-adv-x="909" d="M80 338v352h749v-352h-749z" />
<glyph unicode="&#xae;" horiz-adv-x="1706" d="M106 737q0 151 59 290t169 247q105 104 237 157.5t281 53.5q156 0 294 -57.5t245 -167.5q101 -104 154.5 -238t53.5 -285q0 -155 -56.5 -291t-164.5 -239q-109 -105 -245 -161t-281 -56q-151 0 -287 58t-243 169q-105 108 -160.5 241.5t-55.5 278.5zM244 737 q0 -121 44 -229t130 -195q87 -90 199 -138t235 -48q121 0 232.5 45.5t199.5 130.5t134 196.5t46 237.5q0 124 -44 233.5t-128 194.5q-89 91 -200.5 138t-237.5 47q-124 0 -232 -44t-194 -128q-90 -90 -137 -203t-47 -238zM537 344v819h329q174 0 264.5 -60t90.5 -177 q0 -81 -46 -139t-128 -82l182 -361h-248l-154 326h-65v-326h-225zM762 803h80q74 0 110.5 26.5t36.5 79.5q0 59 -38 86t-122 27h-67v-219z" />
<glyph unicode="&#xaf;" horiz-adv-x="1024" d="M139 1233v149h746v-149h-746z" />
<glyph unicode="&#xb0;" horiz-adv-x="674" d="M27 1155q0 131 90.5 221t220.5 90q129 0 220 -91t91 -220q0 -128 -91.5 -219.5t-221.5 -91.5q-129 0 -219 90.5t-90 220.5zM172 1157q0 -70 48 -118t118 -48q68 0 116 49t48 117t-48 116t-116 48q-69 0 -117.5 -48t-48.5 -116z" />
<glyph unicode="&#xb1;" horiz-adv-x="1706" d="M254 -18v231h1198v-231h-1198zM254 690v232h481v319h238v-319h479v-232h-479v-319h-238v319h-481z" />
<glyph unicode="&#xb2;" horiz-adv-x="1026" d="M55 571v183q114 51 222 109t210 122q94 59 125 98.5t31 87.5q0 52 -36 78.5t-107 26.5q-69 0 -103.5 -30.5t-36.5 -92.5h-278q0 142 105 215.5t309 73.5q206 0 321 -71.5t115 -199.5q0 -115 -114.5 -214.5t-393.5 -221.5h510v-164h-879z" />
<glyph unicode="&#xb3;" horiz-adv-x="1026" d="M43 825h285q2 -56 44 -85t122 -29q77 0 120 30t43 84q0 58 -43 84.5t-137 26.5q-14 0 -48 -3q-5 -1 -7 -1v155h16q103 0 150 23.5t47 75.5q0 49 -33.5 74.5t-97.5 25.5q-66 0 -103.5 -23.5t-44.5 -68.5h-280q11 121 118 184.5t300 63.5q207 0 316.5 -63t109.5 -183 q0 -76 -58 -123t-166 -59q120 -12 185 -66t65 -141q0 -127 -113 -188.5t-344 -61.5q-221 0 -331 66t-115 202z" />
<glyph unicode="&#xb4;" horiz-adv-x="1024" d="M305 1165l268 285h357l-447 -285h-178z" />
<glyph unicode="&#xb5;" horiz-adv-x="1315" d="M-45 -428l238 1518h358l-80 -529q-6 -41 -9 -77.5t-3 -65.5q0 -85 35.5 -127.5t107.5 -42.5q88 0 138.5 68.5t74.5 220.5l88 553h357l-175 -1090h-321l18 125q-40 -75 -89.5 -108t-119.5 -33q-59 0 -106.5 31t-77.5 89l-82 -532h-352z" />
<glyph unicode="&#xb6;" horiz-adv-x="1024" d="M29 1130q0 158 106 253.5t283 95.5h579v-123h-106v-1356h-176v1356h-150v-1356h-174v784q-164 6 -263 101t-99 245z" />
<glyph unicode="&#xb7;" horiz-adv-x="778" d="M207 715q0 75 53.5 127.5t130.5 52.5q75 0 127.5 -52.5t52.5 -127.5q0 -76 -52.5 -130.5t-127.5 -54.5q-77 0 -130.5 54t-53.5 131z" />
<glyph unicode="&#xb8;" horiz-adv-x="1024" d="M219 -281q112 -20 193 -29t151 -9q54 0 81.5 16.5t27.5 50.5q0 33 -34 47.5t-118 14.5q-28 0 -43.5 -0.5t-30.5 -1.5v192h111v-82h31q151 0 228 -44t77 -130q0 -89 -82 -134.5t-240 -45.5q-73 0 -162 9.5t-190 29.5v116z" />
<glyph unicode="&#xb9;" horiz-adv-x="1026" d="M176 1092v200q87 29 164.5 62.5t144.5 72.5h240v-856h-270v623q-57 -33 -127 -58.5t-152 -43.5z" />
<glyph unicode="&#xba;" horiz-adv-x="1155" d="M53 1114q0 184 134.5 281.5t387.5 97.5q255 0 390 -98t135 -283q0 -186 -135 -280.5t-402 -94.5q-248 0 -379 97t-131 280zM365 1122q0 -109 55 -167t160 -58q98 0 154.5 59.5t56.5 163.5q0 106 -57.5 167t-155.5 61q-103 0 -158 -59t-55 -167z" />
<glyph unicode="&#xbb;" horiz-adv-x="1214" d="M33 121l227 393l-227 393h336l241 -393l-241 -393h-336zM559 121l227 393l-227 393h338l242 -393l-242 -393h-338z" />
<glyph unicode="&#xbc;" horiz-adv-x="2302" d="M168 1112v186q90 32 162.5 63t132.5 64h227v-798h-258v579q-51 -28 -116.5 -51.5t-147.5 -42.5zM637 -25l817 1475h207l-817 -1475h-207zM1350 168v190l448 441h313v-482h166v-149h-166v-168h-251v168h-510zM1556 317h304v301q-70 -80 -145.5 -155t-158.5 -146z" />
<glyph unicode="&#xbd;" horiz-adv-x="2302" d="M168 1112v186q90 32 162.5 63t132.5 64h227v-798h-258v579q-51 -28 -116.5 -51.5t-147.5 -42.5zM637 -25l817 1475h207l-817 -1475h-207zM1374 0v170q112 50 214.5 104t197.5 113q91 56 120 92t29 80q0 49 -34.5 73.5t-102.5 24.5q-65 0 -98 -28t-35 -86h-266 q0 132 100 200t295 68q197 0 306.5 -66t109.5 -184q0 -108 -109 -201t-375 -206h486v-154h-838z" />
<glyph unicode="&#xbe;" horiz-adv-x="2300" d="M41 864h272q2 -52 42 -79t116 -27q74 0 115 27t41 77q0 55 -41 80t-131 25q-7 0 -24.5 -1t-27.5 -1v143h15q97 0 142.5 22.5t45.5 69.5q0 46 -31.5 70t-93.5 24t-98.5 -22t-42.5 -64h-268q11 112 113.5 171t285.5 59q197 0 301.5 -58.5t104.5 -169.5q0 -71 -55 -115 t-158 -55q115 -12 177 -62t62 -132q0 -118 -108 -176t-328 -58q-210 0 -315.5 62.5t-110.5 189.5zM637 -25l817 1475h207l-817 -1475h-207zM1350 168v190l448 441h313v-482h166v-149h-166v-168h-251v168h-510zM1556 317h304v301q-70 -80 -145.5 -155t-158.5 -146z" />
<glyph unicode="&#xbf;" horiz-adv-x="1262" d="M111 369q0 111 51.5 192.5t175.5 161.5q16 10 46 29q222 138 222 280v17h361q0 -10 1 -28t1 -26q0 -114 -31.5 -184t-112.5 -133q-44 -35 -130 -90q-175 -111 -175 -199q0 -74 69 -113.5t197 -39.5q98 0 199 16.5t205 50.5v-283q-124 -22 -236.5 -33.5t-218.5 -11.5 q-308 0 -466 100t-158 294zM596 1157v318h383v-318h-383z" />
<glyph unicode="&#xc0;" horiz-adv-x="1868" d="M-57 0l768 1475h499l723 -1475h-475l-131 299h-803l-137 -299h-444zM540 1896h357l268 -285h-178zM662 584h530l-252 567z" />
<glyph unicode="&#xc1;" horiz-adv-x="1868" d="M-57 0l768 1475h499l723 -1475h-475l-131 299h-803l-137 -299h-444zM662 584h530l-252 567zM751 1611l268 285h357l-447 -285h-178z" />
<glyph unicode="&#xc2;" horiz-adv-x="1868" d="M-57 0l768 1475h499l723 -1475h-475l-131 299h-803l-137 -299h-444zM542 1611l269 285h294l269 -285h-178l-238 160l-238 -160h-178zM662 584h530l-252 567z" />
<glyph unicode="&#xc3;" horiz-adv-x="1868" d="M-57 0l768 1475h499l723 -1475h-475l-131 299h-803l-137 -299h-444zM546 1630q33 110 98 164.5t167 54.5q22 0 43.5 -2t42.5 -6l163 -33q14 -3 31 -4.5t37 -1.5q43 0 72 19.5t43 58.5h127q-26 -108 -97.5 -167t-175.5 -59q-21 0 -40.5 2t-37.5 7l-173 32q-12 3 -25.5 4.5 t-28.5 1.5q-47 0 -76 -17t-45 -54h-125zM662 584h530l-252 567z" />
<glyph unicode="&#xc4;" horiz-adv-x="1868" d="M-57 0l768 1475h499l723 -1475h-475l-131 299h-803l-137 -299h-444zM585 1636v237h291v-237h-291zM662 584h530l-252 567zM1040 1636v237h291v-237h-291z" />
<glyph unicode="&#xc5;" horiz-adv-x="1868" d="M-57 0l768 1475h499l723 -1475h-475l-131 299h-803l-137 -299h-444zM631 1739q0 95 85 146.5t245 51.5q158 0 242.5 -51t84.5 -147t-84.5 -147.5t-242.5 -51.5q-160 0 -245 51.5t-85 147.5zM662 584h530l-252 567zM834 1741q0 -62 31 -91.5t96 -29.5q64 0 94 29.5 t30 91.5q0 61 -29.5 89t-94.5 28q-66 0 -96.5 -28.5t-30.5 -88.5z" />
<glyph unicode="&#xc6;" horiz-adv-x="2511" d="M-135 0l975 1475h1577v-314h-963l66 -256h854v-307h-777l72 -285h768v-313h-1108l-65 260h-770l-160 -260h-469zM664 545h528l-156 616z" />
<glyph unicode="&#xc7;" horiz-adv-x="1712" d="M88 735q0 370 218.5 564t635.5 194q328 0 500.5 -125t195.5 -379h-421q-17 103 -93.5 156t-208.5 53q-204 0 -302.5 -111.5t-98.5 -343.5q0 -234 94.5 -350.5t284.5 -116.5q152 0 231.5 58t96.5 180h423q-9 -265 -192.5 -402t-529.5 -137q-407 0 -620.5 195t-213.5 565z M563 -281q112 -20 193 -29t151 -9q54 0 81.5 16.5t27.5 50.5q0 33 -34 47.5t-118 14.5q-28 0 -43.5 -0.5t-30.5 -1.5v192h111v-82h31q151 0 228 -44t77 -130q0 -89 -82 -134.5t-240 -45.5q-73 0 -162 9.5t-190 29.5v116z" />
<glyph unicode="&#xc8;" horiz-adv-x="1518" d="M166 0v1475h1255v-314h-848v-256h807v-303h-807v-285h871v-317h-1278zM391 1896h357l268 -285h-178z" />
<glyph unicode="&#xc9;" horiz-adv-x="1518" d="M166 0v1475h1255v-314h-848v-256h807v-303h-807v-285h871v-317h-1278zM602 1611l268 285h357l-447 -285h-178z" />
<glyph unicode="&#xca;" horiz-adv-x="1518" d="M166 0v1475h1255v-314h-848v-256h807v-303h-807v-285h871v-317h-1278zM393 1611l269 285h294l269 -285h-178l-238 160l-238 -160h-178z" />
<glyph unicode="&#xcb;" horiz-adv-x="1518" d="M166 0v1475h1255v-314h-848v-256h807v-303h-807v-285h871v-317h-1278zM436 1636v237h291v-237h-291zM891 1636v237h291v-237h-291z" />
<glyph unicode="&#xcc;" horiz-adv-x="768" d="M-33 1896h357l268 -285h-178zM172 0v1475h422v-1475h-422z" />
<glyph unicode="&#xcd;" horiz-adv-x="768" d="M172 0v1475h422v-1475h-422zM178 1611l268 285h357l-447 -285h-178z" />
<glyph unicode="&#xce;" horiz-adv-x="768" d="M-31 1611l269 285h294l269 -285h-178l-238 160l-238 -160h-178zM172 0v1475h422v-1475h-422z" />
<glyph unicode="&#xcf;" horiz-adv-x="768" d="M12 1636v237h291v-237h-291zM172 0v1475h422v-1475h-422zM467 1636v237h291v-237h-291z" />
<glyph unicode="&#xd0;" horiz-adv-x="1925" d="M10 633v219h166v623h744q217 0 348 -25.5t233 -83.5q160 -90 246 -257t86 -388q0 -213 -82.5 -372.5t-237.5 -246.5q-97 -55 -218.5 -78.5t-374.5 -23.5h-744v633h-166zM588 322h270q284 0 412.5 97t128.5 312q0 212 -134.5 316t-406.5 104h-270v-299h336v-219h-336v-311 z" />
<glyph unicode="&#xd1;" horiz-adv-x="1913" d="M158 0v1475h547l675 -1061v1061h375v-1475h-549l-674 1057v-1057h-374zM544 1630q33 110 98 164.5t167 54.5q22 0 43.5 -2t42.5 -6l163 -33q14 -3 31 -4.5t37 -1.5q43 0 72 19.5t43 58.5h127q-26 -108 -97.5 -167t-175.5 -59q-21 0 -40.5 2t-37.5 7l-173 32 q-12 3 -25.5 4.5t-28.5 1.5q-47 0 -76 -17t-45 -54h-125z" />
<glyph unicode="&#xd2;" horiz-adv-x="1952" d="M88 741q0 358 237.5 558t663.5 200q422 0 648.5 -200t226.5 -572q0 -367 -233.5 -560.5t-680.5 -193.5q-415 0 -638.5 199t-223.5 569zM518 723q0 -232 113.5 -348.5t339.5 -116.5q230 0 345.5 114.5t115.5 342.5q0 245 -119 373.5t-346 128.5q-213 0 -331 -130 t-118 -364zM559 1896h357l268 -285h-178z" />
<glyph unicode="&#xd3;" horiz-adv-x="1952" d="M88 741q0 358 237.5 558t663.5 200q422 0 648.5 -200t226.5 -572q0 -367 -233.5 -560.5t-680.5 -193.5q-415 0 -638.5 199t-223.5 569zM518 723q0 -232 113.5 -348.5t339.5 -116.5q230 0 345.5 114.5t115.5 342.5q0 245 -119 373.5t-346 128.5q-213 0 -331 -130 t-118 -364zM770 1611l268 285h357l-447 -285h-178z" />
<glyph unicode="&#xd4;" horiz-adv-x="1952" d="M88 741q0 358 237.5 558t663.5 200q422 0 648.5 -200t226.5 -572q0 -367 -233.5 -560.5t-680.5 -193.5q-415 0 -638.5 199t-223.5 569zM518 723q0 -232 113.5 -348.5t339.5 -116.5q230 0 345.5 114.5t115.5 342.5q0 245 -119 373.5t-346 128.5q-213 0 -331 -130 t-118 -364zM561 1611l269 285h294l269 -285h-178l-238 160l-238 -160h-178z" />
<glyph unicode="&#xd5;" horiz-adv-x="1952" d="M88 741q0 358 237.5 558t663.5 200q422 0 648.5 -200t226.5 -572q0 -367 -233.5 -560.5t-680.5 -193.5q-415 0 -638.5 199t-223.5 569zM518 723q0 -232 113.5 -348.5t339.5 -116.5q230 0 345.5 114.5t115.5 342.5q0 245 -119 373.5t-346 128.5q-213 0 -331 -130 t-118 -364zM565 1630q33 110 98 164.5t167 54.5q22 0 43.5 -2t42.5 -6l163 -33q14 -3 31 -4.5t37 -1.5q43 0 72 19.5t43 58.5h127q-26 -108 -97.5 -167t-175.5 -59q-21 0 -40.5 2t-37.5 7l-173 32q-12 3 -25.5 4.5t-28.5 1.5q-47 0 -76 -17t-45 -54h-125z" />
<glyph unicode="&#xd6;" horiz-adv-x="1952" d="M88 741q0 358 237.5 558t663.5 200q422 0 648.5 -200t226.5 -572q0 -367 -233.5 -560.5t-680.5 -193.5q-415 0 -638.5 199t-223.5 569zM518 723q0 -232 113.5 -348.5t339.5 -116.5q230 0 345.5 114.5t115.5 342.5q0 245 -119 373.5t-346 128.5q-213 0 -331 -130 t-118 -364zM604 1636v237h291v-237h-291zM1059 1636v237h291v-237h-291z" />
<glyph unicode="&#xd7;" horiz-adv-x="1706" d="M268 170l441 440l-441 443l162 161l440 -440l441 440l162 -161l-441 -443l441 -440l-162 -162l-441 441l-440 -441z" />
<glyph unicode="&#xd8;" horiz-adv-x="1952" d="M88 731q0 366 234.5 567t662.5 201q144 0 263 -22t218 -66l183 207l112 -92l-166 -191q136 -96 202.5 -245t66.5 -355q0 -373 -233 -568.5t-681 -195.5q-147 0 -265 23.5t-212 71.5l-188 -209l-113 96l172 194q-131 103 -193.5 245t-62.5 339zM508 725q0 -103 19 -181 t57 -128l657 741q-56 35 -122.5 51.5t-151.5 16.5q-217 0 -338 -132t-121 -368zM690 313q55 -33 124 -50t151 -17q233 0 356 118t123 343q0 112 -24 200.5t-70 149.5z" />
<glyph unicode="&#xd9;" horiz-adv-x="1907" d="M162 641v834h428v-832q0 -180 88 -268t268 -88q189 0 280 87.5t91 268.5v832h428v-834q0 -346 -192.5 -506t-608.5 -160q-198 0 -350 40t-246 116q-100 82 -143 197.5t-43 312.5zM536 1896h357l268 -285h-178z" />
<glyph unicode="&#xda;" horiz-adv-x="1907" d="M162 641v834h428v-832q0 -180 88 -268t268 -88q189 0 280 87.5t91 268.5v832h428v-834q0 -346 -192.5 -506t-608.5 -160q-198 0 -350 40t-246 116q-100 82 -143 197.5t-43 312.5zM747 1611l268 285h357l-447 -285h-178z" />
<glyph unicode="&#xdb;" horiz-adv-x="1907" d="M162 641v834h428v-832q0 -180 88 -268t268 -88q189 0 280 87.5t91 268.5v832h428v-834q0 -346 -192.5 -506t-608.5 -160q-198 0 -350 40t-246 116q-100 82 -143 197.5t-43 312.5zM538 1611l269 285h294l269 -285h-178l-238 160l-238 -160h-178z" />
<glyph unicode="&#xdc;" horiz-adv-x="1907" d="M162 641v834h428v-832q0 -180 88 -268t268 -88q189 0 280 87.5t91 268.5v832h428v-834q0 -346 -192.5 -506t-608.5 -160q-198 0 -350 40t-246 116q-100 82 -143 197.5t-43 312.5zM581 1636v237h291v-237h-291zM1036 1636v237h291v-237h-291z" />
<glyph unicode="&#xdd;" horiz-adv-x="1548" d="M-98 1475h493l410 -611l391 611h455l-666 -951v-524h-418v530zM567 1611l268 285h357l-447 -285h-178z" />
<glyph unicode="&#xde;" horiz-adv-x="1597" d="M166 0v1475h407v-215h355q161 0 255.5 -17.5t164.5 -56.5q100 -56 152 -158.5t52 -243.5t-53 -244t-156 -157q-72 -38 -168 -55t-292 -17h-62h-248v-311h-407zM573 594h254q175 0 240.5 42.5t65.5 147.5q0 103 -65 144t-241 41h-254v-375z" />
<glyph unicode="&#xdf;" horiz-adv-x="1536" d="M135 0v975q0 144 16.5 212.5t55.5 117.5q76 94 201 142t297 48q246 0 392 -90.5t146 -241.5q0 -66 -27.5 -113.5t-97.5 -99.5q-8 -6 -24 -17q-109 -77 -109 -130q0 -64 169 -131q28 -11 42 -17q185 -74 249 -146.5t64 -189.5q0 -171 -112 -257.5t-334 -86.5 q-232 0 -340.5 78t-108.5 246v10h332v-6q0 -59 32 -89t95 -30q49 0 79 28.5t30 74.5q0 88 -176 149q-55 19 -86 31q-152 58 -224.5 134t-72.5 177q0 58 25.5 100.5t91.5 88.5q10 7 29 20q101 68 101 129q0 71 -49 116.5t-127 45.5q-92 0 -133 -47t-41 -156v-1075h-385z" />
<glyph unicode="&#xe0;" horiz-adv-x="1440" d="M49 287q0 93 41 167t119 121q62 39 173.5 55.5t352.5 16.5h191q0 6 1 15.5t1 13.5q0 84 -49.5 128t-143.5 44q-107 0 -159 -29.5t-62 -95.5h-399q19 169 171.5 249.5t454.5 80.5q291 0 428.5 -96t137.5 -298v-524q0 -43 4.5 -75t15.5 -60h-366q-13 28 -19 61t-6 72v19 q-64 -86 -187 -131.5t-292 -45.5q-195 0 -301.5 81.5t-106.5 230.5zM303 1450h357l268 -285h-178zM459 313q0 -57 49 -85.5t147 -28.5q131 0 201 61t70 176v23h-31q-244 0 -340 -33t-96 -113z" />
<glyph unicode="&#xe1;" horiz-adv-x="1440" d="M49 287q0 93 41 167t119 121q62 39 173.5 55.5t352.5 16.5h191q0 6 1 15.5t1 13.5q0 84 -49.5 128t-143.5 44q-107 0 -159 -29.5t-62 -95.5h-399q19 169 171.5 249.5t454.5 80.5q291 0 428.5 -96t137.5 -298v-524q0 -43 4.5 -75t15.5 -60h-366q-13 28 -19 61t-6 72v19 q-64 -86 -187 -131.5t-292 -45.5q-195 0 -301.5 81.5t-106.5 230.5zM459 313q0 -57 49 -85.5t147 -28.5q131 0 201 61t70 176v23h-31q-244 0 -340 -33t-96 -113zM514 1165l268 285h357l-447 -285h-178z" />
<glyph unicode="&#xe2;" horiz-adv-x="1440" d="M49 287q0 93 41 167t119 121q62 39 173.5 55.5t352.5 16.5h191q0 6 1 15.5t1 13.5q0 84 -49.5 128t-143.5 44q-107 0 -159 -29.5t-62 -95.5h-399q19 169 171.5 249.5t454.5 80.5q291 0 428.5 -96t137.5 -298v-524q0 -43 4.5 -75t15.5 -60h-366q-13 28 -19 61t-6 72v19 q-64 -86 -187 -131.5t-292 -45.5q-195 0 -301.5 81.5t-106.5 230.5zM305 1165l269 285h294l269 -285h-178l-238 160l-238 -160h-178zM459 313q0 -57 49 -85.5t147 -28.5q131 0 201 61t70 176v23h-31q-244 0 -340 -33t-96 -113z" />
<glyph unicode="&#xe3;" horiz-adv-x="1440" d="M49 287q0 93 41 167t119 121q62 39 173.5 55.5t352.5 16.5h191q0 6 1 15.5t1 13.5q0 84 -49.5 128t-143.5 44q-107 0 -159 -29.5t-62 -95.5h-399q19 169 171.5 249.5t454.5 80.5q291 0 428.5 -96t137.5 -298v-524q0 -43 4.5 -75t15.5 -60h-366q-13 28 -19 61t-6 72v19 q-64 -86 -187 -131.5t-292 -45.5q-195 0 -301.5 81.5t-106.5 230.5zM309 1184q33 110 98 164.5t167 54.5q22 0 43.5 -2t42.5 -6l163 -33q14 -3 31 -4.5t37 -1.5q43 0 72 19.5t43 58.5h127q-26 -108 -97.5 -167t-175.5 -59q-21 0 -40.5 2t-37.5 7l-173 32q-12 3 -25.5 4.5 t-28.5 1.5q-47 0 -76 -17t-45 -54h-125zM459 313q0 -57 49 -85.5t147 -28.5q131 0 201 61t70 176v23h-31q-244 0 -340 -33t-96 -113z" />
<glyph unicode="&#xe4;" horiz-adv-x="1440" d="M49 287q0 93 41 167t119 121q62 39 173.5 55.5t352.5 16.5h191q0 6 1 15.5t1 13.5q0 84 -49.5 128t-143.5 44q-107 0 -159 -29.5t-62 -95.5h-399q19 169 171.5 249.5t454.5 80.5q291 0 428.5 -96t137.5 -298v-524q0 -43 4.5 -75t15.5 -60h-366q-13 28 -19 61t-6 72v19 q-64 -86 -187 -131.5t-292 -45.5q-195 0 -301.5 81.5t-106.5 230.5zM348 1190v237h291v-237h-291zM459 313q0 -57 49 -85.5t147 -28.5q131 0 201 61t70 176v23h-31q-244 0 -340 -33t-96 -113zM803 1190v237h291v-237h-291z" />
<glyph unicode="&#xe5;" horiz-adv-x="1440" d="M49 287q0 93 41 167t119 121q62 39 173.5 55.5t352.5 16.5h191q0 6 1 15.5t1 13.5q0 84 -49.5 128t-143.5 44q-107 0 -159 -29.5t-62 -95.5h-399q19 169 171.5 249.5t454.5 80.5q291 0 428.5 -96t137.5 -298v-524q0 -43 4.5 -75t15.5 -60h-366q-13 28 -19 61t-6 72v19 q-64 -86 -187 -131.5t-292 -45.5q-195 0 -301.5 81.5t-106.5 230.5zM410 1319q0 96 84.5 147.5t242.5 51.5q159 0 244.5 -51.5t85.5 -147.5t-85.5 -147.5t-244.5 -51.5q-158 0 -242.5 51.5t-84.5 147.5zM459 313q0 -57 49 -85.5t147 -28.5q131 0 201 61t70 176v23h-31 q-244 0 -340 -33t-96 -113zM612 1319q0 -62 30.5 -90.5t94.5 -28.5q65 0 96 29t31 90t-31 90t-96 29q-64 0 -94.5 -29t-30.5 -90z" />
<glyph unicode="&#xe6;" horiz-adv-x="2245" d="M45 285q0 88 41.5 157t122.5 115q68 39 177 55.5t349 16.5l190 2q2 8 2.5 16t0.5 23q0 93 -51.5 135.5t-163.5 42.5q-90 0 -139.5 -31t-59.5 -94h-399q20 166 164.5 248t414.5 82q177 0 276 -32.5t169 -107.5q77 71 191 105.5t267 34.5q298 0 449.5 -148t151.5 -440v-6 h-891v-4q0 -126 73.5 -198.5t202.5 -72.5q86 0 143.5 40t65.5 104h385q-11 -165 -162 -259t-407 -94q-197 0 -320 46.5t-184 144.5q-94 -96 -238 -143.5t-342 -47.5q-238 0 -358.5 78t-120.5 232zM459 313q0 -57 49 -85.5t147 -28.5q131 0 201 61t70 176v23h-33 q-246 0 -340 -33t-94 -113zM1309 629h501q-1 96 -70 154.5t-184 58.5q-110 0 -177 -58t-70 -155z" />
<glyph unicode="&#xe7;" horiz-adv-x="1434" d="M72 498q0 266 175.5 412.5t497.5 146.5q278 0 433.5 -100t175.5 -291h-393q-13 84 -69 126t-157 42q-122 0 -189 -86.5t-67 -243.5q0 -142 65.5 -217.5t188.5 -75.5q112 0 170 48.5t60 141.5h405q-11 -215 -167.5 -319.5t-471.5 -104.5q-319 0 -488 134.5t-169 386.5z M424 -281q112 -20 193 -29t151 -9q54 0 81.5 16.5t27.5 50.5q0 33 -34 47.5t-118 14.5q-28 0 -43.5 -0.5t-30.5 -1.5v192h111v-82h31q151 0 228 -44t77 -130q0 -89 -82 -134.5t-240 -45.5q-73 0 -162 9.5t-190 29.5v116z" />
<glyph unicode="&#xe8;" horiz-adv-x="1417" d="M72 498q0 266 175.5 412.5t497.5 146.5q304 0 457.5 -149.5t153.5 -446.5v-35h-891q5 -110 77.5 -174t192.5 -64q93 0 150 37.5t65 102.5h385q-14 -173 -169.5 -263t-442.5 -90q-313 0 -482 135.5t-169 387.5zM317 1450h357l268 -285h-178zM467 635h501q-3 97 -69 152 t-178 55q-113 0 -179.5 -54t-74.5 -153z" />
<glyph unicode="&#xe9;" horiz-adv-x="1417" d="M72 498q0 266 175.5 412.5t497.5 146.5q304 0 457.5 -149.5t153.5 -446.5v-35h-891q5 -110 77.5 -174t192.5 -64q93 0 150 37.5t65 102.5h385q-14 -173 -169.5 -263t-442.5 -90q-313 0 -482 135.5t-169 387.5zM467 635h501q-3 97 -69 152t-178 55q-113 0 -179.5 -54 t-74.5 -153zM528 1165l268 285h357l-447 -285h-178z" />
<glyph unicode="&#xea;" horiz-adv-x="1417" d="M72 498q0 266 175.5 412.5t497.5 146.5q304 0 457.5 -149.5t153.5 -446.5v-35h-891q5 -110 77.5 -174t192.5 -64q93 0 150 37.5t65 102.5h385q-14 -173 -169.5 -263t-442.5 -90q-313 0 -482 135.5t-169 387.5zM319 1165l269 285h294l269 -285h-178l-238 160l-238 -160 h-178zM467 635h501q-3 97 -69 152t-178 55q-113 0 -179.5 -54t-74.5 -153z" />
<glyph unicode="&#xeb;" horiz-adv-x="1417" d="M72 498q0 266 175.5 412.5t497.5 146.5q304 0 457.5 -149.5t153.5 -446.5v-35h-891q5 -110 77.5 -174t192.5 -64q93 0 150 37.5t65 102.5h385q-14 -173 -169.5 -263t-442.5 -90q-313 0 -482 135.5t-169 387.5zM362 1190v237h291v-237h-291zM467 635h501q-3 97 -69 152 t-178 55q-113 0 -179.5 -54t-74.5 -153zM817 1190v237h291v-237h-291z" />
<glyph unicode="&#xec;" horiz-adv-x="653" d="M-90 1450h357l268 -285h-178zM131 0v1028h393v-1028h-393z" />
<glyph unicode="&#xed;" horiz-adv-x="653" d="M121 1165l268 285h357l-447 -285h-178zM131 0v1028h393v-1028h-393z" />
<glyph unicode="&#xee;" horiz-adv-x="653" d="M-88 1165l269 285h294l269 -285h-178l-238 160l-238 -160h-178zM131 0v1028h393v-1028h-393z" />
<glyph unicode="&#xef;" horiz-adv-x="653" d="M-45 1190v237h291v-237h-291zM131 0v1028h393v-1028h-393zM410 1190v237h291v-237h-291z" />
<glyph unicode="&#xf0;" horiz-adv-x="1540" d="M72 494q0 249 177.5 384.5t506.5 135.5q47 0 151 -8h6q-31 47 -60 85.5t-58 71.5l-465 -104l-31 133l393 90l-71 80l186 178l211 -197l346 72l31 -131l-271 -57q179 -202 260.5 -378t81.5 -357q0 -257 -180 -387t-536 -130q-331 0 -504.5 133t-173.5 386zM485 506 q0 -144 73 -222.5t206 -78.5q138 0 214.5 79.5t76.5 223.5q0 138 -77 218.5t-208 80.5q-136 0 -210.5 -78.5t-74.5 -222.5z" />
<glyph unicode="&#xf1;" horiz-adv-x="1542" d="M125 1028h395q5 -40 7.5 -81t2.5 -83q93 98 200 143.5t243 45.5q210 0 328 -112.5t118 -311.5v-629h-395v610q0 104 -55 157.5t-162 53.5q-140 0 -208.5 -73.5t-68.5 -225.5v-522h-393v786q0 79 -3 135.5t-9 106.5zM379 1184q33 110 98 164.5t167 54.5q22 0 43.5 -2 t42.5 -6l163 -33q14 -3 31 -4.5t37 -1.5q43 0 72 19.5t43 58.5h127q-26 -108 -97.5 -167t-175.5 -59q-21 0 -40.5 2t-37.5 7l-173 32q-12 3 -25.5 4.5t-28.5 1.5q-47 0 -76 -17t-45 -54h-125z" />
<glyph unicode="&#xf2;" horiz-adv-x="1540" d="M72 516q0 261 179 400t517 139q340 0 519 -140t179 -403q0 -267 -179.5 -402t-534.5 -135q-331 0 -505.5 139t-174.5 402zM352 1450h357l268 -285h-178zM485 526q0 -156 73.5 -238.5t213.5 -82.5q131 0 207 85.5t76 233.5q0 150 -76.5 237t-208.5 87q-136 0 -210.5 -84 t-74.5 -238z" />
<glyph unicode="&#xf3;" horiz-adv-x="1540" d="M72 516q0 261 179 400t517 139q340 0 519 -140t179 -403q0 -267 -179.5 -402t-534.5 -135q-331 0 -505.5 139t-174.5 402zM485 526q0 -156 73.5 -238.5t213.5 -82.5q131 0 207 85.5t76 233.5q0 150 -76.5 237t-208.5 87q-136 0 -210.5 -84t-74.5 -238zM563 1165l268 285 h357l-447 -285h-178z" />
<glyph unicode="&#xf4;" horiz-adv-x="1540" d="M72 516q0 261 179 400t517 139q340 0 519 -140t179 -403q0 -267 -179.5 -402t-534.5 -135q-331 0 -505.5 139t-174.5 402zM354 1165l269 285h294l269 -285h-178l-238 160l-238 -160h-178zM485 526q0 -156 73.5 -238.5t213.5 -82.5q131 0 207 85.5t76 233.5 q0 150 -76.5 237t-208.5 87q-136 0 -210.5 -84t-74.5 -238z" />
<glyph unicode="&#xf5;" horiz-adv-x="1540" d="M72 516q0 261 179 400t517 139q340 0 519 -140t179 -403q0 -267 -179.5 -402t-534.5 -135q-331 0 -505.5 139t-174.5 402zM358 1184q33 110 98 164.5t167 54.5q22 0 43.5 -2t42.5 -6l163 -33q14 -3 31 -4.5t37 -1.5q43 0 72 19.5t43 58.5h127q-26 -108 -97.5 -167 t-175.5 -59q-21 0 -40.5 2t-37.5 7l-173 32q-12 3 -25.5 4.5t-28.5 1.5q-47 0 -76 -17t-45 -54h-125zM485 526q0 -156 73.5 -238.5t213.5 -82.5q131 0 207 85.5t76 233.5q0 150 -76.5 237t-208.5 87q-136 0 -210.5 -84t-74.5 -238z" />
<glyph unicode="&#xf6;" horiz-adv-x="1540" d="M72 516q0 261 179 400t517 139q340 0 519 -140t179 -403q0 -267 -179.5 -402t-534.5 -135q-331 0 -505.5 139t-174.5 402zM397 1190v237h291v-237h-291zM485 526q0 -156 73.5 -238.5t213.5 -82.5q131 0 207 85.5t76 233.5q0 150 -76.5 237t-208.5 87q-136 0 -210.5 -84 t-74.5 -238zM852 1190v237h291v-237h-291z" />
<glyph unicode="&#xf7;" horiz-adv-x="1706" d="M254 496v231h1198v-231h-1198zM688 205q0 68 49 117t117 49t116 -48.5t48 -117.5q0 -68 -47.5 -116t-116.5 -48t-117.5 48t-48.5 116zM688 1016q0 68 49 117t117 49q67 0 115.5 -49t48.5 -117t-48.5 -116t-117.5 -48t-116.5 48t-47.5 116z" />
<glyph unicode="&#xf8;" horiz-adv-x="1540" d="M74 508q0 265 179 407t515 142q90 0 172 -11.5t158 -33.5l162 174l108 -92l-135 -142q117 -73 174 -180.5t57 -253.5q0 -270 -178.5 -408.5t-527.5 -138.5q-103 0 -194 14.5t-171 43.5l-160 -172l-106 94l137 145q-96 76 -143 177.5t-47 234.5zM475 520q0 -45 6.5 -84.5 t20.5 -77.5l424 461q-34 20 -72 29.5t-84 9.5q-141 0 -218 -87.5t-77 -250.5zM592 244q31 -25 76.5 -37t103.5 -12q135 0 215 88.5t80 238.5q0 55 -11.5 104.5t-33.5 92.5z" />
<glyph unicode="&#xf9;" horiz-adv-x="1542" d="M117 418v610h395v-596q0 -116 53.5 -170.5t167.5 -54.5q135 0 204 76t69 225v520h393v-784q0 -69 10 -220q2 -17 2 -24h-395q-5 42 -7.5 83t-2.5 81q-90 -93 -202.5 -141t-240.5 -48q-216 0 -331 114.5t-115 328.5zM354 1450h357l268 -285h-178z" />
<glyph unicode="&#xfa;" horiz-adv-x="1542" d="M117 418v610h395v-596q0 -116 53.5 -170.5t167.5 -54.5q135 0 204 76t69 225v520h393v-784q0 -69 10 -220q2 -17 2 -24h-395q-5 42 -7.5 83t-2.5 81q-90 -93 -202.5 -141t-240.5 -48q-216 0 -331 114.5t-115 328.5zM565 1165l268 285h357l-447 -285h-178z" />
<glyph unicode="&#xfb;" horiz-adv-x="1542" d="M117 418v610h395v-596q0 -116 53.5 -170.5t167.5 -54.5q135 0 204 76t69 225v520h393v-784q0 -69 10 -220q2 -17 2 -24h-395q-5 42 -7.5 83t-2.5 81q-90 -93 -202.5 -141t-240.5 -48q-216 0 -331 114.5t-115 328.5zM356 1165l269 285h294l269 -285h-178l-238 160 l-238 -160h-178z" />
<glyph unicode="&#xfc;" horiz-adv-x="1542" d="M117 418v610h395v-596q0 -116 53.5 -170.5t167.5 -54.5q135 0 204 76t69 225v520h393v-784q0 -69 10 -220q2 -17 2 -24h-395q-5 42 -7.5 83t-2.5 81q-90 -93 -202.5 -141t-240.5 -48q-216 0 -331 114.5t-115 328.5zM399 1190v237h291v-237h-291zM854 1190v237h291v-237 h-291z" />
<glyph unicode="&#xfd;" horiz-adv-x="1366" d="M-33 1028h432l299 -682l320 682h377l-729 -1417h-410l233 405zM477 1165l268 285h357l-447 -285h-178z" />
<glyph unicode="&#xfe;" horiz-adv-x="1587" d="M137 -389v1864h393v-639q84 108 197.5 163.5t251.5 55.5q244 0 382 -145.5t138 -403.5q0 -246 -142 -389.5t-386 -143.5q-132 0 -242 43.5t-199 130.5v-536h-393zM526 500q0 -157 74 -238.5t215 -81.5q132 0 206.5 84.5t74.5 235.5q0 144 -78 229.5t-209 85.5 q-134 0 -208.5 -82.5t-74.5 -232.5z" />
<glyph unicode="&#xff;" horiz-adv-x="1366" d="M-33 1028h432l299 -682l320 682h377l-729 -1417h-410l233 405zM311 1190v237h291v-237h-291zM766 1190v237h291v-237h-291z" />
<glyph unicode="&#x152;" horiz-adv-x="2660" d="M88 752q0 352 214.5 544.5t608.5 192.5q78 0 209.5 -7t186.5 -7h1257v-314h-850v-256h807v-303h-807v-285h871v-317h-1196q-31 0 -189.5 -9t-286.5 -9q-198 0 -339.5 42t-241.5 130q-119 104 -181.5 257.5t-62.5 340.5zM512 741q0 -233 115 -347.5t350 -114.5 q73 0 153.5 7t169.5 21v871q-84 14 -160.5 21t-146.5 7q-239 0 -360 -116.5t-121 -348.5z" />
<glyph unicode="&#x153;" horiz-adv-x="2376" d="M72 528q0 246 182.5 386.5t501.5 140.5q163 0 285 -38.5t214 -119.5q84 79 202 117.5t276 38.5q294 0 444 -150t150 -444v-29h-891q3 -111 75.5 -176.5t194.5 -65.5q93 0 150 37.5t65 102.5h385q-13 -167 -164 -260t-411 -93q-167 0 -286.5 37.5t-197.5 114.5 q-88 -79 -211 -117.5t-286 -38.5q-330 0 -504 143.5t-174 413.5zM485 526q0 -156 72 -238.5t209 -82.5q128 0 202 85.5t74 233.5q0 150 -74.5 237t-203.5 87q-133 0 -206 -84.5t-73 -237.5zM1438 635h501q-3 97 -69 152t-178 55q-113 0 -181 -55.5t-73 -151.5z" />
<glyph unicode="&#x178;" horiz-adv-x="1548" d="M-98 1475h493l410 -611l391 611h455l-666 -951v-524h-418v530zM401 1636v237h291v-237h-291zM856 1636v237h291v-237h-291z" />
<glyph unicode="&#x2c6;" horiz-adv-x="1024" d="M96 1165l269 285h294l269 -285h-178l-238 160l-238 -160h-178z" />
<glyph unicode="&#x2dc;" horiz-adv-x="1024" d="M100 1184q33 110 98 164.5t167 54.5q22 0 43.5 -2t42.5 -6l163 -33q14 -3 31 -4.5t37 -1.5q43 0 72 19.5t43 58.5h127q-26 -108 -97.5 -167t-175.5 -59q-21 0 -40.5 2t-37.5 7l-173 32q-12 3 -25.5 4.5t-28.5 1.5q-47 0 -76 -17t-45 -54h-125z" />
<glyph unicode="&#x2000;" horiz-adv-x="968" />
<glyph unicode="&#x2001;" horiz-adv-x="1937" />
<glyph unicode="&#x2002;" horiz-adv-x="968" />
<glyph unicode="&#x2003;" horiz-adv-x="1937" />
<glyph unicode="&#x2004;" horiz-adv-x="645" />
<glyph unicode="&#x2005;" horiz-adv-x="484" />
<glyph unicode="&#x2006;" horiz-adv-x="322" />
<glyph unicode="&#x2007;" horiz-adv-x="322" />
<glyph unicode="&#x2008;" horiz-adv-x="242" />
<glyph unicode="&#x2009;" horiz-adv-x="387" />
<glyph unicode="&#x200a;" horiz-adv-x="107" />
<glyph unicode="&#x2010;" horiz-adv-x="909" d="M80 338v352h749v-352h-749z" />
<glyph unicode="&#x2011;" horiz-adv-x="909" d="M80 338v352h749v-352h-749z" />
<glyph unicode="&#x2012;" horiz-adv-x="909" d="M80 338v352h749v-352h-749z" />
<glyph unicode="&#x2013;" horiz-adv-x="1024" d="M0 383v262h1024v-262h-1024z" />
<glyph unicode="&#x2014;" horiz-adv-x="2048" d="M0 383v262h2048v-262h-2048z" />
<glyph unicode="&#x2018;" horiz-adv-x="778" d="M90 948l279 527h270l-154 -527h-395z" />
<glyph unicode="&#x2019;" horiz-adv-x="778" d="M113 948l155 527h394l-279 -527h-270z" />
<glyph unicode="&#x201a;" horiz-adv-x="778" d="M86 -231l156 526h395l-279 -526h-272z" />
<glyph unicode="&#x201c;" horiz-adv-x="1290" d="M106 948l279 527h272l-155 -527h-396zM610 948l279 527h272l-155 -527h-396z" />
<glyph unicode="&#x201d;" horiz-adv-x="1290" d="M123 948l156 527h395l-279 -527h-272zM627 948l155 527h396l-279 -527h-272z" />
<glyph unicode="&#x201e;" horiz-adv-x="1290" d="M119 -190l155 526h396l-279 -526h-272zM623 -190l155 526h396l-279 -526h-272z" />
<glyph unicode="&#x2022;" horiz-adv-x="1208" d="M307 762q0 123 87 209t210 86q122 0 208.5 -86.5t86.5 -208.5t-87.5 -209.5t-209.5 -87.5q-123 0 -209 87t-86 210z" />
<glyph unicode="&#x2026;" horiz-adv-x="2048" d="M139 0v322h404v-322h-404zM821 0v322h404v-322h-404zM1505 0v322h404v-322h-404z" />
<glyph unicode="&#x202f;" horiz-adv-x="387" />
<glyph unicode="&#x2039;" horiz-adv-x="682" d="M76 514l239 393h338l-227 -393l227 -393h-338z" />
<glyph unicode="&#x203a;" horiz-adv-x="682" d="M29 121l227 393l-227 393h338l239 -393l-239 -393h-338z" />
<glyph unicode="&#x205f;" horiz-adv-x="484" />
<glyph unicode="&#x20ac;" d="M-33 801l72 162h108q62 262 245.5 396t481.5 134q306 0 462 -117t184 -366h-424q-2 119 -63.5 180t-180.5 61q-117 0 -189.5 -73.5t-95.5 -214.5h449l-74 -162h-385q0 -9 -1 -28.5t-1 -29.5q0 -6 1.5 -32.5t2.5 -42.5h348l-71 -162h-269q31 -150 98.5 -219.5t180.5 -69.5 q123 0 180.5 64.5t65.5 214.5h428q-16 -257 -179 -389t-467 -132t-488.5 135t-238.5 396h-147l72 162h55v133h-160z" />
<glyph unicode="&#x2122;" horiz-adv-x="1706" d="M188 1337v127h502v-127h-164v-424h-174v424h-164zM797 913v551h223l113 -303l114 303h221v-551h-155v390l-146 -390h-65l-150 390v-390h-155z" />
<glyph unicode="&#x25fc;" horiz-adv-x="1030" d="M0 0v1030h1030v-1030h-1030z" />
</font>
</defs>
</svg>
