<?xml version="1.0" standalone="no"?>
<!DOCTYPE svg PUBLIC "-//W3C//DTD SVG 1.1//EN" "http://www.w3.org/Graphics/SVG/1.1/DTD/svg11.dtd" >
<svg xmlns="http://www.w3.org/2000/svg">
<metadata></metadata>
<defs>
<font id="zurich_cn_btitalic" horiz-adv-x="981" >
<font-face units-per-em="2048" ascent="1556" descent="-492" />
<missing-glyph horiz-adv-x="492" />
<glyph horiz-adv-x="0" />
<glyph unicode="&#xd;" horiz-adv-x="492" />
<glyph unicode=" "  horiz-adv-x="492" />
<glyph unicode="&#x09;" horiz-adv-x="492" />
<glyph unicode="&#xa0;" horiz-adv-x="492" />
<glyph unicode="!" horiz-adv-x="616" d="M45 0l43 195h193l-41 -195h-195zM152 356l204 1119h211l-276 -1119h-139z" />
<glyph unicode="&#x22;" horiz-adv-x="590" d="M94 881v553h117v-553h-117zM377 881v553h119v-553h-119z" />
<glyph unicode="#" horiz-adv-x="1575" d="M104 467l43 123h320l96 272h-342l43 123h344l168 471h146l-166 -471h260l168 471h143l-164 -471h307l-43 -123h-311l-94 -272h330l-43 -123h-332l-166 -469h-145l168 469h-265l-168 -469h-143l166 469h-320zM614 590h263l96 272h-264z" />
<glyph unicode="$" d="M10 354q0 27 3.5 55.5t9.5 57.5h143q-4 -30 -6 -57t-2 -45q0 -82 38.5 -125.5t122.5 -59.5l115 531q-131 73 -190.5 153t-59.5 183q0 176 109 287.5t282 111.5h17l29 151h84l-33 -157q122 -14 188 -84t66 -185q0 -20 -3.5 -50.5t-9.5 -69.5h-151q1 18 4 49q4 47 4 61 q0 63 -30 95.5t-97 41.5l-98 -454q148 -80 214 -167.5t66 -203.5q0 -199 -118.5 -319.5t-315.5 -120.5h-18l-37 -172h-84l39 180q-135 18 -208 99.5t-73 213.5zM340 1071q0 -62 31 -106t100 -78l88 416h-6q-91 0 -152 -67t-61 -165zM404 176q114 3 183.5 79.5t69.5 199.5 q0 77 -36 128.5t-113 84.5z" />
<glyph unicode="%" horiz-adv-x="1432" d="M104 936q0 247 85 381.5t241 134.5q116 0 177 -59t61 -172t-31.5 -229t-73.5 -175q-38 -52 -95.5 -78t-135.5 -26q-105 0 -166.5 60t-61.5 163zM150 -25l978 1475h138l-979 -1475h-137zM246 922q0 -48 24 -75.5t66 -27.5q36 0 60.5 11.5t41.5 35.5q12 17 22.5 43t22.5 74 q20 80 30.5 145.5t10.5 110.5q0 48 -27 75t-75 27q-32 0 -54 -13t-42 -44q-29 -46 -54.5 -153t-25.5 -209zM752 199q0 247 84.5 381.5t240.5 134.5q116 0 177 -59.5t61 -172.5q0 -112 -31.5 -228.5t-73.5 -174.5q-38 -53 -95.5 -79t-135.5 -26q-105 0 -166 60.5t-61 163.5z M893 184q0 -47 24 -74.5t66 -27.5q36 0 60.5 11.5t41.5 35.5q13 17 23 43t22 74q21 80 31 145.5t10 110.5t-26 73.5t-68 28.5q-35 0 -59.5 -13t-44.5 -42q-8 -11 -16 -31.5t-23 -73.5q-20 -76 -30.5 -142t-10.5 -118z" />
<glyph unicode="&#x26;" horiz-adv-x="1114" d="M39 297q0 222 75.5 353t215.5 151q-61 21 -91 77t-30 146q0 77 22.5 159.5t59.5 141.5q51 83 121 116.5t211 33.5h249l-38 -179h-244q-99 0 -147 -75t-48 -230q0 -66 37.5 -99.5t112.5 -33.5h196l62 287h190l-59 -287h158l-37 -153h-156l-149 -705h-191q-31 0 -86 -1 t-80 -1q-93 0 -150 12.5t-102 40.5q-52 32 -77 92.5t-25 153.5zM225 309q0 -68 31.5 -99.5t99.5 -31.5h240l115 527h-226q-67 0 -110 -19.5t-68 -60.5q-35 -60 -58.5 -148.5t-23.5 -167.5z" />
<glyph unicode="'" horiz-adv-x="305" d="M94 881v553h117v-553h-117z" />
<glyph unicode="(" horiz-adv-x="592" d="M90 186q0 333 101 646t323 665h133q-207 -387 -307 -767t-100 -779q0 -58 2 -123t6 -135h-125q-17 121 -25 244t-8 249z" />
<glyph unicode=")" horiz-adv-x="592" d="M-104 -307q206 384 305.5 764t99.5 782q0 90 -1.5 147t-4.5 111h123q16 -121 24.5 -244t8.5 -249q0 -335 -100.5 -648t-321.5 -663h-133z" />
<glyph unicode="*" d="M201 1081v127l307 -26l-176 252l110 63l131 -278l132 278l110 -63l-176 -252l307 24v-127l-307 27l176 -254l-110 -64l-132 281l-131 -281l-110 64l176 254z" />
<glyph unicode="+" horiz-adv-x="1706" d="M254 553v117h541v551h118v-551h539v-117h-539v-553h-118v553h-541z" />
<glyph unicode="," horiz-adv-x="492" d="M-154 -254l199 457h213l-274 -457h-138z" />
<glyph unicode="-" horiz-adv-x="569" d="M4 434l33 160h432l-33 -160h-432z" />
<glyph unicode="." horiz-adv-x="492" d="M-6 0l43 205h194l-43 -205h-194z" />
<glyph unicode="/" horiz-adv-x="569" d="M-90 -190l610 1687h123l-610 -1687h-123z" />
<glyph unicode="0" d="M31 309q0 44 7 104.5t23 153.5q49 260 82 392t72 231q52 132 148 197t237 65q166 0 253 -87t87 -253q0 -73 -15.5 -178.5t-47.5 -253.5q-30 -136 -60 -245.5t-61 -190.5q-54 -138 -147 -202.5t-238 -64.5q-163 0 -251.5 87t-88.5 245zM211 309q0 -92 44 -140t128 -48 q72 0 124.5 44.5t84.5 133.5q23 67 51 173.5t55 234.5q33 149 47.5 243t14.5 152q0 105 -42.5 156t-129.5 51q-72 0 -123 -42.5t-82 -127.5q-27 -74 -50 -159t-52 -226q-43 -203 -56.5 -294t-13.5 -151z" />
<glyph unicode="1" d="M266 1061l37 172q112 47 188.5 96t116.5 98h170l-303 -1427h-182l256 1204q-46 -39 -115 -73.5t-168 -69.5z" />
<glyph unicode="2" d="M-76 0l29 135l254 252q348 346 445.5 486.5t97.5 250.5q0 85 -47 130.5t-134 45.5q-90 0 -142.5 -55.5t-72.5 -173.5h-184q34 188 136 283.5t269 95.5q172 0 264.5 -81.5t92.5 -231.5q0 -154 -110.5 -321.5t-469.5 -508.5l-166 -155h559l-32 -152h-789z" />
<glyph unicode="3" d="M4 301q0 20 1.5 42.5t5.5 47.5h177q-3 -38 -4.5 -64t-1.5 -38q0 -80 45 -122t129 -42q108 0 174 104.5t66 276.5q0 93 -48 131.5t-167 38.5h-33l38 153q9 -1 20.5 -1.5t33.5 -0.5q150 0 220.5 77t70.5 239q0 80 -40 123t-116 43q-90 0 -142.5 -56.5t-74.5 -177.5h-186 q40 197 139 286t279 89q154 0 237.5 -75t83.5 -214q0 -185 -75.5 -290.5t-225.5 -129.5q88 -33 128 -98.5t40 -175.5q0 -99 -30.5 -195.5t-81.5 -158.5q-59 -72 -135.5 -105t-186.5 -33q-171 0 -255.5 81t-84.5 245z" />
<glyph unicode="4" d="M-6 365l41 196l618 866h236l-195 -921h180l-30 -141h-180l-78 -365h-178l77 365h-491zM164 506h350l143 598q10 44 25 99t37 126q-43 -71 -76 -124t-57 -87z" />
<glyph unicode="5" d="M29 244q0 15 2.5 34t7.5 45h174q-3 -23 -3.5 -33.5t-0.5 -19.5q0 -75 37 -112t112 -37q77 0 128.5 31t76.5 92q35 86 56.5 187.5t21.5 178.5q0 86 -38 131t-109 45q-75 0 -132 -45t-73 -118h-183l199 804h656l-33 -149h-488l-112 -451q50 50 108 74.5t127 24.5 q126 0 193 -76.5t67 -218.5q0 -165 -42.5 -313.5t-108.5 -223.5q-53 -59 -133 -89t-185 -30q-159 0 -242 69t-83 200z" />
<glyph unicode="6" d="M45 297q0 55 10 131t31 178q33 171 66 306.5t55 197.5q69 195 160.5 268.5t257.5 73.5q155 0 235 -67.5t80 -198.5q0 -28 -1 -42.5t-3 -27.5l-168 1q1 8 1.5 18t0.5 28q0 81 -38.5 119.5t-119.5 38.5q-112 0 -175 -98t-132 -426q56 62 119.5 89t150.5 27q130 0 198.5 -78 t68.5 -227q0 -153 -42 -294.5t-108 -217.5q-52 -61 -126.5 -90t-182.5 -29q-173 0 -255.5 78.5t-82.5 241.5zM217 287q0 -85 39.5 -126.5t120.5 -41.5q134 0 208 127t74 356q0 88 -38.5 132t-114.5 44q-138 0 -213.5 -128.5t-75.5 -362.5z" />
<glyph unicode="7" d="M72 0l673 1268h-565l35 159h748l-35 -172l-637 -1255h-219z" />
<glyph unicode="8" d="M27 332q0 193 80.5 308t228.5 134q-71 30 -108.5 84t-37.5 129q0 231 101.5 348t302.5 117q166 0 252 -76.5t86 -224.5q0 -187 -71.5 -289t-211.5 -114q81 -35 119.5 -100t38.5 -167q0 -237 -112.5 -371.5t-311.5 -134.5q-171 0 -263.5 93t-92.5 264zM205 324 q0 -97 47 -149t133 -52q111 0 175.5 96.5t64.5 263.5q0 92 -46.5 141.5t-132.5 49.5q-114 0 -177.5 -92t-63.5 -258zM369 1012q0 -95 41 -140t127 -45q105 0 161 81.5t56 234.5q0 82 -45.5 125t-130.5 43q-102 0 -155.5 -77t-53.5 -222z" />
<glyph unicode="9" d="M23 244q0 17 1.5 34t4.5 35h165q-1 -9 -1 -18.5v-28.5q0 -79 39.5 -118t119.5 -39q112 0 175 97.5t132 426.5q-56 -62 -120 -90.5t-150 -28.5q-129 0 -197.5 79t-68.5 228q0 153 41 293t106 217q54 63 128 92t182 29q173 0 255.5 -78t82.5 -241q0 -58 -10 -136.5 t-29 -173.5q-33 -165 -66 -300.5t-57 -203.5q-68 -193 -160 -267.5t-258 -74.5q-155 0 -235 68t-80 199zM305 829q0 -89 37.5 -133.5t114.5 -44.5q138 0 214.5 129.5t76.5 364.5q0 83 -40 124.5t-120 41.5q-55 0 -101.5 -20.5t-74.5 -57.5q-45 -59 -76 -172.5t-31 -231.5z " />
<glyph unicode=":" horiz-adv-x="518" d="M8 0l43 205h195l-43 -205h-195zM184 823l45 205h193l-43 -205h-195z" />
<glyph unicode=";" horiz-adv-x="518" d="M-139 -254l198 457h213l-274 -457h-137zM184 823l45 205h193l-43 -205h-195z" />
<glyph unicode="&#x3c;" horiz-adv-x="1706" d="M264 559v103l1178 483v-127l-1000 -408l1000 -405v-129z" />
<glyph unicode="=" horiz-adv-x="1706" d="M254 360v117h1198v-117h-1198zM254 743v117h1198v-117h-1198z" />
<glyph unicode="&#x3e;" horiz-adv-x="1706" d="M264 76v129l1000 405l-1000 408v127l1178 -483v-103z" />
<glyph unicode="?" horiz-adv-x="807" d="M127 1116q40 203 135.5 294t265.5 91q149 0 223 -68t74 -204q0 -113 -36.5 -216.5t-98.5 -166.5q-50 -51 -134 -117q-28 -23 -39 -32q-5 -4 -14 -11q-63 -49 -79 -125l-39 -188h-164l47 225q13 59 26.5 90.5t33.5 56.5q14 19 73 68t95 84q70 69 104.5 152.5t34.5 187.5 q0 63 -31.5 95t-93.5 32q-78 0 -123.5 -55t-77.5 -193h-182zM133 0l41 195h184l-41 -195h-184z" />
<glyph unicode="@" horiz-adv-x="2048" d="M113 522q0 163 50.5 309t149.5 269q146 176 349.5 267t453.5 91q165 0 311 -43.5t248 -124.5q129 -99 195.5 -230t66.5 -282q0 -169 -62.5 -308.5t-182.5 -236.5q-69 -55 -148.5 -83.5t-163.5 -28.5q-99 0 -148.5 39t-49.5 116q0 3 1 11t1 12q-51 -87 -127 -132.5 t-170 -45.5q-153 0 -233.5 85t-80.5 247q0 230 137 389t332 159q91 0 153.5 -39.5t96.5 -117.5l58 121h110l-141 -568q-6 -24 -9 -44t-3 -36q0 -44 27.5 -67t82.5 -23q45 0 100 24t103 64q89 76 139.5 196.5t50.5 254.5q0 266 -195.5 428t-518.5 162q-168 0 -312.5 -52 t-259.5 -153q-140 -122 -211 -282.5t-71 -354.5q0 -173 60.5 -304t186.5 -230q101 -81 240 -124.5t295 -43.5q172 0 334.5 48.5t296.5 139.5l45 -66q-147 -109 -313 -165t-347 -56q-191 0 -348 46.5t-276 138.5q-153 117 -228 272t-75 352zM713 446q0 -110 51 -169.5 t145 -59.5q102 0 183.5 70.5t109.5 185.5l60 242q-17 90 -72 140t-135 50q-146 0 -244 -131.5t-98 -327.5z" />
<glyph unicode="A" horiz-adv-x="1141" d="M-156 0l762 1475h264l119 -1475h-194l-23 348h-555l-174 -348h-199zM299 510h463l-39 590q0 4 -1 13q-9 112 -9 190v30z" />
<glyph unicode="B" horiz-adv-x="1085" d="M-20 0l313 1475h369q191 0 284.5 -78.5t93.5 -237.5q0 -172 -79.5 -275t-225.5 -120q102 -20 154.5 -90t52.5 -187q0 -115 -35 -210t-102 -160q-65 -63 -163 -90t-282 -27h-380zM207 164h166q206 0 291.5 73.5t85.5 247.5q0 113 -60 158t-219 45h-154zM350 842h142 q195 0 277.5 69.5t82.5 231.5q0 96 -49 134t-178 38h-174z" />
<glyph unicode="C" horiz-adv-x="1096" d="M63 371q0 71 17 186.5t49 263.5q36 167 67 272t62 160q67 125 173 185.5t259 60.5q176 0 274.5 -91.5t98.5 -254.5q0 -26 -2 -49t-6 -47h-195q4 21 6 41.5t2 42.5q0 93 -49.5 142.5t-142.5 49.5q-96 0 -156.5 -42t-103.5 -140q-20 -42 -41 -117t-41 -176 q-43 -210 -60.5 -321t-17.5 -162q0 -114 54.5 -175t156.5 -61q111 0 181 76.5t97 226.5h197q-41 -233 -163 -350t-324 -117q-191 0 -291.5 101.5t-100.5 294.5z" />
<glyph unicode="D" horiz-adv-x="1171" d="M-20 0l313 1475h373q230 0 333 -88.5t103 -284.5q0 -64 -11.5 -154.5t-33.5 -208.5q-29 -156 -64 -277t-73 -196q-79 -150 -191.5 -208t-349.5 -58h-399zM209 162h162q182 0 252 38t122 144q26 53 52 144t51 217q24 125 36.5 224.5t12.5 164.5q0 125 -51.5 172t-192.5 47 h-200z" />
<glyph unicode="E" horiz-adv-x="967" d="M-20 0l313 1475h731l-35 -162h-536l-99 -465h510l-35 -162h-510l-110 -522h551l-35 -164h-745z" />
<glyph unicode="F" horiz-adv-x="905" d="M-18 0l313 1475h690l-37 -166h-493l-101 -465h469l-35 -166h-469l-143 -678h-194z" />
<glyph unicode="G" horiz-adv-x="1159" d="M63 377q0 71 16 177.5t48 246.5q39 176 70.5 281t58.5 155q72 132 186.5 197t274.5 65q189 0 295 -99t106 -276q0 -20 -1.5 -41.5t-4.5 -41.5l-196 -1q3 21 4.5 40.5t1.5 37.5q0 106 -54.5 160.5t-160.5 54.5q-98 0 -164.5 -38t-112.5 -121q-21 -41 -44.5 -121.5 t-57.5 -235.5q-42 -194 -57 -286.5t-15 -145.5q0 -133 59 -188.5t203 -55.5q44 0 94 9t111 28l88 410h-266l35 168h460l-118 -568q-11 -49 -17 -85t-10 -70q-105 -29 -207.5 -43.5t-200.5 -14.5q-214 0 -319 99.5t-105 302.5z" />
<glyph unicode="H" horiz-adv-x="1180" d="M-20 0l313 1475h196l-129 -613h508l129 613h203l-313 -1475h-203l147 696h-507l-148 -696h-196z" />
<glyph unicode="I" horiz-adv-x="496" d="M-6 0l313 1475h195l-314 -1475h-194z" />
<glyph unicode="J" horiz-adv-x="963" d="M-47 305q0 33 4.5 71t13.5 82l192 1q-6 -42 -9.5 -77.5t-3.5 -62.5q0 -80 45 -123.5t129 -43.5q95 0 146 61.5t91 249.5l213 1012h195l-213 -1006q-61 -288 -156.5 -386.5t-284.5 -98.5q-173 0 -267.5 84t-94.5 237z" />
<glyph unicode="K" horiz-adv-x="1053" d="M-6 0l313 1475h193l-138 -650l578 650h260l-645 -674l371 -801h-217l-351 807l-172 -807h-192z" />
<glyph unicode="L" horiz-adv-x="834" d="M-6 0l313 1475h193l-277 -1309h502l-35 -166h-696z" />
<glyph unicode="M" horiz-adv-x="1683" d="M-12 0l313 1475h324l82 -877q7 -74 10.5 -149t3.5 -152q0 -31 -1 -68t-3 -102h12q22 89 47.5 162.5t52.5 128.5l535 1057h330l-314 -1475h-182l227 1063q16 69 35.5 149t42.5 168h-16l-690 -1380h-205l-100 1085q-6 54 -16 286l-1 15h-10l-295 -1386h-182z" />
<glyph unicode="N" horiz-adv-x="1298" d="M-12 0l313 1475h311l195 -1106q2 -12 10.5 -103t13.5 -151h13q19 108 53 261l2 11l229 1088h183l-314 -1475h-307l-196 1105q-10 52 -16 117t-9 144h-14q-24 -127 -86 -426l-4 -22l-195 -918h-182z" />
<glyph unicode="O" horiz-adv-x="1180" d="M55 369q0 70 20 192t58 289q33 142 67 246.5t60 148.5q75 131 186.5 192.5t272.5 61.5q198 0 301.5 -99.5t103.5 -291.5q0 -69 -19 -189t-61 -307q-29 -132 -61 -228.5t-63 -152.5q-75 -130 -188 -193t-271 -63q-198 0 -302 101t-104 293zM248 379q0 -118 56.5 -178 t168.5 -60q95 0 161 38t114 120q24 44 47 117.5t47 179.5q54 241 72 343t18 155q0 121 -56 180t-171 59q-96 0 -160.5 -36.5t-112.5 -118.5q-19 -35 -45 -115.5t-49 -181.5q-49 -217 -69.5 -333.5t-20.5 -168.5z" />
<glyph unicode="P" horiz-adv-x="1071" d="M-12 0l313 1475h303q262 0 357.5 -69.5t95.5 -244.5q0 -114 -28.5 -210.5t-82.5 -166.5q-61 -79 -168 -113t-309 -34h-162l-135 -637h-184zM342 797h174q188 0 266 79t78 265q0 95 -52.5 133.5t-189.5 38.5h-167z" />
<glyph unicode="Q" horiz-adv-x="1180" d="M53 371q0 72 18.5 185.5t57.5 283.5q33 147 65.5 248t63.5 155q74 130 186 192t271 62q198 0 301.5 -100t103.5 -291q0 -41 -7.5 -103.5t-25.5 -164.5q-21 -120 -43 -219t-38 -152q-43 -135 -88.5 -211t-110.5 -127q48 12 85 17.5t66 5.5h91l-33 -152h-185 q-101 0 -230.5 -11.5t-158.5 -11.5q-186 0 -287.5 102.5t-101.5 291.5zM246 379q0 -119 56 -177.5t169 -58.5q95 0 160.5 37.5t111.5 118.5q24 42 47.5 115t47.5 180q54 246 72 346.5t18 153.5q0 120 -56.5 178.5t-171.5 58.5q-95 0 -158 -36.5t-112 -118.5 q-22 -38 -47 -116t-47 -177q-49 -218 -69.5 -334t-20.5 -170z" />
<glyph unicode="R" horiz-adv-x="1081" d="M-25 0l314 1475h342q227 0 319 -64t92 -215q0 -207 -87 -317.5t-261 -122.5q106 -22 154.5 -77t48.5 -155q0 -26 -3 -55t-9 -57l-47 -246q-5 -18 -7 -42.5t-2 -57.5q0 -27 0.5 -40.5t1.5 -25.5h-210q1 45 6.5 92t15.5 96l43 199q6 31 9 60.5t3 58.5q0 85 -50 126.5 t-152 41.5h-183l-143 -674h-195zM346 825h158q95 0 147.5 11t85.5 36q50 37 78.5 117t28.5 185q0 77 -49 108t-189 31h-157z" />
<glyph unicode="S" horiz-adv-x="1071" d="M8 315q0 19 4 46t13 69h202q-6 -24 -9 -47.5t-3 -44.5q0 -92 56.5 -143.5t156.5 -51.5q115 0 186.5 70.5t71.5 181.5q0 66 -31.5 122t-132.5 149q-21 19 -61 54q-248 222 -248 376q0 183 115.5 292t310.5 109q190 0 291.5 -84t101.5 -239q0 -25 -2 -48t-6 -45h-195 q4 27 6.5 52.5t2.5 46.5q0 81 -49 124.5t-140 43.5q-107 0 -174 -62.5t-67 -159.5q0 -108 192 -275q18 -16 26 -23q167 -147 214 -228t47 -178q0 -202 -122 -323.5t-327 -121.5q-199 0 -314.5 91t-115.5 247z" />
<glyph unicode="T" horiz-adv-x="948" d="M139 1305l37 170h905l-37 -170h-352l-276 -1305h-193l277 1305h-361z" />
<glyph unicode="U" horiz-adv-x="1180" d="M49 317q0 29 5 66.5t14 79.5l215 1012h194l-215 -1019q-9 -45 -12.5 -71t-3.5 -45q0 -98 61.5 -151.5t173.5 -53.5q130 0 207 80t113 250l213 1010h194l-215 -1008q-57 -266 -180.5 -380t-353.5 -114q-185 0 -297.5 95t-112.5 249z" />
<glyph unicode="V" horiz-adv-x="1055" d="M156 1475h190l35 -1037q2 -59 3 -100t1 -80q0 -36 -0.5 -55.5t-1.5 -36.5q16 49 38.5 104.5t55.5 124.5l512 1080h201l-711 -1475h-258z" />
<glyph unicode="W" horiz-adv-x="1731" d="M150 1475h188l27 -970q1 -15 1.5 -33t0.5 -56q0 -65 -3.5 -134t-9.5 -141q31 112 69.5 223t84.5 220l373 891h239l35 -916q1 -24 2 -64q2 -80 2 -106q0 -53 -9 -191q-2 -34 -3 -52q34 118 75 236t89 236l346 857h201l-627 -1475h-234l-36 1069q0 13 -1.5 39t-1.5 39 q0 40 3 85.5t8 96.5q-43 -146 -88 -274t-88 -230l-363 -825h-217z" />
<glyph unicode="X" horiz-adv-x="1012" d="M-176 0l575 786l-245 689h208l132 -406q8 -27 17.5 -66.5t20.5 -97.5q40 76 159 247l6 8l223 315h221l-523 -715l265 -760h-207l-123 371q-19 57 -36 119.5t-34 134.5q-33 -59 -66 -109t-67 -96l-307 -420h-219z" />
<glyph unicode="Y" horiz-adv-x="958" d="M111 1475h196l170 -676l453 676h213l-604 -889l-125 -586h-195l125 584z" />
<glyph unicode="Z" horiz-adv-x="958" d="M-121 0l39 180l879 1127h-609l37 168h836l-35 -162l-891 -1141h664l-37 -172h-883z" />
<glyph unicode="[" horiz-adv-x="592" d="M-39 -328l383 1803h356l-22 -109h-201l-338 -1585h201l-23 -109h-356z" />
<glyph unicode="\" horiz-adv-x="569" d="M23 1497h122l451 -1687h-123z" />
<glyph unicode="]" horiz-adv-x="592" d="M-158 -328l23 109h201l337 1585h-202l24 109h357l-383 -1803h-357z" />
<glyph unicode="^" horiz-adv-x="2048" d="M422 901l520 557h162l520 -557h-158l-442 438l-442 -438h-160z" />
<glyph unicode="_" horiz-adv-x="1024" d="M0 -365h1024v-118h-1024v118z" />
<glyph unicode="`" horiz-adv-x="1024" d="M346 1511h199l211 -348h-109z" />
<glyph unicode="a" horiz-adv-x="944" d="M-18 262q0 205 131.5 301t412.5 96q33 0 105 -3l6 -1q9 46 12.5 77.5t3.5 58.5q0 64 -42.5 97.5t-125.5 33.5t-130.5 -41t-59.5 -123h-189q31 152 121 223.5t254 71.5q177 0 262.5 -65t85.5 -197q0 -36 -6 -82t-18 -105l-84 -395q-12 -53 -19 -105t-10 -104h-174l27 160 q-59 -86 -131.5 -128t-163.5 -42q-125 0 -196.5 73t-71.5 199zM158 281q0 -69 38.5 -108.5t106.5 -39.5q122 0 200.5 101.5t108.5 297.5h-43q-212 0 -311.5 -61t-99.5 -190z" />
<glyph unicode="b" horiz-adv-x="967" d="M-41 0l313 1475h179l-121 -566q54 73 120.5 107.5t153.5 34.5q122 0 188 -77.5t66 -219.5q0 -53 -8 -121t-25 -148q-24 -116 -53.5 -203.5t-58.5 -134.5q-53 -83 -123 -122t-166 -39t-157 41.5t-103 136.5l-43 -164h-162zM223 319q0 -97 43 -146.5t127 -49.5 q75 0 118.5 34t72.5 115q42 119 67 250.5t25 231.5q0 82 -38.5 121.5t-117.5 39.5q-60 0 -109 -34.5t-85 -102.5q-16 -30 -35.5 -93.5t-36.5 -141.5q-15 -66 -23 -123.5t-8 -100.5z" />
<glyph unicode="c" horiz-adv-x="891" d="M20 299q0 45 9.5 112.5t27.5 151.5q23 104 45.5 177.5t44.5 113.5q55 101 141.5 150t209.5 49q152 0 230.5 -74t78.5 -215q0 -11 -1 -25.5t-3 -41.5l-176 -1v5q4 36 4 53q0 79 -36.5 118t-109.5 39q-59 0 -102 -29.5t-74 -93.5q-17 -34 -35.5 -95.5t-37.5 -149.5 q-20 -85 -29.5 -150.5t-9.5 -105.5q0 -85 40 -126.5t121 -41.5q85 0 134.5 53.5t66.5 163.5h180q-26 -184 -127 -272.5t-284 -88.5q-144 0 -226 86.5t-82 237.5z" />
<glyph unicode="d" horiz-adv-x="967" d="M16 274q0 53 8.5 121t24.5 148q25 120 53.5 206.5t57.5 131.5q52 83 123 122t168 39q93 0 153.5 -39t100.5 -126l126 598h179l-281 -1311q-6 -32 -12.5 -73t-11.5 -91h-168l22 137q-59 -82 -129 -119.5t-162 -37.5q-121 0 -186.5 76t-65.5 218zM197 279 q0 -85 38.5 -125.5t118.5 -40.5q59 0 108.5 35t86.5 102q15 27 32 83.5t42 162.5q13 59 19.5 112.5t6.5 100.5q0 96 -44.5 148t-127.5 52q-72 0 -115.5 -37.5t-76.5 -132.5q-41 -119 -64.5 -244.5t-23.5 -215.5z" />
<glyph unicode="e" horiz-adv-x="952" d="M16 297q0 47 9.5 113.5t27.5 152.5q21 97 44.5 171t47.5 118q59 105 144 153t213 48q167 0 254.5 -85.5t87.5 -248.5q0 -38 -8 -95.5t-25 -142.5h-594q-11 -53 -16.5 -99.5t-5.5 -88.5q0 -88 47.5 -131t144.5 -43q76 0 125 51.5t76 159.5h184q-38 -183 -138.5 -269 t-275.5 -86q-160 0 -251 85.5t-91 236.5zM246 608h409q6 36 8.5 62.5t2.5 46.5q0 97 -42 145.5t-126 48.5q-102 0 -159 -67.5t-93 -235.5z" />
<glyph unicode="f" horiz-adv-x="510" d="M-16 0l192 909h-164l27 119h162l30 143q41 195 108 261.5t210 66.5q25 0 47.5 -4t46.5 -12l-27 -133q-18 3 -33.5 4.5t-27.5 1.5q-59 0 -91.5 -39t-53.5 -143l-31 -146h170l-25 -119h-170l-194 -909h-176z" />
<glyph unicode="g" horiz-adv-x="954" d="M-68 -154q0 26 1 38.5t4 25.5h173l-4 -26t-2 -23q0 -61 38 -91t114 -30q106 0 161 51.5t83 183.5l32 156q-55 -54 -115.5 -79t-135.5 -25q-124 0 -191 74t-67 210q0 30 3 65t9 75q21 138 48 241t58 164q50 99 124.5 147t176.5 48q97 0 156.5 -40.5t93.5 -129.5l37 147 h178q-9 -38 -24 -98q-18 -72 -21 -87l-180 -851q-49 -231 -139.5 -312t-282.5 -81q-163 0 -245.5 62t-82.5 185zM199 299q0 -76 36 -115t107 -39q65 0 112 28.5t83 88.5q19 31 39 95.5t45 171.5q11 51 16.5 97t5.5 87q0 103 -42.5 156t-125.5 53q-64 0 -106 -33.5 t-72 -108.5q-11 -26 -27.5 -84.5t-33.5 -134.5q-18 -82 -27.5 -150t-9.5 -112z" />
<glyph unicode="h" horiz-adv-x="950" d="M-35 0l314 1475h176l-121 -572q55 74 129 111t168 37q102 0 158.5 -61.5t56.5 -174.5q0 -25 -4.5 -60.5t-14.5 -83.5l-143 -671h-176l147 688q7 31 10 55.5t3 42.5q0 64 -29.5 95.5t-87.5 31.5q-116 0 -186 -95.5t-119 -330.5l-105 -487h-176z" />
<glyph unicode="i" horiz-adv-x="426" d="M-29 0l219 1028h177l-220 -1028h-176zM242 1294l39 181h188l-37 -181h-190z" />
<glyph unicode="j" horiz-adv-x="436" d="M-229 -377l32 141q6 0 16 -1t15 -1q58 0 83.5 26t45.5 120l238 1120h176l-244 -1149q-33 -155 -91 -205.5t-189 -50.5h-82zM250 1294l39 181h188l-37 -181h-190z" />
<glyph unicode="k" horiz-adv-x="856" d="M-37 0l313 1475h179l-183 -857l406 410h223l-459 -440l275 -588h-203l-248 590l-125 -590h-178z" />
<glyph unicode="l" horiz-adv-x="426" d="M-31 0l314 1475h178l-314 -1475h-178z" />
<glyph unicode="m" horiz-adv-x="1407" d="M-39 0l168 793q9 40 18 91t23 144h166l-29 -151q55 85 127.5 129.5t157.5 44.5q91 0 144 -50.5t61 -144.5q58 99 133 147t172 48q93 0 148 -63.5t55 -172.5q0 -25 -5 -58.5t-16 -84.5l-141 -672h-178l145 688q7 35 10.5 60.5t3.5 37.5q0 64 -26 95.5t-78 31.5 q-102 0 -163 -90t-114 -336l-104 -487h-172l147 688q7 29 10 53.5t3 44.5q0 62 -28 94.5t-81 32.5q-101 0 -161.5 -87.5t-114.5 -338.5l-105 -487h-176z" />
<glyph unicode="n" horiz-adv-x="946" d="M-39 0l168 793q9 40 18 91t23 144h166l-29 -151q60 87 139 130.5t179 43.5q103 0 160 -62t57 -174q0 -22 -4.5 -54t-16.5 -89l-141 -672h-176l145 688q9 43 12 63.5t3 34.5q0 63 -30.5 95t-88.5 32q-115 0 -184 -94.5t-119 -331.5l-105 -487h-176z" />
<glyph unicode="o" horiz-adv-x="952" d="M16 295q0 49 10 119t29 157q22 98 45 171t45 110q59 103 144.5 152t208.5 49q165 0 255.5 -85t90.5 -239q0 -51 -8.5 -116t-24.5 -142q-21 -96 -46.5 -173.5t-51.5 -125.5q-58 -102 -143.5 -149.5t-213.5 -47.5q-156 0 -248 87t-92 233zM195 293q0 -83 44.5 -128.5 t127.5 -45.5q64 0 109.5 29t80.5 92q14 25 32.5 87.5t43.5 170.5q16 70 24.5 126t8.5 95q0 94 -43.5 142t-128.5 48q-65 0 -110.5 -28.5t-80.5 -92.5q-15 -27 -36 -95.5t-40 -153.5q-16 -71 -24 -132t-8 -114z" />
<glyph unicode="p" horiz-adv-x="967" d="M-123 -389l264 1253l1 4q14 78 26 160h170l-25 -137q60 83 130 121.5t161 38.5q122 0 188 -77.5t66 -219.5q0 -53 -8 -121t-25 -148q-24 -116 -53.5 -203.5t-58.5 -134.5q-53 -83 -123 -122t-166 -39q-93 0 -154 39.5t-102 126.5l-117 -541h-174zM223 319 q0 -97 43 -146.5t127 -49.5q75 0 118.5 34t72.5 115q42 119 67 250.5t25 231.5q0 82 -38.5 121.5t-117.5 39.5q-60 0 -109 -34.5t-85 -102.5q-16 -30 -35.5 -93.5t-36.5 -141.5q-15 -66 -23 -123.5t-8 -100.5z" />
<glyph unicode="q" horiz-adv-x="967" d="M14 276q0 56 8 120t23 134q28 133 57 224t60 141q48 79 118 118.5t160 39.5q117 0 178.5 -43.5t90.5 -145.5l41 164h168q-8 -33 -21 -84q-16 -65 -18 -79l-269 -1254h-176l109 510q-58 -75 -122 -108t-151 -33q-124 0 -190 76t-66 220zM195 285q0 -89 38 -130.5 t119 -41.5q60 0 109.5 34.5t85.5 102.5q15 28 33.5 88.5t35.5 138.5q17 75 26 137t9 105q0 98 -43 149.5t-125 51.5q-70 0 -116 -37.5t-74 -116.5q-46 -130 -72 -262t-26 -219z" />
<glyph unicode="r" horiz-adv-x="602" d="M-37 0l172 801q10 46 18.5 100.5t16.5 126.5h170l-31 -172q50 94 118.5 138t162.5 44q15 0 49 -3q4 -1 6 -1l-35 -160h-32q-136 0 -206.5 -75t-115.5 -277l-117 -522h-176z" />
<glyph unicode="s" horiz-adv-x="844" d="M-33 225q0 18 2.5 40t8.5 48h169q-2 -22 -3 -33.5t-1 -19.5q0 -72 38 -108.5t112 -36.5q82 0 135 49t53 123q0 53 -29.5 94t-111.5 96q-14 9 -41 27q-205 133 -205 270q0 133 93 209t257 76q159 0 238.5 -66t79.5 -196q0 -16 -0.5 -23.5t-1.5 -15.5h-174v26 q0 77 -35.5 110.5t-116.5 33.5q-76 0 -121 -36.5t-45 -96.5q0 -74 137 -160q47 -30 72 -47q103 -71 144 -134.5t41 -148.5q0 -151 -103 -239.5t-280 -88.5q-153 0 -232.5 63.5t-79.5 184.5z" />
<glyph unicode="t" horiz-adv-x="541" d="M10 909l25 119h166l43 205l192 65l-57 -270h199l-25 -119h-201l-131 -621q-5 -19 -7.5 -37.5t-2.5 -31.5q0 -47 27.5 -65.5t99.5 -18.5q7 0 23 1t26 1l-29 -137h-122q-104 0 -154.5 43.5t-50.5 132.5q0 41 21 146l1 7l123 580h-166z" />
<glyph unicode="u" horiz-adv-x="946" d="M12 213q0 25 4.5 60.5t14.5 83.5l143 671h174l-145 -686q-8 -40 -11.5 -62.5t-3.5 -37.5q0 -63 30.5 -95t88.5 -32q116 0 186 95.5t119 330.5l105 487h176l-168 -793q-9 -40 -18 -91t-23 -144h-166l27 152q-60 -88 -139 -131.5t-179 -43.5q-102 0 -158.5 61.5 t-56.5 174.5z" />
<glyph unicode="v" horiz-adv-x="868" d="M59 1028h174l39 -561q5 -69 8 -141.5t3 -145.5v-67q20 69 41 123t45 100l354 692h182l-547 -1028h-204z" />
<glyph unicode="w" horiz-adv-x="1444" d="M51 1028h174l39 -557q4 -54 6 -113t2 -127q0 -48 -0.5 -72t-1.5 -44q21 81 39.5 139.5t36.5 97.5l303 676h228l18 -758v-28q0 -25 -1.5 -53t-6.5 -76q36 97 78.5 194.5t95.5 204.5l256 516h180l-530 -1028h-211l-21 697q-1 21 -1.5 42t-0.5 52q0 28 3 97q1 16 1 23 q-25 -86 -40 -129t-27 -69l-324 -713h-201z" />
<glyph unicode="x" horiz-adv-x="829" d="M-176 0l440 557l-174 471h178l76 -235q17 -56 26 -89t13 -55q22 39 44.5 73.5t45.5 61.5l193 244h200l-389 -473l209 -555h-190l-95 291q-17 55 -27.5 92t-17.5 69q-21 -38 -39.5 -68t-37.5 -56l-240 -328h-215z" />
<glyph unicode="y" horiz-adv-x="868" d="M-27 -389l189 360l-103 1057h174l39 -561q7 -89 10 -146t3 -108q0 -41 -0.5 -61t-1.5 -39q15 59 36.5 115.5t49.5 109.5l354 690h182l-751 -1417h-181z" />
<glyph unicode="z" horiz-adv-x="748" d="M-102 0l32 156l582 741h-403l28 131h613l-29 -137l-590 -752h440l-30 -139h-643z" />
<glyph unicode="{" horiz-adv-x="1024" d="M172 467v127q8 0 23 -1t22 -1q134 0 189 61.5t55 214.5v244q0 153 22.5 215.5t77.5 97.5q42 28 102 40t160 12h35v-127q-8 0 -23 1t-22 1q-121 0 -164 -47t-43 -197v-242q0 -166 -43.5 -235.5t-154.5 -100.5q111 -30 154.5 -99.5t43.5 -235.5v-242q0 -149 43.5 -195.5 t169.5 -46.5h39v-125h-35q-99 0 -159.5 12t-102.5 40q-55 36 -77.5 100t-22.5 213v244q0 152 -55 213t-189 61q-7 0 -22 -1t-23 -1z" />
<glyph unicode="|" horiz-adv-x="1024" d="M449 -483v2048h126v-2048h-126z" />
<glyph unicode="}" horiz-adv-x="1024" d="M166 -289q8 0 23 -1t22 -1q120 0 163.5 47.5t43.5 198.5v240q0 166 43.5 235.5t154.5 99.5q-111 31 -154.5 100.5t-43.5 235.5v242q0 149 -44 196.5t-169 47.5h-39v125h35q100 0 161 -12.5t103 -39.5q54 -35 76 -98t22 -215v-244q0 -152 55.5 -214t190.5 -62q7 0 22 1 t23 1v-127q-8 0 -23 1t-22 1q-135 0 -190.5 -62t-55.5 -214v-242q0 -153 -22 -216.5t-76 -99.5q-39 -26 -97.5 -37.5t-160.5 -11.5h-41v125z" />
<glyph unicode="~" horiz-adv-x="1706" d="M178 461v133q105 73 202 109t185 36q56 0 116.5 -12.5t174.5 -52.5q14 -5 44 -16q158 -58 245 -58q84 0 174.5 37t210.5 121v-131q-101 -72 -197.5 -108t-189.5 -36q-43 0 -90.5 9t-100.5 26q-30 10 -87 31q-202 72 -302 72q-83 0 -173.5 -37.5t-211.5 -122.5z" />
<glyph unicode="&#xa0;" />
<glyph unicode="&#xa1;" horiz-adv-x="616" d="M49 0l277 1118h139l-205 -1118h-211zM336 1280l41 195h194l-43 -195h-192z" />
<glyph unicode="&#xa2;" d="M47 301q0 53 9 119.5t26 142.5q22 100 45.5 175t46.5 116q57 102 143 150.5t211 48.5q27 0 55 -4t62 -13l78 158h92l-94 -190q56 -32 84.5 -92t28.5 -148q0 -18 -4 -61q0 -5 -1 -7h-161v6q4 31 4 43q0 32 -7.5 55.5t-22.5 40.5l-349 -700q36 -10 60.5 -15t41.5 -5 q86 0 136 53t67 162h168q-23 -177 -122.5 -266.5t-272.5 -89.5q-30 0 -66.5 5.5t-79.5 16.5l-71 -147h-91l91 188q-56 48 -81.5 109.5t-25.5 148.5zM213 309q0 -29 5.5 -54t17.5 -46l342 690q-24 6 -45.5 9t-36.5 3q-59 0 -102 -30t-75 -93q-15 -30 -35 -95.5t-42 -162.5 q-15 -61 -22 -116.5t-7 -104.5z" />
<glyph unicode="&#xa3;" d="M-84 0l35 156h158l116 542h-159l32 144h158l41 188q50 231 141.5 325.5t259.5 94.5q147 0 226.5 -70.5t79.5 -201.5q0 -17 -2.5 -38t-8.5 -61l-182 1q3 33 4.5 56t1.5 38q0 67 -33 100t-102 33q-77 0 -122 -58t-75 -196l-45 -211h248l-31 -144h-247l-117 -542h493 l-32 -156h-838z" />
<glyph unicode="&#xa4;" d="M-33 539l53 118h99l33 162h-166l53 119h135q66 294 187.5 427.5t320.5 133.5q143 0 227 -81t84 -218q0 -16 -2 -39.5t-8 -79.5h-172q6 40 8 62t2 37q0 82 -42 128t-117 46q-111 0 -179 -88.5t-129 -327.5h377l-47 -119h-352l-33 -162h324l-50 -118h-299 q-17 -86 -23.5 -135t-6.5 -82q0 -97 45 -149t129 -52q94 0 161 76t99 221h174q-54 -222 -168 -332.5t-289 -110.5q-155 0 -240 90t-85 252q0 33 5.5 82.5t20.5 139.5h-129z" />
<glyph unicode="&#xa5;" horiz-adv-x="1042" d="M-31 567l23 101h354l-53 186h-260l20 98h213l-127 475h178l177 -694l471 694h190l-330 -475h250l-20 -98h-299l-131 -186h389l-21 -101h-442l-123 -567h-180l123 567h-402z" />
<glyph unicode="&#xa6;" horiz-adv-x="1024" d="M449 -350v758h126v-758h-126zM449 674v758h126v-758h-126z" />
<glyph unicode="&#xa7;" d="M27 33l32 151h1q198 -61 274 -61q84 0 130 30t46 85q0 41 -21 76t-86 89q-20 18 -58 51q-202 170 -202 275q0 82 61 143.5t210 124.5q-68 64 -98.5 118.5t-30.5 113.5q0 128 93 198t265 70q57 0 128 -12.5t153 -36.5l-31 -152q-90 30 -155 44t-111 14q-75 0 -118.5 -33 t-43.5 -88q0 -34 22.5 -69t69.5 -74q14 -12 42 -35q230 -189 230 -301q0 -85 -63 -147.5t-209 -121.5q71 -59 104 -118t33 -123q0 -123 -91.5 -195t-250.5 -72q-76 0 -156 14t-169 42zM322 741q0 -33 29 -71.5t110 -106.5q103 43 146.5 84t43.5 94q0 39 -30.5 77.5 t-114.5 103.5q-96 -40 -140 -83.5t-44 -97.5z" />
<glyph unicode="&#xa8;" horiz-adv-x="1024" d="M365 1223l43 209h182l-43 -209h-182zM694 1223l43 209h183l-43 -209h-183z" />
<glyph unicode="&#xa9;" horiz-adv-x="1706" d="M119 725q0 145 56.5 279.5t162.5 242.5q102 104 234 158.5t280 54.5q151 0 285 -55t239 -160q102 -102 156.5 -236t54.5 -284q0 -151 -54 -283t-157 -233q-109 -106 -244.5 -162.5t-279.5 -56.5q-146 0 -278 55.5t-238 161.5q-106 105 -161.5 238.5t-55.5 279.5zM207 725 q0 -127 49 -244t141 -211q93 -92 209.5 -141t245.5 -49t248.5 50t214.5 142q91 90 138.5 205.5t47.5 247.5q0 130 -49 249t-139 210q-92 92 -210 140t-251 48q-132 0 -247.5 -47.5t-205.5 -138.5q-93 -95 -142.5 -214t-49.5 -247zM465 721q0 208 107.5 332.5t287.5 124.5 q137 0 230 -74.5t104 -192.5h-129q-15 77 -70.5 120.5t-138.5 43.5q-117 0 -182.5 -92.5t-65.5 -259.5q0 -160 66.5 -252t181.5 -92q87 0 145.5 48.5t73.5 133.5h129q-11 -127 -109 -207t-245 -80q-176 0 -280.5 121t-104.5 326z" />
<glyph unicode="&#xaa;" horiz-adv-x="709" d="M-14 938q0 143 99 209.5t310 66.5q33 0 50.5 -0.5t31.5 -0.5q6 27 9 50.5t3 43.5q0 45 -31.5 68.5t-92.5 23.5q-64 0 -99.5 -28.5t-44.5 -86.5h-141q23 107 90.5 157t189.5 50q133 0 198 -45.5t65 -138.5q0 -24 -5 -57t-14 -73l-63 -278q-9 -39 -14 -75t-7 -70h-131 l21 112q-44 -60 -98.5 -89t-123.5 -29q-94 0 -148 51t-54 139zM119 950q0 -48 28.5 -75t79.5 -27q92 0 150.5 70.5t81.5 207.5h-31q-159 0 -234 -42.5t-75 -133.5z" />
<glyph unicode="&#xab;" horiz-adv-x="825" d="M39 528l274 383h150l-254 -395l59 -397h-133zM365 528l276 383h147l-251 -395l59 -397h-135z" />
<glyph unicode="&#xac;" horiz-adv-x="1706" d="M254 741v117h1198v-502h-115v385h-1083z" />
<glyph unicode="&#xad;" horiz-adv-x="569" d="M4 434l33 160h432l-33 -160h-432z" />
<glyph unicode="&#xae;" horiz-adv-x="1706" d="M119 725q0 147 57 282t164 242q101 103 232 157t280 54q150 0 284 -55.5t240 -161.5q102 -102 156.5 -235.5t54.5 -282.5q0 -151 -54.5 -283t-158.5 -233q-109 -106 -243.5 -162.5t-278.5 -56.5q-145 0 -278.5 56t-239.5 163q-105 104 -160 237t-55 279zM207 725 q0 -127 49 -244t141 -211q91 -92 208 -141t245 -49q131 0 249.5 48.5t213.5 141.5q91 90 139.5 206t48.5 245q0 133 -48 251.5t-138 209.5q-94 93 -211.5 141.5t-251.5 48.5q-132 0 -247 -47t-204 -137q-94 -95 -144 -214t-50 -249zM561 317v840h311q178 0 264.5 -57 t86.5 -174q0 -89 -53 -148.5t-144 -75.5l188 -385h-157l-176 365h-179v-365h-141zM702 774h148q123 0 175 33t52 108q0 79 -54.5 114.5t-176.5 35.5h-144v-291z" />
<glyph unicode="&#xaf;" horiz-adv-x="1024" d="M377 1257l29 140h501l-28 -140h-502z" />
<glyph unicode="&#xb0;" horiz-adv-x="674" d="M55 1171q0 119 82.5 201t200.5 82q117 0 200 -83t83 -200q0 -116 -83.5 -199t-201.5 -83t-199.5 82t-81.5 200zM135 1171q0 -84 59.5 -143t143.5 -59t142.5 59t58.5 143t-58.5 142.5t-142.5 58.5t-143.5 -58.5t-59.5 -142.5z" />
<glyph unicode="&#xb1;" horiz-adv-x="1706" d="M254 41v117h1198v-117h-1198zM254 719v117h541v344h118v-344h539v-117h-539v-344h-118v344h-541z" />
<glyph unicode="&#xb2;" horiz-adv-x="647" d="M-49 571l18 82l168 150q230 208 294.5 292.5t64.5 149.5q0 51 -31.5 79t-89.5 28t-93 -34t-49 -104h-120q21 112 88.5 170t177.5 58q113 0 174 -49t61 -140q0 -93 -73.5 -194.5t-307.5 -302.5l-110 -94h369l-21 -91h-520z" />
<glyph unicode="&#xb3;" horiz-adv-x="647" d="M2 752q0 14 3 48q1 5 1 7h119q-2 -15 -3 -30t-1 -32q0 -48 29 -73t86 -25q70 0 113.5 62.5t43.5 164.5q0 57 -31.5 80t-109.5 23h-23l25 92q7 -1 14.5 -1.5t22.5 -0.5q99 0 145.5 46.5t46.5 143.5q0 48 -26.5 73.5t-77.5 25.5q-59 0 -93 -34t-48 -105h-125 q27 118 92.5 171.5t183.5 53.5q102 0 157.5 -45.5t55.5 -128.5q0 -111 -50 -174.5t-149 -77.5q58 -20 84.5 -59.5t26.5 -104.5q0 -60 -20.5 -118.5t-53.5 -94.5q-38 -43 -88.5 -62.5t-124.5 -19.5q-113 0 -169 48.5t-56 146.5z" />
<glyph unicode="&#xb4;" horiz-adv-x="1024" d="M471 1163l231 348h191l-301 -348h-121z" />
<glyph unicode="&#xb5;" horiz-adv-x="1128" d="M-111 -426l316 1495h157l-126 -595q-8 -33 -11.5 -67t-3.5 -71q0 -109 57 -168t160 -59q125 0 208 101t128 308l121 551h156l-162 -754q-12 -52 -17.5 -84t-5.5 -51q0 -32 18.5 -48.5t53.5 -16.5q9 0 17.5 0.5t17.5 1.5l-27 -125q-21 -5 -44 -7.5t-48 -2.5 q-70 0 -104.5 35t-40.5 112q-41 -70 -117 -108.5t-172 -38.5q-87 0 -152.5 34t-109.5 103l-113 -545h-156z" />
<glyph unicode="&#xb6;" horiz-adv-x="1024" d="M76 1130q0 157 107.5 253t285.5 96h479v-78h-125v-1401h-94v1401h-182v-1401h-96v782q-173 8 -274 102.5t-101 245.5z" />
<glyph unicode="&#xb7;" horiz-adv-x="492" d="M127 713q0 48 32.5 81t80.5 33q49 0 81.5 -32.5t32.5 -81.5t-32.5 -81t-81.5 -32t-81 32t-32 81z" />
<glyph unicode="&#xb8;" horiz-adv-x="1024" d="M47 -422l37 98q80 -23 130 -34t81 -11q72 0 104.5 23.5t32.5 75.5q0 43 -40 61.5t-138 18.5h-23l66 190h78l-35 -102h22q106 0 159.5 -42t53.5 -124q0 -99 -64.5 -152t-184.5 -53q-48 0 -115.5 12.5t-163.5 38.5z" />
<glyph unicode="&#xb9;" horiz-adv-x="647" d="M176 1208l25 103q74 29 124.5 58.5t75.5 57.5h113l-201 -856h-118l167 723q-32 -25 -78.5 -46t-107.5 -40z" />
<glyph unicode="&#xba;" horiz-adv-x="715" d="M12 961q0 31 7 78t22 114q17 68 34.5 119.5t33.5 77.5q45 73 109 107t155 34q124 0 192 -59.5t68 -167.5q0 -35 -6.5 -80.5t-18.5 -100.5q-14 -64 -33.5 -118.5t-39.5 -90.5q-44 -71 -107.5 -104t-159.5 -33q-118 0 -187 60.5t-69 163.5zM145 958q0 -57 34 -88.5 t95 -31.5q50 0 84.5 20t59.5 64q11 18 25 61.5t32 118.5q13 53 19 91.5t6 63.5q0 66 -33 100t-96 34q-48 0 -82.5 -20t-61.5 -65q-11 -22 -26.5 -69.5t-30.5 -106.5q-13 -51 -19 -93t-6 -79z" />
<glyph unicode="&#xbb;" horiz-adv-x="825" d="M-63 119l253 393l-59 399h135l96 -411l-276 -381h-149zM264 119l254 393l-59 399h133l96 -411l-276 -381h-148z" />
<glyph unicode="&#xbc;" horiz-adv-x="1579" d="M166 1223l24 96q69 25 117.5 52.5t75.5 55.5h106l-190 -798h-115l160 674q-28 -22 -70.5 -41t-107.5 -39zM276 -25l902 1475h122l-901 -1475h-123zM956 205l27 108l389 486h148l-121 -516h112l-18 -78h-115l-49 -205h-112l49 205h-310zM1063 283h221l90 335 q11 38 20.5 67.5t18.5 57.5q-22 -32 -43 -61.5t-41 -54.5z" />
<glyph unicode="&#xbd;" horiz-adv-x="1579" d="M166 1223l24 96q69 25 117.5 52.5t75.5 55.5h106l-190 -798h-115l160 674q-28 -22 -70.5 -41t-107.5 -39zM276 -25l902 1475h122l-901 -1475h-123zM913 0l19 76l160 141q222 196 282 273.5t60 138.5q0 48 -30 74t-85 26q-56 0 -89.5 -31.5t-45.5 -97.5h-117 q22 105 86 158t170 53q108 0 166.5 -45t58.5 -129q0 -85 -68.5 -178t-297.5 -287l-105 -88h353l-21 -84h-496z" />
<glyph unicode="&#xbe;" horiz-adv-x="1579" d="M2 797q0 14 4 46v5h113q-1 -11 -2.5 -31.5t-1.5 -25.5q0 -45 28.5 -69t81.5 -24q68 0 109 59t41 154q0 53 -30 75t-105 22h-21l23 86q6 -1 13.5 -1.5t20.5 -0.5q96 0 140.5 42.5t44.5 133.5q0 46 -25.5 70t-73.5 24q-56 0 -89 -31.5t-48 -99.5h-116q24 109 86 159t176 50 q98 0 150 -41.5t52 -118.5q0 -104 -47 -163.5t-141 -72.5q55 -19 79.5 -55.5t24.5 -97.5q0 -57 -18.5 -110.5t-50.5 -88.5q-38 -41 -86 -59.5t-117 -18.5q-108 0 -161.5 45.5t-53.5 137.5zM276 -25l902 1475h122l-901 -1475h-123zM956 205l27 108l389 486h148l-121 -516h112 l-18 -78h-115l-49 -205h-112l49 205h-310zM1063 283h221l90 335q11 38 20.5 67.5t18.5 57.5q-22 -32 -43 -61.5t-41 -54.5z" />
<glyph unicode="&#xbf;" horiz-adv-x="807" d="M-20 252q0 113 36 215t99 166q50 51 134 117q28 22 39 32q5 4 14 11q62 49 79 125l39 188h164l-47 -223q-14 -62 -27 -93.5t-33 -56.5q-14 -18 -73 -67t-95 -84q-71 -70 -105 -153.5t-34 -186.5q0 -63 31.5 -95t93.5 -32q78 0 123.5 54.5t77.5 192.5h182 q-40 -202 -135.5 -293.5t-266.5 -91.5q-147 0 -221.5 69t-74.5 206zM446 1278l43 195h183l-41 -195h-185z" />
<glyph unicode="&#xc0;" horiz-adv-x="1141" d="M-156 0l762 1475h264l119 -1475h-194l-23 348h-555l-174 -348h-199zM299 510h463l-39 590q0 4 -1 13q-9 112 -9 190v30zM485 1957h199l211 -348h-109z" />
<glyph unicode="&#xc1;" horiz-adv-x="1141" d="M-156 0l762 1475h264l119 -1475h-194l-23 348h-555l-174 -348h-199zM299 510h463l-39 590q0 4 -1 13q-9 112 -9 190v30zM610 1609l231 348h191l-301 -348h-121z" />
<glyph unicode="&#xc2;" horiz-adv-x="1141" d="M-156 0l762 1475h264l119 -1475h-194l-23 348h-555l-174 -348h-199zM299 510h463l-39 590q0 4 -1 13q-9 112 -9 190v30zM448 1609l266 348h185l137 -348h-109l-133 219l-225 -219h-121z" />
<glyph unicode="&#xc3;" horiz-adv-x="1141" d="M-156 0l762 1475h264l119 -1475h-194l-23 348h-555l-174 -348h-199zM299 510h463l-39 590q0 4 -1 13q-9 112 -9 190v30zM506 1660q23 103 69 154t117 51q16 0 32.5 -2.5t32.5 -7.5l80 -27q10 -3 22.5 -5.5t22.5 -2.5q32 0 50.5 17.5t29.5 58.5h97q-25 -106 -72 -155.5 t-121 -49.5q-16 0 -29 2t-24 6l-80 29q-13 4 -25.5 6t-25.5 2q-33 0 -54 -19.5t-28 -55.5z" />
<glyph unicode="&#xc4;" horiz-adv-x="1141" d="M-156 0l762 1475h264l119 -1475h-194l-23 348h-555l-174 -348h-199zM299 510h463l-39 590q0 4 -1 13q-9 112 -9 190v30zM504 1669l43 209h182l-43 -209h-182zM833 1669l43 209h183l-43 -209h-183z" />
<glyph unicode="&#xc5;" horiz-adv-x="1141" d="M-156 0l752 1462h274l119 -1462h-194l-23 348h-555l-174 -348h-199zM299 510h463l-39 590q0 4 -1 13q-9 112 -9 190v30zM532 1747q0 94 65 159.5t159 65.5q95 0 160 -65t65 -160t-65 -159t-160 -64t-159.5 64t-64.5 159zM635 1747q0 -50 35.5 -85.5t85.5 -35.5 q51 0 87 35.5t36 85.5q0 52 -36 87.5t-87 35.5t-86 -35.5t-35 -87.5z" />
<glyph unicode="&#xc6;" horiz-adv-x="1599" d="M-195 0l932 1475h920l-35 -162h-596l-49 -465h520l-35 -162h-501l-56 -522h488l-35 -164h-658l37 348h-504l-215 -348h-213zM334 510h422l94 803h-19z" />
<glyph unicode="&#xc7;" horiz-adv-x="1096" d="M63 371q0 71 17 186.5t49 263.5q36 167 67 272t62 160q67 125 173 185.5t259 60.5q176 0 274.5 -91.5t98.5 -254.5q0 -26 -2 -49t-6 -47h-195q4 21 6 41.5t2 42.5q0 93 -49.5 142.5t-142.5 49.5q-96 0 -156.5 -42t-103.5 -140q-20 -42 -41 -117t-41 -176 q-43 -210 -60.5 -321t-17.5 -162q0 -114 54.5 -175t156.5 -61q111 0 181 76.5t97 226.5h197q-41 -233 -163 -350t-324 -117q-191 0 -291.5 101.5t-100.5 294.5zM106 -422l37 98q80 -23 130 -34t81 -11q72 0 104.5 23.5t32.5 75.5q0 43 -40 61.5t-138 18.5h-23l66 190h78 l-35 -102h22q106 0 159.5 -42t53.5 -124q0 -99 -64.5 -152t-184.5 -53q-48 0 -115.5 12.5t-163.5 38.5z" />
<glyph unicode="&#xc8;" horiz-adv-x="967" d="M-20 0l313 1475h731l-35 -162h-536l-99 -465h510l-35 -162h-510l-110 -522h551l-35 -164h-745zM399 1957h199l211 -348h-109z" />
<glyph unicode="&#xc9;" horiz-adv-x="967" d="M-20 0l313 1475h731l-35 -162h-536l-99 -465h510l-35 -162h-510l-110 -522h551l-35 -164h-745zM524 1609l231 348h191l-301 -348h-121z" />
<glyph unicode="&#xca;" horiz-adv-x="967" d="M-20 0l313 1475h731l-35 -162h-536l-99 -465h510l-35 -162h-510l-110 -522h551l-35 -164h-745zM362 1609l266 348h185l137 -348h-109l-133 219l-225 -219h-121z" />
<glyph unicode="&#xcb;" horiz-adv-x="967" d="M-20 0l313 1475h731l-35 -162h-536l-99 -465h510l-35 -162h-510l-110 -522h551l-35 -164h-745zM418 1669l43 209h182l-43 -209h-182zM747 1669l43 209h183l-43 -209h-183z" />
<glyph unicode="&#xcc;" horiz-adv-x="496" d="M-6 0l313 1475h195l-314 -1475h-194zM164 1957h199l211 -348h-109z" />
<glyph unicode="&#xcd;" horiz-adv-x="496" d="M-6 0l313 1475h195l-314 -1475h-194zM289 1609l231 348h191l-301 -348h-121z" />
<glyph unicode="&#xce;" horiz-adv-x="496" d="M-6 0l313 1475h195l-314 -1475h-194zM127 1609l266 348h185l137 -348h-109l-133 219l-225 -219h-121z" />
<glyph unicode="&#xcf;" horiz-adv-x="496" d="M-6 0l313 1475h195l-314 -1475h-194zM183 1669l43 209h182l-43 -209h-182zM512 1669l43 209h183l-43 -209h-183z" />
<glyph unicode="&#xd0;" horiz-adv-x="1186" d="M-27 709l31 143h172l131 623h373q231 0 333.5 -88.5t102.5 -284.5q0 -64 -11 -154.5t-34 -208.5q-29 -156 -64 -277t-73 -196q-79 -150 -191.5 -208t-349.5 -58h-399l151 709h-172zM223 162h162q183 0 252.5 38t122.5 144q25 53 51 144t51 217q24 125 36.5 224.5 t12.5 164.5q0 125 -51 172t-192 47h-201l-98 -461h278l-31 -143h-278z" />
<glyph unicode="&#xd1;" horiz-adv-x="1298" d="M-12 0l313 1475h311l195 -1106q2 -12 10.5 -103t13.5 -151h13q19 108 53 261l2 11l229 1088h183l-314 -1475h-307l-196 1105q-10 52 -16 117t-9 144h-14q-24 -127 -86 -426l-4 -22l-195 -918h-182zM613 1660q23 103 69 154t117 51q16 0 32.5 -2.5t32.5 -7.5l80 -27 q10 -3 22.5 -5.5t22.5 -2.5q32 0 50.5 17.5t29.5 58.5h97q-25 -106 -72 -155.5t-121 -49.5q-16 0 -29 2t-24 6l-80 29q-13 4 -25.5 6t-25.5 2q-33 0 -54 -19.5t-28 -55.5z" />
<glyph unicode="&#xd2;" horiz-adv-x="1180" d="M55 369q0 70 20 192t58 289q33 142 67 246.5t60 148.5q75 131 186.5 192.5t272.5 61.5q198 0 301.5 -99.5t103.5 -291.5q0 -69 -19 -189t-61 -307q-29 -132 -61 -228.5t-63 -152.5q-75 -130 -188 -193t-271 -63q-198 0 -302 101t-104 293zM248 379q0 -118 56.5 -178 t168.5 -60q95 0 161 38t114 120q24 44 47 117.5t47 179.5q54 241 72 343t18 155q0 121 -56 180t-171 59q-96 0 -160.5 -36.5t-112.5 -118.5q-19 -35 -45 -115.5t-49 -181.5q-49 -217 -69.5 -333.5t-20.5 -168.5zM506 1957h199l211 -348h-109z" />
<glyph unicode="&#xd3;" horiz-adv-x="1180" d="M55 369q0 70 20 192t58 289q33 142 67 246.5t60 148.5q75 131 186.5 192.5t272.5 61.5q198 0 301.5 -99.5t103.5 -291.5q0 -69 -19 -189t-61 -307q-29 -132 -61 -228.5t-63 -152.5q-75 -130 -188 -193t-271 -63q-198 0 -302 101t-104 293zM248 379q0 -118 56.5 -178 t168.5 -60q95 0 161 38t114 120q24 44 47 117.5t47 179.5q54 241 72 343t18 155q0 121 -56 180t-171 59q-96 0 -160.5 -36.5t-112.5 -118.5q-19 -35 -45 -115.5t-49 -181.5q-49 -217 -69.5 -333.5t-20.5 -168.5zM631 1609l231 348h191l-301 -348h-121z" />
<glyph unicode="&#xd4;" horiz-adv-x="1180" d="M55 369q0 70 20 192t58 289q33 142 67 246.5t60 148.5q75 131 186.5 192.5t272.5 61.5q198 0 301.5 -99.5t103.5 -291.5q0 -69 -19 -189t-61 -307q-29 -132 -61 -228.5t-63 -152.5q-75 -130 -188 -193t-271 -63q-198 0 -302 101t-104 293zM248 379q0 -118 56.5 -178 t168.5 -60q95 0 161 38t114 120q24 44 47 117.5t47 179.5q54 241 72 343t18 155q0 121 -56 180t-171 59q-96 0 -160.5 -36.5t-112.5 -118.5q-19 -35 -45 -115.5t-49 -181.5q-49 -217 -69.5 -333.5t-20.5 -168.5zM469 1609l266 348h185l137 -348h-109l-133 219l-225 -219 h-121z" />
<glyph unicode="&#xd5;" horiz-adv-x="1180" d="M55 369q0 70 20 192t58 289q33 142 67 246.5t60 148.5q75 131 186.5 192.5t272.5 61.5q198 0 301.5 -99.5t103.5 -291.5q0 -69 -19 -189t-61 -307q-29 -132 -61 -228.5t-63 -152.5q-75 -130 -188 -193t-271 -63q-198 0 -302 101t-104 293zM248 379q0 -118 56.5 -178 t168.5 -60q95 0 161 38t114 120q24 44 47 117.5t47 179.5q54 241 72 343t18 155q0 121 -56 180t-171 59q-96 0 -160.5 -36.5t-112.5 -118.5q-19 -35 -45 -115.5t-49 -181.5q-49 -217 -69.5 -333.5t-20.5 -168.5zM527 1660q23 103 69 154t117 51q16 0 32.5 -2.5t32.5 -7.5 l80 -27q10 -3 22.5 -5.5t22.5 -2.5q32 0 50.5 17.5t29.5 58.5h97q-25 -106 -72 -155.5t-121 -49.5q-16 0 -29 2t-24 6l-80 29q-13 4 -25.5 6t-25.5 2q-33 0 -54 -19.5t-28 -55.5z" />
<glyph unicode="&#xd6;" horiz-adv-x="1180" d="M55 369q0 70 20 192t58 289q33 142 67 246.5t60 148.5q75 131 186.5 192.5t272.5 61.5q198 0 301.5 -99.5t103.5 -291.5q0 -69 -19 -189t-61 -307q-29 -132 -61 -228.5t-63 -152.5q-75 -130 -188 -193t-271 -63q-198 0 -302 101t-104 293zM248 379q0 -118 56.5 -178 t168.5 -60q95 0 161 38t114 120q24 44 47 117.5t47 179.5q54 241 72 343t18 155q0 121 -56 180t-171 59q-96 0 -160.5 -36.5t-112.5 -118.5q-19 -35 -45 -115.5t-49 -181.5q-49 -217 -69.5 -333.5t-20.5 -168.5zM525 1669l43 209h182l-43 -209h-182zM854 1669l43 209h183 l-43 -209h-183z" />
<glyph unicode="&#xd7;" horiz-adv-x="1706" d="M301 135l475 475l-475 477l80 82l477 -477l475 477l82 -82l-475 -477l475 -475l-82 -82l-475 475l-477 -475z" />
<glyph unicode="&#xd8;" horiz-adv-x="1180" d="M-61 -18l149 194q-17 38 -25 81.5t-8 94.5q0 52 8 122t25 163q29 160 63 293t70 229q61 169 186.5 253.5t313.5 84.5q96 0 169.5 -25.5t133.5 -78.5l119 155l76 -55l-138 -178q22 -45 32.5 -93t10.5 -102q0 -51 -7.5 -116t-22.5 -148q-33 -180 -65.5 -312.5t-67.5 -224.5 q-65 -171 -190 -256.5t-312 -85.5q-101 0 -177.5 28.5t-138.5 88.5l-129 -168zM250 385l653 852q-27 48 -75.5 71t-122.5 23q-113 0 -187.5 -54t-114.5 -165q-51 -142 -91 -329.5t-62 -397.5zM268 258q19 -56 72 -85.5t135 -29.5q111 0 186 55.5t115 166.5q56 153 97 349.5 t59 405.5z" />
<glyph unicode="&#xd9;" horiz-adv-x="1180" d="M49 317q0 29 5 66.5t14 79.5l215 1012h194l-215 -1019q-9 -45 -12.5 -71t-3.5 -45q0 -98 61.5 -151.5t173.5 -53.5q130 0 207 80t113 250l213 1010h194l-215 -1008q-57 -266 -180.5 -380t-353.5 -114q-185 0 -297.5 95t-112.5 249zM506 1957h199l211 -348h-109z" />
<glyph unicode="&#xda;" horiz-adv-x="1180" d="M49 317q0 29 5 66.5t14 79.5l215 1012h194l-215 -1019q-9 -45 -12.5 -71t-3.5 -45q0 -98 61.5 -151.5t173.5 -53.5q130 0 207 80t113 250l213 1010h194l-215 -1008q-57 -266 -180.5 -380t-353.5 -114q-185 0 -297.5 95t-112.5 249zM631 1609l231 348h191l-301 -348h-121z " />
<glyph unicode="&#xdb;" horiz-adv-x="1180" d="M49 317q0 29 5 66.5t14 79.5l215 1012h194l-215 -1019q-9 -45 -12.5 -71t-3.5 -45q0 -98 61.5 -151.5t173.5 -53.5q130 0 207 80t113 250l213 1010h194l-215 -1008q-57 -266 -180.5 -380t-353.5 -114q-185 0 -297.5 95t-112.5 249zM469 1609l266 348h185l137 -348h-109 l-133 219l-225 -219h-121z" />
<glyph unicode="&#xdc;" horiz-adv-x="1180" d="M49 317q0 29 5 66.5t14 79.5l215 1012h194l-215 -1019q-9 -45 -12.5 -71t-3.5 -45q0 -98 61.5 -151.5t173.5 -53.5q130 0 207 80t113 250l213 1010h194l-215 -1008q-57 -266 -180.5 -380t-353.5 -114q-185 0 -297.5 95t-112.5 249zM525 1669l43 209h182l-43 -209h-182z M854 1669l43 209h183l-43 -209h-183z" />
<glyph unicode="&#xdd;" horiz-adv-x="958" d="M111 1475h196l170 -676l453 676h213l-604 -889l-125 -586h-195l125 584zM520 1609l231 348h191l-301 -348h-121z" />
<glyph unicode="&#xde;" horiz-adv-x="1071" d="M-12 0l313 1475h184l-61 -289h119q260 0 356 -69.5t96 -244.5q0 -113 -28.5 -210t-81.5 -166q-62 -79 -169.5 -113.5t-307.5 -34.5h-162l-74 -348h-184zM281 508h174q188 0 266 79t78 265q0 94 -54 133t-188 39h-168z" />
<glyph unicode="&#xdf;" horiz-adv-x="1049" d="M-35 0l234 1100q44 209 142 298t282 89q163 0 250.5 -67.5t87.5 -192.5q0 -87 -30.5 -144.5t-105.5 -109.5q-25 -19 -70 -48q-108 -71 -108 -122q0 -23 21.5 -59.5t60.5 -81.5q10 -12 29 -34q139 -161 139 -296q0 -164 -93.5 -257t-256.5 -93q-125 0 -190.5 53t-65.5 153 q0 21 2 41t6 39h166q-3 -16 -4.5 -29.5t-1.5 -23.5q0 -46 26.5 -71t75.5 -25q74 0 115 52t41 146q0 101 -81 194q-7 8 -12 14q-96 114 -124.5 168t-28.5 104t29.5 97t91.5 93q21 16 62 43q132 86 132 189q0 65 -42.5 99t-122.5 34q-109 0 -163 -59t-100 -277l-217 -1016 h-176z" />
<glyph unicode="&#xe0;" horiz-adv-x="944" d="M-18 262q0 205 131.5 301t412.5 96q33 0 105 -3l6 -1q9 46 12.5 77.5t3.5 58.5q0 64 -42.5 97.5t-125.5 33.5t-130.5 -41t-59.5 -123h-189q31 152 121 223.5t254 71.5q177 0 262.5 -65t85.5 -197q0 -36 -6 -82t-18 -105l-84 -395q-12 -53 -19 -105t-10 -104h-174l27 160 q-59 -86 -131.5 -128t-163.5 -42q-125 0 -196.5 73t-71.5 199zM158 281q0 -69 38.5 -108.5t106.5 -39.5q122 0 200.5 101.5t108.5 297.5h-43q-212 0 -311.5 -61t-99.5 -190zM266 1511h199l211 -348h-109z" />
<glyph unicode="&#xe1;" horiz-adv-x="944" d="M-18 262q0 205 131.5 301t412.5 96q33 0 105 -3l6 -1q9 46 12.5 77.5t3.5 58.5q0 64 -42.5 97.5t-125.5 33.5t-130.5 -41t-59.5 -123h-189q31 152 121 223.5t254 71.5q177 0 262.5 -65t85.5 -197q0 -36 -6 -82t-18 -105l-84 -395q-12 -53 -19 -105t-10 -104h-174l27 160 q-59 -86 -131.5 -128t-163.5 -42q-125 0 -196.5 73t-71.5 199zM158 281q0 -69 38.5 -108.5t106.5 -39.5q122 0 200.5 101.5t108.5 297.5h-43q-212 0 -311.5 -61t-99.5 -190zM391 1163l231 348h191l-301 -348h-121z" />
<glyph unicode="&#xe2;" horiz-adv-x="944" d="M-18 262q0 205 131.5 301t412.5 96q33 0 105 -3l6 -1q9 46 12.5 77.5t3.5 58.5q0 64 -42.5 97.5t-125.5 33.5t-130.5 -41t-59.5 -123h-189q31 152 121 223.5t254 71.5q177 0 262.5 -65t85.5 -197q0 -36 -6 -82t-18 -105l-84 -395q-12 -53 -19 -105t-10 -104h-174l27 160 q-59 -86 -131.5 -128t-163.5 -42q-125 0 -196.5 73t-71.5 199zM158 281q0 -69 38.5 -108.5t106.5 -39.5q122 0 200.5 101.5t108.5 297.5h-43q-212 0 -311.5 -61t-99.5 -190zM229 1163l266 348h185l137 -348h-109l-133 219l-225 -219h-121z" />
<glyph unicode="&#xe3;" horiz-adv-x="944" d="M-18 262q0 205 131.5 301t412.5 96q33 0 105 -3l6 -1q9 46 12.5 77.5t3.5 58.5q0 64 -42.5 97.5t-125.5 33.5t-130.5 -41t-59.5 -123h-189q31 152 121 223.5t254 71.5q177 0 262.5 -65t85.5 -197q0 -36 -6 -82t-18 -105l-84 -395q-12 -53 -19 -105t-10 -104h-174l27 160 q-59 -86 -131.5 -128t-163.5 -42q-125 0 -196.5 73t-71.5 199zM158 281q0 -69 38.5 -108.5t106.5 -39.5q122 0 200.5 101.5t108.5 297.5h-43q-212 0 -311.5 -61t-99.5 -190zM287 1214q23 103 69 154t117 51q16 0 32.5 -2.5t32.5 -7.5l80 -27q10 -3 22.5 -5.5t22.5 -2.5 q32 0 50.5 17.5t29.5 58.5h97q-25 -106 -72 -155.5t-121 -49.5q-16 0 -29 2t-24 6l-80 29q-13 4 -25.5 6t-25.5 2q-33 0 -54 -19.5t-28 -55.5z" />
<glyph unicode="&#xe4;" horiz-adv-x="944" d="M-18 262q0 205 131.5 301t412.5 96q33 0 105 -3l6 -1q9 46 12.5 77.5t3.5 58.5q0 64 -42.5 97.5t-125.5 33.5t-130.5 -41t-59.5 -123h-189q31 152 121 223.5t254 71.5q177 0 262.5 -65t85.5 -197q0 -36 -6 -82t-18 -105l-84 -395q-12 -53 -19 -105t-10 -104h-174l27 160 q-59 -86 -131.5 -128t-163.5 -42q-125 0 -196.5 73t-71.5 199zM158 281q0 -69 38.5 -108.5t106.5 -39.5q122 0 200.5 101.5t108.5 297.5h-43q-212 0 -311.5 -61t-99.5 -190zM285 1223l43 209h182l-43 -209h-182zM614 1223l43 209h183l-43 -209h-183z" />
<glyph unicode="&#xe5;" horiz-adv-x="944" d="M-18 262q0 205 131.5 301t412.5 96q33 0 105 -3l6 -1q9 46 12.5 77.5t3.5 58.5q0 64 -42.5 97.5t-125.5 33.5t-130.5 -41t-59.5 -123h-189q31 152 121 223.5t254 71.5q177 0 262.5 -65t85.5 -197q0 -36 -6 -82t-18 -105l-84 -395q-12 -53 -19 -105t-10 -104h-174l27 160 q-59 -86 -131.5 -128t-163.5 -42q-125 0 -196.5 73t-71.5 199zM158 281q0 -69 38.5 -108.5t106.5 -39.5q122 0 200.5 101.5t108.5 297.5h-43q-212 0 -311.5 -61t-99.5 -190zM342 1337q0 94 65.5 159t159.5 65q96 0 160 -64t64 -160q0 -95 -64.5 -160t-159.5 -65 q-94 0 -159.5 65.5t-65.5 159.5zM444 1337q0 -50 36 -86.5t85 -36.5q51 0 87 36.5t36 86.5q0 52 -35.5 86.5t-87.5 34.5q-51 0 -86 -34.5t-35 -86.5z" />
<glyph unicode="&#xe6;" horiz-adv-x="1509" d="M-18 238q0 178 127 276t360 98h162q11 61 16.5 104.5t5.5 71.5q0 65 -42.5 98.5t-125.5 33.5t-129.5 -40t-60.5 -124h-189q31 153 122 224t257 71q129 0 199 -31.5t88 -97.5q45 68 116.5 101.5t172.5 33.5q166 0 253 -85.5t87 -248.5q0 -38 -8 -95.5t-25 -142.5h-594 q-11 -53 -16.5 -100t-5.5 -90q0 -87 47.5 -129.5t144.5 -42.5q76 0 125 51.5t76 159.5h184q-38 -184 -138 -269t-276 -85q-116 0 -192.5 45t-116.5 137q-74 -90 -162.5 -134t-193.5 -44q-124 0 -196 68t-72 186zM154 254q0 -65 36.5 -100t104.5 -35q123 0 201.5 93.5 t105.5 272.5h-82q-183 0 -274.5 -58t-91.5 -173zM803 612h409q6 36 8.5 62.5t2.5 46.5q0 97 -42 145.5t-126 48.5q-103 0 -160.5 -68t-91.5 -235z" />
<glyph unicode="&#xe7;" horiz-adv-x="891" d="M10 -422l37 98q80 -23 130 -34t81 -11q72 0 104.5 23.5t32.5 75.5q0 43 -40 61.5t-138 18.5h-23l66 190h78l-35 -102h22q106 0 159.5 -42t53.5 -124q0 -99 -64.5 -152t-184.5 -53q-48 0 -115.5 12.5t-163.5 38.5zM20 299q0 45 9.5 112.5t27.5 151.5q23 104 45.5 177.5 t44.5 113.5q55 101 141.5 150t209.5 49q152 0 230.5 -74t78.5 -215q0 -11 -1 -25.5t-3 -41.5l-176 -1v5q4 36 4 53q0 79 -36.5 118t-109.5 39q-59 0 -102 -29.5t-74 -93.5q-17 -34 -35.5 -95.5t-37.5 -149.5q-20 -85 -29.5 -150.5t-9.5 -105.5q0 -85 40 -126.5t121 -41.5 q85 0 134.5 53.5t66.5 163.5h180q-26 -184 -127 -272.5t-284 -88.5q-144 0 -226 86.5t-82 237.5z" />
<glyph unicode="&#xe8;" horiz-adv-x="952" d="M16 297q0 47 9.5 113.5t27.5 152.5q21 97 44.5 171t47.5 118q59 105 144 153t213 48q167 0 254.5 -85.5t87.5 -248.5q0 -38 -8 -95.5t-25 -142.5h-594q-11 -53 -16.5 -99.5t-5.5 -88.5q0 -88 47.5 -131t144.5 -43q76 0 125 51.5t76 159.5h184q-38 -183 -138.5 -269 t-275.5 -86q-160 0 -251 85.5t-91 236.5zM246 608h409q6 36 8.5 62.5t2.5 46.5q0 97 -42 145.5t-126 48.5q-102 0 -159 -67.5t-93 -235.5zM276 1511h199l211 -348h-109z" />
<glyph unicode="&#xe9;" horiz-adv-x="952" d="M16 297q0 47 9.5 113.5t27.5 152.5q21 97 44.5 171t47.5 118q59 105 144 153t213 48q167 0 254.5 -85.5t87.5 -248.5q0 -38 -8 -95.5t-25 -142.5h-594q-11 -53 -16.5 -99.5t-5.5 -88.5q0 -88 47.5 -131t144.5 -43q76 0 125 51.5t76 159.5h184q-38 -183 -138.5 -269 t-275.5 -86q-160 0 -251 85.5t-91 236.5zM246 608h409q6 36 8.5 62.5t2.5 46.5q0 97 -42 145.5t-126 48.5q-102 0 -159 -67.5t-93 -235.5zM401 1163l231 348h191l-301 -348h-121z" />
<glyph unicode="&#xea;" horiz-adv-x="952" d="M16 297q0 47 9.5 113.5t27.5 152.5q21 97 44.5 171t47.5 118q59 105 144 153t213 48q167 0 254.5 -85.5t87.5 -248.5q0 -38 -8 -95.5t-25 -142.5h-594q-11 -53 -16.5 -99.5t-5.5 -88.5q0 -88 47.5 -131t144.5 -43q76 0 125 51.5t76 159.5h184q-38 -183 -138.5 -269 t-275.5 -86q-160 0 -251 85.5t-91 236.5zM239 1163l266 348h185l137 -348h-109l-133 219l-225 -219h-121zM246 608h409q6 36 8.5 62.5t2.5 46.5q0 97 -42 145.5t-126 48.5q-102 0 -159 -67.5t-93 -235.5z" />
<glyph unicode="&#xeb;" horiz-adv-x="952" d="M16 297q0 47 9.5 113.5t27.5 152.5q21 97 44.5 171t47.5 118q59 105 144 153t213 48q167 0 254.5 -85.5t87.5 -248.5q0 -38 -8 -95.5t-25 -142.5h-594q-11 -53 -16.5 -99.5t-5.5 -88.5q0 -88 47.5 -131t144.5 -43q76 0 125 51.5t76 159.5h184q-38 -183 -138.5 -269 t-275.5 -86q-160 0 -251 85.5t-91 236.5zM246 608h409q6 36 8.5 62.5t2.5 46.5q0 97 -42 145.5t-126 48.5q-102 0 -159 -67.5t-93 -235.5zM295 1223l43 209h182l-43 -209h-182zM624 1223l43 209h183l-43 -209h-183z" />
<glyph unicode="&#xec;" horiz-adv-x="426" d="M-29 0l219 1028h177l-220 -1028h-176zM47 1511h199l211 -348h-109z" />
<glyph unicode="&#xed;" horiz-adv-x="426" d="M-29 0l219 1028h177l-220 -1028h-176zM172 1163l231 348h191l-301 -348h-121z" />
<glyph unicode="&#xee;" horiz-adv-x="426" d="M-29 0l219 1028h177l-220 -1028h-176zM10 1163l266 348h185l137 -348h-109l-133 219l-225 -219h-121z" />
<glyph unicode="&#xef;" horiz-adv-x="426" d="M-29 0l219 1028h177l-220 -1028h-176zM66 1223l43 209h182l-43 -209h-182zM395 1223l43 209h183l-43 -209h-183z" />
<glyph unicode="&#xf0;" horiz-adv-x="856" d="M-4 264q0 40 8.5 100.5t26.5 141.5q19 87 39.5 153t42.5 105q50 92 127 136t188 44q37 0 70.5 -5t62.5 -15q-5 44 -18.5 91.5t-38.5 106.5l-254 -63l-29 94l225 59q-22 45 -67.5 92t-110.5 91l70 80q72 -39 134 -94.5t118 -129.5l235 60l31 -94l-213 -60q50 -101 75 -215 t25 -237q0 -118 -24 -244t-70 -248q-47 -123 -131 -180.5t-217 -57.5q-141 0 -223 78t-82 211zM156 270q0 -81 40 -123.5t117 -42.5q58 0 98.5 26.5t69.5 82.5q15 28 33 87t37 140q14 62 21.5 114t7.5 89q0 86 -39.5 129t-116.5 43q-57 0 -98 -26t-72 -82q-12 -22 -30 -81 t-38 -143q-14 -62 -22 -117.5t-8 -95.5z" />
<glyph unicode="&#xf1;" horiz-adv-x="946" d="M-39 0l168 793q9 40 18 91t23 144h166l-29 -151q60 87 139 130.5t179 43.5q103 0 160 -62t57 -174q0 -22 -4.5 -54t-16.5 -89l-141 -672h-176l145 688q9 43 12 63.5t3 34.5q0 63 -30.5 95t-88.5 32q-115 0 -184 -94.5t-119 -331.5l-105 -487h-176zM306 1214 q23 103 69 154t117 51q16 0 32.5 -2.5t32.5 -7.5l80 -27q10 -3 22.5 -5.5t22.5 -2.5q32 0 50.5 17.5t29.5 58.5h97q-25 -106 -72 -155.5t-121 -49.5q-16 0 -29 2t-24 6l-80 29q-13 4 -25.5 6t-25.5 2q-33 0 -54 -19.5t-28 -55.5z" />
<glyph unicode="&#xf2;" horiz-adv-x="952" d="M16 295q0 49 10 119t29 157q22 98 45 171t45 110q59 103 144.5 152t208.5 49q165 0 255.5 -85t90.5 -239q0 -51 -8.5 -116t-24.5 -142q-21 -96 -46.5 -173.5t-51.5 -125.5q-58 -102 -143.5 -149.5t-213.5 -47.5q-156 0 -248 87t-92 233zM195 293q0 -83 44.5 -128.5 t127.5 -45.5q64 0 109.5 29t80.5 92q14 25 32.5 87.5t43.5 170.5q16 70 24.5 126t8.5 95q0 94 -43.5 142t-128.5 48q-65 0 -110.5 -28.5t-80.5 -92.5q-15 -27 -36 -95.5t-40 -153.5q-16 -71 -24 -132t-8 -114zM278 1511h199l211 -348h-109z" />
<glyph unicode="&#xf3;" horiz-adv-x="952" d="M16 295q0 49 10 119t29 157q22 98 45 171t45 110q59 103 144.5 152t208.5 49q165 0 255.5 -85t90.5 -239q0 -51 -8.5 -116t-24.5 -142q-21 -96 -46.5 -173.5t-51.5 -125.5q-58 -102 -143.5 -149.5t-213.5 -47.5q-156 0 -248 87t-92 233zM195 293q0 -83 44.5 -128.5 t127.5 -45.5q64 0 109.5 29t80.5 92q14 25 32.5 87.5t43.5 170.5q16 70 24.5 126t8.5 95q0 94 -43.5 142t-128.5 48q-65 0 -110.5 -28.5t-80.5 -92.5q-15 -27 -36 -95.5t-40 -153.5q-16 -71 -24 -132t-8 -114zM403 1163l231 348h191l-301 -348h-121z" />
<glyph unicode="&#xf4;" horiz-adv-x="952" d="M16 295q0 49 10 119t29 157q22 98 45 171t45 110q59 103 144.5 152t208.5 49q165 0 255.5 -85t90.5 -239q0 -51 -8.5 -116t-24.5 -142q-21 -96 -46.5 -173.5t-51.5 -125.5q-58 -102 -143.5 -149.5t-213.5 -47.5q-156 0 -248 87t-92 233zM195 293q0 -83 44.5 -128.5 t127.5 -45.5q64 0 109.5 29t80.5 92q14 25 32.5 87.5t43.5 170.5q16 70 24.5 126t8.5 95q0 94 -43.5 142t-128.5 48q-65 0 -110.5 -28.5t-80.5 -92.5q-15 -27 -36 -95.5t-40 -153.5q-16 -71 -24 -132t-8 -114zM241 1163l266 348h185l137 -348h-109l-133 219l-225 -219h-121z " />
<glyph unicode="&#xf5;" horiz-adv-x="952" d="M16 295q0 49 10 119t29 157q22 98 45 171t45 110q59 103 144.5 152t208.5 49q165 0 255.5 -85t90.5 -239q0 -51 -8.5 -116t-24.5 -142q-21 -96 -46.5 -173.5t-51.5 -125.5q-58 -102 -143.5 -149.5t-213.5 -47.5q-156 0 -248 87t-92 233zM195 293q0 -83 44.5 -128.5 t127.5 -45.5q64 0 109.5 29t80.5 92q14 25 32.5 87.5t43.5 170.5q16 70 24.5 126t8.5 95q0 94 -43.5 142t-128.5 48q-65 0 -110.5 -28.5t-80.5 -92.5q-15 -27 -36 -95.5t-40 -153.5q-16 -71 -24 -132t-8 -114zM299 1214q23 103 69 154t117 51q16 0 32.5 -2.5t32.5 -7.5 l80 -27q10 -3 22.5 -5.5t22.5 -2.5q32 0 50.5 17.5t29.5 58.5h97q-25 -106 -72 -155.5t-121 -49.5q-16 0 -29 2t-24 6l-80 29q-13 4 -25.5 6t-25.5 2q-33 0 -54 -19.5t-28 -55.5z" />
<glyph unicode="&#xf6;" horiz-adv-x="952" d="M16 295q0 49 10 119t29 157q22 98 45 171t45 110q59 103 144.5 152t208.5 49q165 0 255.5 -85t90.5 -239q0 -51 -8.5 -116t-24.5 -142q-21 -96 -46.5 -173.5t-51.5 -125.5q-58 -102 -143.5 -149.5t-213.5 -47.5q-156 0 -248 87t-92 233zM195 293q0 -83 44.5 -128.5 t127.5 -45.5q64 0 109.5 29t80.5 92q14 25 32.5 87.5t43.5 170.5q16 70 24.5 126t8.5 95q0 94 -43.5 142t-128.5 48q-65 0 -110.5 -28.5t-80.5 -92.5q-15 -27 -36 -95.5t-40 -153.5q-16 -71 -24 -132t-8 -114zM297 1223l43 209h182l-43 -209h-182zM626 1223l43 209h183 l-43 -209h-183z" />
<glyph unicode="&#xf7;" horiz-adv-x="1706" d="M254 553v117h1198v-117h-1198zM739 250q0 48 34 81.5t81 33.5t81 -34t34 -81t-33.5 -81t-81.5 -34t-81.5 33.5t-33.5 81.5zM739 971q0 47 34 80.5t81 33.5q48 0 81.5 -33.5t33.5 -80.5q0 -48 -33.5 -81.5t-81.5 -33.5q-49 0 -82 33.5t-33 81.5z" />
<glyph unicode="&#xf8;" horiz-adv-x="952" d="M-96 23l137 145q-11 26 -17 60.5t-6 76.5q0 48 8.5 111.5t24.5 142.5q22 100 46 175.5t48 121.5q57 103 143 152t212 49q86 0 151.5 -24.5t118.5 -76.5l100 111l68 -53l-121 -133q15 -36 22 -73t7 -77q0 -48 -9 -113.5t-26 -142.5q-23 -100 -48 -176.5t-50 -122.5 q-58 -101 -144 -148.5t-211 -47.5q-90 0 -158 27.5t-116 84.5l-117 -125zM193 334l454 491q-25 44 -64 66t-91 22q-122 0 -187.5 -121.5t-111.5 -457.5zM207 221q21 -50 62.5 -74t107.5 -24q119 0 186 134t105 460z" />
<glyph unicode="&#xf9;" horiz-adv-x="946" d="M12 213q0 25 4.5 60.5t14.5 83.5l143 671h174l-145 -686q-8 -40 -11.5 -62.5t-3.5 -37.5q0 -63 30.5 -95t88.5 -32q116 0 186 95.5t119 330.5l105 487h176l-168 -793q-9 -40 -18 -91t-23 -144h-166l27 152q-60 -88 -139 -131.5t-179 -43.5q-102 0 -158.5 61.5 t-56.5 174.5zM307 1511h199l211 -348h-109z" />
<glyph unicode="&#xfa;" horiz-adv-x="946" d="M12 213q0 25 4.5 60.5t14.5 83.5l143 671h174l-145 -686q-8 -40 -11.5 -62.5t-3.5 -37.5q0 -63 30.5 -95t88.5 -32q116 0 186 95.5t119 330.5l105 487h176l-168 -793q-9 -40 -18 -91t-23 -144h-166l27 152q-60 -88 -139 -131.5t-179 -43.5q-102 0 -158.5 61.5 t-56.5 174.5zM432 1163l231 348h191l-301 -348h-121z" />
<glyph unicode="&#xfb;" horiz-adv-x="946" d="M12 213q0 25 4.5 60.5t14.5 83.5l143 671h174l-145 -686q-8 -40 -11.5 -62.5t-3.5 -37.5q0 -63 30.5 -95t88.5 -32q116 0 186 95.5t119 330.5l105 487h176l-168 -793q-9 -40 -18 -91t-23 -144h-166l27 152q-60 -88 -139 -131.5t-179 -43.5q-102 0 -158.5 61.5 t-56.5 174.5zM270 1163l266 348h185l137 -348h-109l-133 219l-225 -219h-121z" />
<glyph unicode="&#xfc;" horiz-adv-x="946" d="M12 213q0 25 4.5 60.5t14.5 83.5l143 671h174l-145 -686q-8 -40 -11.5 -62.5t-3.5 -37.5q0 -63 30.5 -95t88.5 -32q116 0 186 95.5t119 330.5l105 487h176l-168 -793q-9 -40 -18 -91t-23 -144h-166l27 152q-60 -88 -139 -131.5t-179 -43.5q-102 0 -158.5 61.5 t-56.5 174.5zM326 1223l43 209h182l-43 -209h-182zM655 1223l43 209h183l-43 -209h-183z" />
<glyph unicode="&#xfd;" horiz-adv-x="868" d="M-27 -389l189 360l-103 1057h174l39 -561q7 -89 10 -146t3 -108q0 -41 -0.5 -61t-1.5 -39q15 59 36.5 115.5t49.5 109.5l354 690h182l-751 -1417h-181zM393 1163l231 348h191l-301 -348h-121z" />
<glyph unicode="&#xfe;" horiz-adv-x="967" d="M-123 -389l395 1864h174l-120 -572q57 77 124.5 112.5t153.5 35.5q122 0 188 -77.5t66 -219.5q0 -56 -8 -123t-25 -146q-24 -114 -53 -201.5t-59 -136.5q-53 -83 -123 -122t-166 -39q-94 0 -154.5 39t-101.5 127l-117 -541h-174zM223 319q0 -97 43 -146.5t127 -49.5 q75 0 117.5 33.5t73.5 115.5q42 119 67 251t25 231q0 83 -38 122t-118 39q-60 0 -109 -34.5t-85 -102.5q-14 -24 -33.5 -87t-38.5 -148q-15 -67 -23 -123.5t-8 -100.5z" />
<glyph unicode="&#xff;" horiz-adv-x="868" d="M-27 -389l189 360l-103 1057h174l39 -561q7 -89 10 -146t3 -108q0 -41 -0.5 -61t-1.5 -39q15 59 36.5 115.5t49.5 109.5l354 690h182l-751 -1417h-181zM287 1223l43 209h182l-43 -209h-182zM616 1223l43 209h183l-43 -209h-183z" />
<glyph unicode="&#x152;" horiz-adv-x="1645" d="M57 375q0 71 18.5 186.5t55.5 278.5q32 139 65 241.5t64 157.5q77 134 188.5 192t299.5 58q81 0 202 -7t160 -7h592l-35 -162h-537l-98 -465h510l-35 -162h-510l-110 -522h551l-35 -164h-588q-58 0 -176.5 -7t-179.5 -7q-197 0 -299.5 99t-102.5 290zM250 383 q0 -126 58.5 -181t195.5 -55q36 0 83.5 4.5t106.5 12.5l244 1149q-44 6 -91.5 9t-96.5 3q-118 0 -175.5 -20.5t-99.5 -69.5q-32 -38 -55.5 -89t-52.5 -157q-54 -193 -85.5 -363t-31.5 -243z" />
<glyph unicode="&#x153;" horiz-adv-x="1536" d="M16 301q0 50 9.5 118t27.5 150q20 96 44 169.5t48 117.5q57 103 143 152t210 49q100 0 167.5 -34.5t114.5 -109.5q57 75 128.5 109.5t170.5 34.5q171 0 259.5 -85t88.5 -249q0 -38 -7.5 -95.5t-24.5 -142.5h-592q-14 -78 -19.5 -119.5t-5.5 -68.5q0 -88 47.5 -131 t145.5 -43q75 0 124.5 51.5t75.5 159.5h185q-40 -187 -140 -270.5t-282 -83.5q-102 0 -165 32.5t-107 108.5q-57 -73 -129 -107t-171 -34q-160 0 -253 86t-93 235zM195 295q0 -83 44.5 -127.5t127.5 -44.5q64 0 109.5 29t80.5 92q15 26 33.5 88t42.5 168q16 70 24.5 127 t8.5 96q0 94 -43.5 142t-128.5 48q-65 0 -110.5 -28.5t-80.5 -91.5q-15 -28 -36 -96.5t-40 -153.5q-16 -70 -24 -132t-8 -116zM829 612h410q6 31 9 58.5t3 52.5q0 94 -44 143t-128 49q-101 0 -157.5 -67t-92.5 -236z" />
<glyph unicode="&#x178;" horiz-adv-x="958" d="M111 1475h196l170 -676l453 676h213l-604 -889l-125 -586h-195l125 584zM414 1669l43 209h182l-43 -209h-182zM743 1669l43 209h183l-43 -209h-183z" />
<glyph unicode="&#x2c6;" horiz-adv-x="1024" d="M309 1163l266 348h185l137 -348h-109l-133 219l-225 -219h-121z" />
<glyph unicode="&#x2dc;" horiz-adv-x="1024" d="M367 1214q23 103 69 154t117 51q16 0 32.5 -2.5t32.5 -7.5l80 -27q10 -3 22.5 -5.5t22.5 -2.5q32 0 50.5 17.5t29.5 58.5h97q-25 -106 -72 -155.5t-121 -49.5q-16 0 -29 2t-24 6l-80 29q-13 4 -25.5 6t-25.5 2q-33 0 -54 -19.5t-28 -55.5z" />
<glyph unicode="&#x2000;" horiz-adv-x="986" />
<glyph unicode="&#x2001;" horiz-adv-x="1972" />
<glyph unicode="&#x2002;" horiz-adv-x="986" />
<glyph unicode="&#x2003;" horiz-adv-x="1972" />
<glyph unicode="&#x2004;" horiz-adv-x="657" />
<glyph unicode="&#x2005;" horiz-adv-x="493" />
<glyph unicode="&#x2006;" horiz-adv-x="328" />
<glyph unicode="&#x2007;" horiz-adv-x="328" />
<glyph unicode="&#x2008;" horiz-adv-x="246" />
<glyph unicode="&#x2009;" horiz-adv-x="394" />
<glyph unicode="&#x200a;" horiz-adv-x="109" />
<glyph unicode="&#x2010;" horiz-adv-x="569" d="M4 434l33 160h432l-33 -160h-432z" />
<glyph unicode="&#x2011;" horiz-adv-x="569" d="M4 434l33 160h432l-33 -160h-432z" />
<glyph unicode="&#x2012;" horiz-adv-x="569" d="M4 434l33 160h432l-33 -160h-432z" />
<glyph unicode="&#x2013;" horiz-adv-x="1024" d="M-70 455l25 118h1049l-25 -118h-1049z" />
<glyph unicode="&#x2014;" horiz-adv-x="2048" d="M-70 455l25 118h2048l-25 -118h-2048z" />
<glyph unicode="&#x2018;" horiz-adv-x="426" d="M141 1073l213 402h150l-133 -402h-230z" />
<glyph unicode="&#x2019;" horiz-adv-x="426" d="M147 1073l132 402h231l-213 -402h-150z" />
<glyph unicode="&#x201a;" horiz-adv-x="426" d="M-123 -211l131 401h232l-215 -401h-148z" />
<glyph unicode="&#x201c;" horiz-adv-x="795" d="M141 1073l213 402h150l-133 -402h-230zM508 1073l213 402h149l-133 -402h-229z" />
<glyph unicode="&#x201d;" horiz-adv-x="795" d="M147 1073l132 402h231l-213 -402h-150zM514 1073l131 402h232l-213 -402h-150z" />
<glyph unicode="&#x201e;" horiz-adv-x="795" d="M-123 -211l131 401h232l-215 -401h-148zM244 -211l131 401h231l-215 -401h-147z" />
<glyph unicode="&#x2022;" horiz-adv-x="1208" d="M307 762q0 123 87 209t210 86q122 0 208.5 -86.5t86.5 -208.5t-87.5 -209.5t-209.5 -87.5q-123 0 -209 87t-86 210z" />
<glyph unicode="&#x2026;" horiz-adv-x="2048" d="M90 0l43 205h194l-43 -205h-194zM772 0l43 205h194l-43 -205h-194zM1456 0l43 205h194l-43 -205h-194z" />
<glyph unicode="&#x202f;" horiz-adv-x="394" />
<glyph unicode="&#x2039;" horiz-adv-x="498" d="M39 528l276 383h150l-254 -395l59 -397h-135z" />
<glyph unicode="&#x203a;" horiz-adv-x="498" d="M-63 119l253 393l-59 399h135l96 -411l-276 -381h-149z" />
<glyph unicode="&#x205f;" horiz-adv-x="493" />
<glyph unicode="&#x20ac;" d="M-33 539l53 118h99l33 162h-166l53 119h135q66 294 187.5 427.5t320.5 133.5q143 0 227 -81t84 -218q0 -16 -2 -39.5t-8 -79.5h-172q6 40 8 62t2 37q0 82 -42 128t-117 46q-111 0 -179 -88.5t-129 -327.5h377l-47 -119h-352l-33 -162h324l-50 -118h-299 q-17 -86 -23.5 -135t-6.5 -82q0 -97 45 -149t129 -52q94 0 161 76t99 221h174q-54 -222 -168 -332.5t-289 -110.5q-155 0 -240 90t-85 252q0 33 5.5 82.5t20.5 139.5h-129z" />
<glyph unicode="&#x2122;" horiz-adv-x="1706" d="M254 1389v67h440v-67h-172v-467h-94v467h-174zM819 922v534h129l160 -405l149 405h132v-534h-82v458l-172 -458h-54l-180 458v-458h-82z" />
<glyph unicode="&#x25fc;" horiz-adv-x="1030" d="M0 0v1030h1030v-1030h-1030z" />
</font>
</defs>
</svg>
